<svg xmlns="http://www.w3.org/2000/svg" width="227.901" height="337.196" viewBox="0 0 227.901 337.196"><defs><style>.a{fill:#fff;}.b{fill:#fcdc4a;}.c{fill:#211715;}</style></defs><path class="a" d="M137.436,146.178c2.2,2.465,4.92,6.077,7.076,8.573,1.269,1.47,2.2,4.168,1.48,6.115-.828,1.654-3.537,12.939-6.969,20.436-6.907-3.273-19.2-15.425-23.057-19.768C117.413,160.509,136.5,146.936,137.436,146.178Z"></path><path class="a" d="M90.764,146.178c-2.2,2.465-4.92,6.077-7.076,8.573-1.269,1.47-2.2,4.168-1.48,6.115.828,1.654,3.487,12.939,6.919,20.436,6.907-3.273,19.247-15.425,23.107-19.768C110.787,160.509,91.7,146.936,90.764,146.178Z"></path><path class="a" d="M34.207,312.486c-8.477-3.269-22.754-13.039-27.019-20.976a38.822,38.822,0,0,1-4.175-25.437c5-21.542,5.957-30.566,12.174-57.929A45.671,45.671,0,0,1,29.2,183.42a46.237,46.237,0,0,1,9.056-6.023c7.6-3.871,23.628-10.293,37.431-15.971l3.889-1.565,2.4-.966a4.609,4.609,0,0,0,.233,1.971c.828,1.654,3.487,12.939,6.919,20.436,6.907-3.273,19.247-15.425,23.107-19.768h3.732c3.86,4.343,16.15,16.5,23.057,19.768,3.432-7.5,6.141-18.782,6.969-20.436a4.549,4.549,0,0,0,.24-1.873l2.156.868,3.889,1.565c13.8,5.678,29.827,12.1,37.431,15.971a46.269,46.269,0,0,1,9.057,6.023,45.676,45.676,0,0,1,14.008,24.724c6.217,27.363,7.177,36.387,12.174,57.929a38.828,38.828,0,0,1-4.174,25.437c-4.266,7.937-18.543,17.707-27.02,20.976Z"></path><path class="a" d="M170.752,87.668a6.61,6.61,0,0,0-5.938-3.3,6.987,6.987,0,0,0-5.467,2.234c1.87-3.734,3.382-7.238,2.9-11.153a15.652,15.652,0,0,0-6.218-10.485,38.819,38.819,0,0,0-15.078-6.714c-7.4-1.65-16.878-2.155-26.877-2.389-10,.234-19.476.739-26.877,2.389a38.821,38.821,0,0,0-15.077,6.714A15.657,15.657,0,0,0,65.905,75.45c-.473,3.875,1,7.347,2.848,11.039a7.026,7.026,0,0,0-5.367-2.12,6.61,6.61,0,0,0-5.938,3.3c-2.017,3.5-1.932,9.946-.578,13.935.959,2.825,2.53,7.147,6.318,10.246a7.7,7.7,0,0,0,6.55,1.64,54.166,54.166,0,0,0,10.279,19.393c4.485,5.369,9.21,9.279,14.524,11.593h-.01c-.118,1.372-.292,2.694-.51,4.069,5.746,4.127,17.11,12.207,18.213,12.989h3.732c1.228-.87,15.156-10.773,19.919-14.217-.151-1.031-.268-2.064-.358-3.1l-1.111.007c11.264-5.273,20.289-20.754,21.878-25.069a46.113,46.113,0,0,0,2.083-5.653l.581.1a7.85,7.85,0,0,0,6.054-1.748c3.788-3.1,5.359-7.421,6.318-10.246C172.684,97.614,172.769,91.167,170.752,87.668Z"></path><path class="a" d="M122.5,59.873c-6.064,2.555-14.616,7.921-19.416,10.587a1.642,1.642,0,0,1-2.34-1.763,8.659,8.659,0,0,0-.207-3.154c-.32-1.318-1.332-1.877-2.121-1.464-6.723,3.527-16.3,12.644-21.731,18.692l-8.013,3.555c-1.805-3.631-3.232-7.058-2.766-10.876a15.657,15.657,0,0,1,6.219-10.485A38.815,38.815,0,0,1,87.2,58.251c7.4-1.65,16.878-2.155,26.877-2.389,10,.234,19.477.739,26.877,2.389a38.819,38.819,0,0,1,15.078,6.714,15.652,15.652,0,0,1,6.218,10.485c.466,3.818-.961,7.245-2.766,10.876l-6.7-3.168c-2.318-5.832-7.551-12.275-13.009-16.972a29.045,29.045,0,0,0-8.282-5.209Z"></path><path class="a" d="M158.809,147.437c4.412,3.688,8.714,10.13,11.271,16.074,6.959,16.172,11.795,39.891,10.324,66.194a8.038,8.038,0,0,1-2.747,5.888c-1.568,1.225-3.71,1.347-5.7,1.333a71.384,71.384,0,0,1-21.7-3.539c-1.544-.506-3.2-1.167-4-2.582a6.994,6.994,0,0,1-.411-4.227q2.148-19.451,3.8-38.953a262.648,262.648,0,0,0,.49-31.416"></path><path class="a" d="M69.377,147.437c-4.412,3.688-8.713,10.13-11.271,16.074-6.959,16.172-11.8,39.891-10.324,66.194a8.039,8.039,0,0,0,2.748,5.888c1.568,1.225,3.709,1.347,5.7,1.333a71.372,71.372,0,0,0,21.7-3.539c1.545-.506,3.2-1.167,4-2.582a6.717,6.717,0,0,0,.411-4.227c-1.826-13.16-2.693-25.953-3.8-38.953a264.71,264.71,0,0,1-.306-31.514"></path><path class="a" d="M9.586,264.229q-.037-.7-.037-1.409c0-30.962,74.577-35.752,104.544-35.752,26.732,0,104.544,0,104.544,35.752,0,34.875-82.282,38.217-110.11,38.217C81.065,301.037,11.41,299.1,9.586,264.229Z"></path><path class="a" d="M42.569,267.817c.068-5.148,2.343-9.649,6.162-13.431a21.387,21.387,0,0,1,19.32-5.575,18.672,18.672,0,0,1,10.09,6.814,35.317,35.317,0,0,1,4.112,7.991,23.264,23.264,0,0,1,.1,11.208A19.5,19.5,0,0,1,68.991,288.2c-6.521,1.813-16.448-.5-21.729-7.344-1.664-1.7-3.583-5.9-4.138-8.227A19.606,19.606,0,0,1,42.569,267.817Z"></path><path class="a" d="M132.989,241.2c-3.487.058-7.509,3.394-9.53,5.633-.982,1.087-1.492,1.915-1.242,1.985,2.64.736,5.367,1.5,7.506,3.222,2.114,1.7,3.521,4.581,2.68,7.159-.185.567-.468,1.2-.179,1.726a1.908,1.908,0,0,0,.966.695c6.6,2.95,11.14,9.377,13.463,16.227s2.723,14.178,3.1,21.4a17.569,17.569,0,0,1,.021,2.469c3.761-2.866,7.125-5.432,7.125-5.432,9.592-11.328,11.327-28.652,4.05-40.077C154.177,245.571,145.111,241,132.989,241.2Z"></path><path class="a" d="M21.006,295.287A42.99,42.99,0,0,1,16.149,282.3s0-1.082,0-2.665c18.276,20.086,69.709,21.4,92.382,21.4,22.452,0,80.354-2.175,101.885-21.334-.006,1.528-.006,2.6-.006,2.6s-6.07,53.615-96.313,52.382C52.821,335.517,29.6,311.07,21.006,295.287Z"></path><path class="a" d="M203.858,297.932c2.352-22.487,20.636-19.671,17.717,5.327,0,6.347-3.144,14.844-8.7,20.588-6.483,6.7-15.94,10.085-22.716,8.547-14.31.165-29.667-19.71-10.345-25.975,3.558-1.827,3.746-9.253,9.479-7.307,2.284-4.854,8.935-3.635,12.29-.52"></path><path class="a" d="M87.853,225.077a27.127,27.127,0,0,1,4.68,7.845c.418.112.842.227,1.276.348,4.45-6.008,11.484-10.3,18.967-12.724a26.119,26.119,0,0,1,8.105-19.372,22.78,22.78,0,0,1,3.755-2.279,43.785,43.785,0,0,0-7.189,2.754,139.925,139.925,0,0,0-32.093,20.792A27.893,27.893,0,0,1,87.853,225.077Z"></path><path class="a" d="M24.858,298.382c-2.42-23.149-21.242-20.251-18.238,5.483,0,6.534,3.237,15.281,8.957,21.193,6.675,6.9,16.409,10.382,23.384,8.8,14.732.17,30.54-20.29,10.65-26.739-3.662-1.881-3.857-9.525-9.757-7.522-2.352-5-9.2-3.742-12.652-.535"></path><path class="b" d="M199.294,242.032a21.435,21.435,0,0,0-7.635-9.735c.289-1.224.707-2.827,1.094-4.368a.607.607,0,0,0-.293-.823c-2.105-1.482-5.357-3.513-7.535-4.885-1.222-.769-1.762-.9-2.891,0-.959.765-1.931,2.994-3.055,4.363a22.087,22.087,0,0,0-15.987.606,28.493,28.493,0,0,0-14.7,17.123,31.674,31.674,0,0,1,12.657,11.9c3.793,5.954,5.115,13.509,4.176,20.984a12.7,12.7,0,0,0,2.252.567c11.123,2.856,23.421-2.825,28.776-10.053S202.524,250.428,199.294,242.032Z" style="fill: rgb(100, 100, 100);"></path><path class="b" d="M87.853,225.077a18.322,18.322,0,0,0-7.055-5.6c-6.189-2.418-13.042.807-18.759,4.195C48.552,231.67,39.184,238.41,27.2,250.159a27.4,27.4,0,0,0-5.8,8.19c-1.279,3.132-1.131,6.746,1.088,9.3,2.592,2.983,6.82,3.425,10.756,3.07a75.3,75.3,0,0,0,9.364-1.461c-.032-.485-.051-.966-.045-1.44.068-5.148,2.343-9.649,6.162-13.431a21.388,21.388,0,0,1,19.321-5.575,18.711,18.711,0,0,1,9.829,6.484q1.344-.687,2.68-1.378c3.924-2.027,8.077-4.334,10.632-7.8a12.69,12.69,0,0,0,1.612-2.886C95.226,237.1,92.093,230.125,87.853,225.077Z" style="fill: rgb(100, 100, 100);"></path><path class="b" d="M133.19,261.62a1.9,1.9,0,0,1-.966-.7c-.289-.522-.006-1.158.179-1.725.841-2.578-.566-5.461-2.68-7.159-2.139-1.717-4.866-2.486-7.506-3.222-.25-.07.26-.9,1.241-1.985,2.022-2.239,6.044-5.575,9.531-5.633,9.439-.157,17.018,2.6,23.113,8.839a23.254,23.254,0,0,0,.62-3.241,77.349,77.349,0,0,0-.411-12.6,10.32,10.32,0,0,0-1.047-3.794,8.885,8.885,0,0,0-3.894-3.184,30.952,30.952,0,0,0-20.411-2.524l-.1-6.286c-12.588-1.34-30.024,4.232-37.809,15.888,0,0-18.507,24.262,11.191,33.785,17.909,5.742,29.731,4.457,37.53.511A22.549,22.549,0,0,0,133.19,261.62Z" style="fill: rgb(100, 100, 100);"></path><path class="b" d="M80.518,300.1c10.9.805,20.877.936,28.009.936a389.029,389.029,0,0,0,41.207-2.195c-.374-7.091-.8-14.274-3.081-21-2.323-6.85-6.86-13.278-13.463-16.227a1.9,1.9,0,0,1-.966-.7c-.289-.522-.006-1.158.179-1.725.841-2.578-.566-5.461-2.68-7.159-2.76-2.216-6.5-2.853-9.767-3.876-3.316.94-5.68-11.221-12.722-12.108-2.459-.309-4.676,1.941-7.12,2.347-3.085.514-6.43-1.287-9.52-.8-5.747.9-10.033,5.784-12.887,10.852a50.643,50.643,0,0,0-3.834,40.431A33.369,33.369,0,0,0,80.518,300.1Z" style="fill: rgb(100, 100, 100);"></path><path class="b" d="M202.4,65.414a82.832,82.832,0,0,0-28.247-17.727c-.73-2.264-1.281-3.979-1.281-3.979-2.325-6.58-9.242-19.7-20.11-28.7-9.048-7.487-26.172-13.18-39.33-12.564C100.267,1.828,83.139,7.522,74.089,15.01,63.222,24,56.305,37.128,53.979,43.708c0,0-.719,1.772-1.68,4.143A82.525,82.525,0,0,0,24.451,65.414c-8.146,7.861-11.3,16.592-11.3,25.985,0,8.335,7.68,18.986,15.04,24.067C43.613,126.11,58.27,128.829,76.524,131.68h2.549a54.5,54.5,0,0,1-9.335-18.191,7.7,7.7,0,0,1-6.55-1.64c-3.788-3.1-5.359-7.421-6.318-10.246-1.354-3.989-1.439-10.436.578-13.935a6.61,6.61,0,0,1,5.938-3.3,7.026,7.026,0,0,1,5.367,2.12c-1.844-3.692-3.321-7.164-2.848-11.039a15.657,15.657,0,0,1,6.219-10.485A38.821,38.821,0,0,1,87.2,58.251c7.4-1.65,16.878-2.155,26.877-2.389,10,.234,19.477.739,26.877,2.389a38.819,38.819,0,0,1,15.078,6.714,15.652,15.652,0,0,1,6.218,10.485c.478,3.915-1.034,7.419-2.9,11.153a6.987,6.987,0,0,1,5.467-2.234,6.61,6.61,0,0,1,5.938,3.3c2.017,3.5,1.932,9.946.578,13.935-.959,2.825-2.53,7.147-6.318,10.246a7.85,7.85,0,0,1-6.054,1.748l-.581-.1a46.113,46.113,0,0,1-2.083,5.653,57.543,57.543,0,0,1-7.584,12.528h1.613c18.254-2.851,32.911-5.57,48.33-16.214,7.359-5.081,14.7-15.32,14.7-23.656C213.355,82.418,210.542,73.275,202.4,65.414Z" style="fill: rgb(100, 100, 100);"></path><path class="b" d="M130.857,218.408l.1,6.286a30.952,30.952,0,0,1,20.411,2.524,8.885,8.885,0,0,1,3.894,3.184,6.612,6.612,0,0,1,.654,1.675,27.247,27.247,0,0,1,7.074-4.89,21.11,21.11,0,0,1,8.754-1.8c.936-6.393-.32-13.1-5.1-18.072a20.861,20.861,0,0,0-14.882-6.858,17.1,17.1,0,0,1-7.42-1.952c-6.226-3.339-16.2-2.8-23.462,2.668a26.119,26.119,0,0,0-8.105,19.372A44.941,44.941,0,0,1,130.857,218.408Z" style="fill: rgb(100, 100, 100);"></path><path class="c" d="M78.932,157.546l-1.328.533-.192.077a2.69,2.69,0,0,0-1.434,1.1,1.778,1.778,0,0,0-.285.893,1.823,1.823,0,0,0,.043.957l.242.573a2.4,2.4,0,0,0,.861.861l.573.242a2.423,2.423,0,0,0,1.276,0l1.328-.533.192-.077a2.69,2.69,0,0,0,1.434-1.1,1.777,1.777,0,0,0,.285-.892,1.812,1.812,0,0,0-.043-.957l-.242-.574a2.416,2.416,0,0,0-.861-.861l-.573-.242a2.423,2.423,0,0,0-1.276,0Z"></path><path class="c" d="M9.172,290.119a37.931,37.931,0,0,1-4.1-12.673,36.368,36.368,0,0,1-.121-8.1A56.512,56.512,0,0,1,6.332,262.3c1.713-7.628,3.236-15.294,4.742-22.965,1.743-8.875,3.56-17.734,5.531-26.561,1.1-4.911,2.165-9.8,4.365-14.36A43.482,43.482,0,0,1,28.8,187.18a40.907,40.907,0,0,1,11.732-8.243c5.171-2.539,10.5-4.761,15.813-6.982A2.48,2.48,0,0,0,58.024,169a2.415,2.415,0,0,0-2.952-1.677c-5.194,2.172-10.4,4.346-15.484,6.756a51.746,51.746,0,0,0-11.256,6.909A47.772,47.772,0,0,0,13.15,206.3c-4.171,17.377-7.1,35.02-10.945,52.466C1.613,261.45.862,264.133.462,266.85a39.531,39.531,0,0,0-.278,9.78,43.556,43.556,0,0,0,4.844,15.912c1.439,2.734,5.584.311,4.144-2.423Z"></path><path class="c" d="M150.958,158.316l-1.686-.673-.244-.1a1.823,1.823,0,0,0-.957-.043,1.794,1.794,0,0,0-.892.285,2.674,2.674,0,0,0-1.1,1.435l-.086.638a2.385,2.385,0,0,0,.328,1.211l.375.486a2.407,2.407,0,0,0,1.059.617l1.687.673.243.1a1.823,1.823,0,0,0,.957.043,1.791,1.791,0,0,0,.892-.285,2.677,2.677,0,0,0,1.1-1.434l.086-.638a2.379,2.379,0,0,0-.328-1.212l-.375-.485a2.389,2.389,0,0,0-1.059-.618Z"></path><path class="c" d="M171.882,172.075c4.819,2.012,9.637,4.044,14.353,6.288a43.767,43.767,0,0,1,10.561,6.51,44.617,44.617,0,0,1,13.615,23.705c3.772,16.706,6.8,33.557,10.457,50.287q.8,3.642,1.636,7.273a31.6,31.6,0,0,1,.6,8.951A37.226,37.226,0,0,1,219,289.719c-1.406,2.744,2.734,5.176,4.144,2.423a43.109,43.109,0,0,0,4.426-13.809,45.638,45.638,0,0,0-1.151-16.6c-1.764-7.813-3.33-15.667-4.873-23.527-1.812-9.232-3.707-18.446-5.765-27.626a65.115,65.115,0,0,0-4.893-15.1,47.835,47.835,0,0,0-8.469-11.835,44.56,44.56,0,0,0-12.579-8.858c-5.453-2.672-11.078-5-16.68-7.342a2.414,2.414,0,0,0-2.952,1.677,2.462,2.462,0,0,0,1.676,2.952Z"></path><path class="c" d="M56.293,44.346a40.258,40.258,0,0,1,1.871-4.435c.936-1.954,1.964-3.864,3.067-5.73a70.98,70.98,0,0,1,9.086-12.29A46.22,46.22,0,0,1,82.045,12.6,65.036,65.036,0,0,1,96.452,6.94,57.816,57.816,0,0,1,111.659,4.8a73.647,73.647,0,0,1,14.909,1.226c9.767,2.044,19.581,5.964,26.953,12.847a67.543,67.543,0,0,1,11.191,13.814c1.322,2.13,2.547,4.321,3.653,6.57a43.081,43.081,0,0,1,2.189,5.089,2.461,2.461,0,0,0,2.952,1.676,2.42,2.42,0,0,0,1.676-2.952A72.7,72.7,0,0,0,159.925,18.5a50.43,50.43,0,0,0-12.7-10.043,70.571,70.571,0,0,0-15.551-6.142A62.833,62.833,0,0,0,115.2,0,79.856,79.856,0,0,0,99.009,1.4c-10.587,2.221-21.1,6.637-29.077,14.082A71.6,71.6,0,0,0,51.665,43.07a2.422,2.422,0,0,0,1.676,2.952,2.447,2.447,0,0,0,2.952-1.676Z"></path><path class="c" d="M77.162,129.366c-13.106-2.05-26.394-4.315-38.345-10.363-5.863-2.967-11.426-6.477-15.755-11.482-3.615-4.179-7.236-9.793-7.492-15.485a31.353,31.353,0,0,1,4.405-17.267c3.4-5.7,8.583-10.305,13.9-14.2,10.29-7.535,22.2-12.283,34.57-15.138,12.99-3,26.344-4,39.638-4.436,6.7-.218,13.394.027,20.087.425,6.618.392,13.234.991,19.787,2.011,12.557,1.954,25.02,5.359,36.2,11.521,11.112,6.124,22.575,14.981,25.766,27.858a36.155,36.155,0,0,1,1.033,9,19.03,19.03,0,0,1-2.124,8.077,36.184,36.184,0,0,1-12.118,14,78.075,78.075,0,0,1-17.921,9.033,125.716,125.716,0,0,1-19.114,4.786c-3.323.6-6.657,1.135-9.993,1.657a2.416,2.416,0,0,0-1.676,2.952,2.458,2.458,0,0,0,2.952,1.676c13.836-2.163,27.664-4.7,40.214-11.216,6.187-3.212,12.084-7.1,16.556-12.513,4.215-5.1,7.917-11.492,8.022-18.29a38.684,38.684,0,0,0-4.727-19.35c-3.549-6.355-9.087-11.289-14.842-15.613-10.754-8.081-23.459-13.2-36.5-16.207-13.666-3.153-27.749-4.2-41.735-4.633-7.032-.216-14.077.1-21.095.565s-14.047,1.193-21,2.352c-13.3,2.22-26.458,6.213-38.091,13.16s-23.2,16.938-26.14,30.782a33.485,33.485,0,0,0-.809,9.651,26.272,26.272,0,0,0,2.808,9.312A41.846,41.846,0,0,0,26.7,117.342c11.478,8.145,24.878,12.365,38.586,14.886,3.522.647,7.059,1.213,10.6,1.766a2.476,2.476,0,0,0,2.953-1.676,2.419,2.419,0,0,0-1.677-2.952Z"></path><path class="c" d="M156.923,109.516a56.807,56.807,0,0,1-3.1,9.392c-.11.277.213-.482.083-.2-.041.09-.078.182-.12.271-.079.17-.156.342-.236.511-.227.478-.467.95-.713,1.419-.556,1.057-1.151,2.093-1.771,3.113a56.831,56.831,0,0,1-12.177,14.516,22.531,22.531,0,0,1-9.131,4.765c-3.008.7-1.735,5.325,1.276,4.629,6.928-1.6,12.7-6.654,17.22-11.912a61.76,61.76,0,0,0,9.677-14.618c.154-.344.3-.69.445-1.038.062-.153.348-.82.074-.19.382-.878.756-1.758,1.092-2.655a45.052,45.052,0,0,0,2-6.731,2.459,2.459,0,0,0-1.676-2.953,2.424,2.424,0,0,0-2.952,1.677Z"></path><path class="c" d="M66.518,110.63a57.211,57.211,0,0,0,8.034,18.915c4.126,6.213,9.551,12.031,16.12,15.687a31.938,31.938,0,0,0,10.844,3.707,2.48,2.48,0,0,0,2.953-1.677,2.419,2.419,0,0,0-1.677-2.952c-13.455-1.991-23.5-13.612-28.634-25.559a53.959,53.959,0,0,1-3.011-9.4c-.683-3.012-5.312-1.737-4.629,1.276Z"></path><path class="c" d="M161.362,87.951a5.1,5.1,0,0,1,7.067.5c-.341-.419.113.2.168.286a6.642,6.642,0,0,1,.372.669,10.5,10.5,0,0,1,.654,2.245,18.822,18.822,0,0,1,.23,5.033,21.79,21.79,0,0,1-2.529,8.414c-1.413,2.709-4.158,6.662-7.728,6.181a2.484,2.484,0,0,0-2.952,1.677,2.417,2.417,0,0,0,1.676,2.952c8.378,1.127,13.252-7.04,15.421-13.966a24.075,24.075,0,0,0,.637-10.87,10.941,10.941,0,0,0-4.253-7.52,10.061,10.061,0,0,0-12.157,1c-2.3,2.072,1.1,5.458,3.394,3.394Z"></path><path class="c" d="M70.232,84.557a10.154,10.154,0,0,0-11.179-1.566A9.778,9.778,0,0,0,54.1,89.7c-1.669,6.621.031,14.237,3.837,19.848,2.79,4.114,6.782,7.054,11.943,6.36a2.414,2.414,0,0,0,1.676-2.952,2.466,2.466,0,0,0-2.952-1.677c-3.51.473-6.23-3.361-7.647-6.026a21.829,21.829,0,0,1-2.61-8.569c-.186-2.668.006-6.385,1.489-8.315-.167.217.327-.351.384-.409a1.625,1.625,0,0,1,.5-.414,4.751,4.751,0,0,1,1.745-.683,5.049,5.049,0,0,1,4.372,1.085c2.29,2.063,5.7-1.321,3.394-3.394Z"></path><path class="c" d="M105.6,124.805a18.65,18.65,0,0,0,8.981,2.081,14.628,14.628,0,0,0,9.078-2.684,2.4,2.4,0,0,0,0-3.394,2.474,2.474,0,0,0-3.394,0c.732-.571.18-.146-.008-.025s-.364.221-.553.32c-.1.051-.2.1-.3.147-.312.161-.126-.084.111-.038-.158-.031-.6.225-.762.277a13.557,13.557,0,0,1-2.135.488c.361-.055-.021,0-.182.014-.21.021-.419.039-.629.052-.5.033-1.011.046-1.517.043-.454,0-.906-.019-1.359-.049-.207-.014-.415-.031-.622-.052-.04,0-.79-.12-.28-.03a17.648,17.648,0,0,1-1.994-.442c-.279-.084-.551-.184-.827-.278-.607-.208.372.19-.176-.069q-.513-.242-1.013-.5a2.4,2.4,0,1,0-2.423,4.144Z"></path><path class="c" d="M113.327,103.694a42,42,0,0,1,.988,4.518l-.086-.638a2.763,2.763,0,0,1,.017.623l.085-.638a1.515,1.515,0,0,1-.068.281l.242-.573a1.125,1.125,0,0,1-.1.18l.375-.486a.889.889,0,0,1-.148.146l.486-.376a2.85,2.85,0,0,1-.358.19l.574-.242a2.655,2.655,0,0,1-.6.176l.638-.086a2.39,2.39,0,0,1-.567,0l.638.086c-.213-.03-.423-.082-.636-.111a1.812,1.812,0,0,0-.957-.042,1.78,1.78,0,0,0-.892.284,2.4,2.4,0,0,0-.861,3.284,2.3,2.3,0,0,0,1.434,1.1c.493.066.972.192,1.474.214a4.715,4.715,0,0,0,2.181-.521,3.162,3.162,0,0,0,1.75-2.085,5.21,5.21,0,0,0-.022-2.237c-.246-1.455-.582-2.9-.957-4.325a2.4,2.4,0,1,0-4.628,1.276Z"></path><path class="c" d="M89.517,90.876c-.754,2.452-.263,8.092,4.383,8.573,6.139-.037,6.466-6.857,4.4-10.063C96.607,86.761,91.631,85.669,89.517,90.876Z"></path><path class="c" d="M138.683,90.876c.754,2.452.263,8.093-4.382,8.573-6.14-.037-6.467-6.857-4.4-10.063C131.593,86.761,136.568,85.669,138.683,90.876Z"></path><path class="c" d="M111.693,164.6v39.028c0,3.089,4.8,3.094,4.8,0V164.6c0-3.088-4.8-3.093-4.8,0Z"></path><path class="c" d="M135.739,147.875c1.23,1.387,2.394,2.83,3.556,4.275s2.432,2.816,3.519,4.3a5.442,5.442,0,0,1,.87,1.82,7.09,7.09,0,0,1,.159,1.211c.015.143-.081.718.041.251-.218.832-.649,1.666-.907,2.5-1.858,6-3.427,12.13-6.026,17.864l3.284-.861c-4.593-2.216-8.566-5.831-12.313-9.223a135.593,135.593,0,0,1-10.259-10.17l-.486,3.77q9.357-6.635,18.677-13.322c1.1-.791,2.219-1.565,3.279-2.41a2.414,2.414,0,0,0,0-3.394,2.459,2.459,0,0,0-3.394,0c.789-.629,0-.008-.34.238q-.834.608-1.671,1.208-2.428,1.748-4.863,3.484-5.484,3.918-10.979,7.825-1.564,1.113-3.132,2.226a2.444,2.444,0,0,0-.485,3.769,135.921,135.921,0,0,0,10.513,10.4c3.959,3.567,8.191,7.408,13.03,9.744,1.073.517,2.715.392,3.284-.861,2.866-6.324,4.575-13.013,6.694-19.6.124-.385.286-.765.4-1.152-.136.459-.185.6.115-.26a6.786,6.786,0,0,0,.315-1.665,9.41,9.41,0,0,0-1.628-5.766c-1.107-1.644-2.539-3.12-3.78-4.665-1.336-1.662-2.665-3.331-4.08-4.927C137.08,142.165,133.7,145.57,135.739,147.875Z"></path><path class="c" d="M89.067,144.481c-1.415,1.6-2.744,3.265-4.08,4.927-1.241,1.544-2.674,3.022-3.78,4.665a9.4,9.4,0,0,0-1.628,5.766,6.786,6.786,0,0,0,.315,1.665c.129.372.351,1.083.114.26.112.387.276.767.4,1.152,2.1,6.587,3.785,13.276,6.649,19.6.564,1.244,2.217,1.375,3.284.861,4.845-2.338,9.085-6.178,13.054-9.744a134.479,134.479,0,0,0,10.538-10.4,2.444,2.444,0,0,0-.485-3.769Q104.2,152.91,95,146.306q-.979-.705-1.957-1.412c-.225-.163-.45-.329-.675-.493-.424-.308-.22-.17.094.08a2.475,2.475,0,0,0-3.394,0,2.417,2.417,0,0,0,0,3.394c2.454,1.956,5.088,3.71,7.64,5.534q5.547,3.963,11.1,7.914,1.6,1.143,3.212,2.284l-.486-3.77a134.25,134.25,0,0,1-10.283,10.17c-3.757,3.391-7.739,7-12.338,9.223l3.284.861c-2.6-5.731-4.142-11.868-5.982-17.864-.256-.833-.682-1.664-.9-2.5.127.481.033-.181.041-.251a7.2,7.2,0,0,1,.159-1.211,5.412,5.412,0,0,1,.869-1.82c2.2-2.939,4.639-5.825,7.076-8.573C94.5,145.571,91.121,142.164,89.067,144.481Z"></path><path class="c" d="M147.73,156.211c.842,14.639-.22,29.26-1.59,43.83a2.418,2.418,0,0,0,2.4,2.4,2.452,2.452,0,0,0,2.4-2.4c1.37-14.57,2.432-29.191,1.59-43.83-.176-3.071-4.978-3.092-4.8,0Z"></path><path class="c" d="M157.113,149.138c7.781,6.6,11.763,16.586,14.694,26.086a145.754,145.754,0,0,1,5.762,29.75c.579,6.375.641,12.722.641,19.117,0,3.088,4.8,3.093,4.8,0a188.013,188.013,0,0,0-2.695-34.181c-1.846-10.054-4.566-20.289-9.037-29.52a44.729,44.729,0,0,0-10.771-14.646,2.463,2.463,0,0,0-3.394,0,2.421,2.421,0,0,0,0,3.394Z"></path><path class="c" d="M83.88,219.781c0-2.091-.483-4.284-.695-6.368q-.359-3.526-.671-7.059c-.413-4.617-.784-9.237-1.165-13.856-.631-7.647-1.03-15.262-1.036-22.939,0-4.483.066-8.972.327-13.448.18-3.086-4.62-3.076-4.8,0-.458,7.852-.431,15.757-.149,23.615.3,8.241,1.136,16.471,1.851,24.683q.339,3.9.72,7.785.195,1.953.4,3.905a35.265,35.265,0,0,1,.414,3.682c0,3.088,4.8,3.093,4.8,0Z"></path><path class="c" d="M50.654,231.773a15.153,15.153,0,0,1-.591-4.493q-.1-2.4-.131-4.794-.062-4.689.136-9.375a158.889,158.889,0,0,1,1.711-17.689c1.646-10.574,4.245-21.259,8.569-31.08,2.485-5.646,5.991-11.185,10.729-15.2a2.42,2.42,0,0,0,0-3.394,2.45,2.45,0,0,0-3.394,0c-8.993,7.628-13.456,19.523-16.627,30.54a156.649,156.649,0,0,0-5.675,34.534q-.3,5.352-.259,10.717.021,2.872.141,5.745a19.823,19.823,0,0,0,.763,5.769c1.006,2.9,5.645,1.653,4.628-1.276Z"></path><path class="c" d="M70.744,85.114c-1.8-3.647-3.239-7.378-2.016-11.443a15.008,15.008,0,0,1,6.657-8.077c6.853-4.414,14.962-5.847,22.949-6.556a180.388,180.388,0,0,1,28.125-.261c8.078.543,16.443,1.488,23.716,5.307,3.688,1.936,7.272,4.526,8.888,8.516,1.774,4.382.338,8.49-1.65,12.514a2.46,2.46,0,0,0,.861,3.284,2.421,2.421,0,0,0,3.283-.861c2.214-4.481,3.888-9.065,2.77-14.11a18.634,18.634,0,0,0-7.234-10.649c-7.407-5.6-16.7-7.488-25.743-8.4a177.037,177.037,0,0,0-30.786-.325c-9.23.682-18.695,2.01-26.763,6.87-4.352,2.621-7.978,6.212-9.594,11.126-1.786,5.432-.03,10.581,2.392,15.484a2.424,2.424,0,0,0,3.284.861,2.45,2.45,0,0,0,.861-3.284Z"></path><path class="c" d="M130.279,63.049a36.407,36.407,0,0,1,11.672,8.507,40,40,0,0,1,8.517,12.24,2.476,2.476,0,0,0,2.952,1.676A2.416,2.416,0,0,0,155.1,82.52a45.771,45.771,0,0,0-9.483-14.077A40.189,40.189,0,0,0,132.7,58.905a2.477,2.477,0,0,0-3.284.861,2.417,2.417,0,0,0,.861,3.283Z"></path><path class="c" d="M78.381,84.468A102.4,102.4,0,0,1,96.153,68.277c.713-.488,1.438-.959,2.181-1.4a7.438,7.438,0,0,0,1.039-.589,11.637,11.637,0,0,1-1.192-.25c.016-.015.234,1.146.142.607.172,1.013-.092,2.024.1,3.03a4.142,4.142,0,0,0,1.916,2.812c2.066,1.223,3.932.077,5.749-.97,1.7-.975,3.379-1.97,5.07-2.952a115.321,115.321,0,0,1,12.554-6.619,2.414,2.414,0,0,0,.861-3.284,2.463,2.463,0,0,0-3.283-.861,105.828,105.828,0,0,0-11.208,5.841c-1.814,1.044-3.618,2.107-5.427,3.158-.722.419-1.445.837-2.172,1.247a2.06,2.06,0,0,0-.489.275c-.3.329.443-.124.748.043.56.306.427.46.456-.367.085-2.384-.568-5.452-3.148-6.275-1.956-.624-3.786.752-5.348,1.764a80.128,80.128,0,0,0-9.919,7.82,131.765,131.765,0,0,0-9.794,9.768c-2.062,2.291,1.322,5.7,3.394,3.394Z"></path><path class="c" d="M44.592,232.326a92.24,92.24,0,0,0-21.5,8.2c-5.389,3.015-10.653,7.1-13.557,12.681a21.069,21.069,0,0,0-2.384,9.618c-.023,3.089,4.777,3.092,4.8,0,.038-4.975,2.35-9.282,6.051-12.8,4.417-4.193,10.115-7.017,15.745-9.2a114.791,114.791,0,0,1,12.122-3.871c2.983-.791,1.718-5.422-1.276-4.629Z"></path><path class="c" d="M221.04,262.821a25.054,25.054,0,0,0-6.693-16.869c-4.581-5.028-10.729-8.32-16.939-10.886l1.762,2.315v-.01c0-3.089-4.8-3.094-4.8,0v.01a2.494,2.494,0,0,0,1.762,2.314c5.347,2.21,10.625,5.148,14.6,9.417a20.028,20.028,0,0,1,5.5,13.709c.021,3.087,4.822,3.094,4.8,0Z"></path><path class="c" d="M96.01,237.691a24.013,24.013,0,0,0-4.468-11.714c-2.3-3.3-5.179-6.5-8.851-8.269l1.189,2.073v-.01a2.355,2.355,0,0,0-1.189-2.073c-7.395-3.271-14.964-.128-21.488,3.689a188.8,188.8,0,0,0-19.486,12.907,129.9,129.9,0,0,0-16.934,14.944c-4.53,4.948-9.4,12.669-4.725,19.17,2.362,3.287,6.2,4.621,10.118,4.8,4.34.193,8.851-.71,13.072-1.629,3.017-.657,1.74-5.285-1.276-4.629a56.141,56.141,0,0,1-10.257,1.467c-2.425.07-5.141-.19-7-1.914-4.639-4.291.779-11.034,3.9-14.333a132.765,132.765,0,0,1,15.036-13.344,175.321,175.321,0,0,1,16.661-11.3c5.521-3.352,13.228-8.655,19.964-5.675l-1.189-2.072v.01a2.37,2.37,0,0,0,1.189,2.072A19.3,19.3,0,0,1,87.4,228.4a19.427,19.427,0,0,1,3.812,9.291,2.463,2.463,0,0,0,2.4,2.4,2.418,2.418,0,0,0,2.4-2.4Z"></path><path class="c" d="M74.155,234.949c.29.34.576.684.854,1.035.048.061.266.339.034.043s-.02-.023.027.039c.11.148.219.3.326.448.467.657.91,1.337,1.318,2.032.194.331.371.671.537,1.018.086.18.166.363.249.544.124.273-.2-.491-.037-.084.037.095.075.189.112.283a19.735,19.735,0,0,1,.746,2.374,2.423,2.423,0,0,0,2.952,1.676,2.449,2.449,0,0,0,1.677-2.952,19.93,19.93,0,0,0-2.092-5.282,32.174,32.174,0,0,0-3.309-4.568,2.41,2.41,0,0,0-3.394,0,2.461,2.461,0,0,0,0,3.394Z"></path><path class="c" d="M65.37,241.362a51.152,51.152,0,0,1,4.123,6.847,2.417,2.417,0,0,0,3.283.861,2.457,2.457,0,0,0,.861-3.284,51.1,51.1,0,0,0-4.122-6.847,2.607,2.607,0,0,0-1.435-1.1,2.452,2.452,0,0,0-1.849.242,2.417,2.417,0,0,0-1.1,1.434,2.349,2.349,0,0,0,.242,1.85Z"></path><path class="c" d="M174.064,226.009c.927-6.686-.137-13.438-4.4-18.847a23.9,23.9,0,0,0-16.448-9,29.119,29.119,0,0,1-4.911-.651,32.347,32.347,0,0,1-4.166-1.738,22.416,22.416,0,0,0-8.443-1.742c-6-.109-13.181,1.876-17.406,6.34a28.869,28.869,0,0,0-7.923,20.179c.04,3.086,4.84,3.094,4.8,0a23.881,23.881,0,0,1,5.022-15.066,15.735,15.735,0,0,1,6.6-4.97,22.092,22.092,0,0,1,7.475-1.666,19.227,19.227,0,0,1,6.824.869c1.144.373,2.155.967,3.256,1.448a19.281,19.281,0,0,0,4.92,1.439c2.753.408,5.407.38,8.074,1.3a18.644,18.644,0,0,1,6.664,4.181c4.584,4.345,6.289,10.453,5.431,16.649a2.482,2.482,0,0,0,1.676,2.952,2.417,2.417,0,0,0,2.952-1.676Z"></path><path class="c" d="M87.047,224.138a138.882,138.882,0,0,1,17.386-12.723q4.763-2.928,9.746-5.476a60.853,60.853,0,0,1,11.029-4.714c2.966-.845,1.7-5.478-1.276-4.629a66.1,66.1,0,0,0-11.778,5q-5.18,2.642-10.144,5.68a147.127,147.127,0,0,0-18.357,13.473,2.421,2.421,0,0,0,0,3.394,2.45,2.45,0,0,0,3.394,0Z"></path><path class="c" d="M146.176,198.575a16.123,16.123,0,0,0-5.755,3.353,2.4,2.4,0,0,0,1.7,4.1,2.612,2.612,0,0,0,1.7-.7q.389-.351.8-.671l-.486.375a13.374,13.374,0,0,1,2.914-1.7l-.574.241q.484-.2.98-.367a2.538,2.538,0,0,0,1.435-1.1,2.453,2.453,0,0,0,.242-1.849,2.4,2.4,0,0,0-2.953-1.676Z"></path><path class="c" d="M146.792,203.322a13.632,13.632,0,0,1,.908,1.751l-.242-.573a13.4,13.4,0,0,1,.929,3.364,2.39,2.39,0,0,0,1.1,1.434,2.4,2.4,0,0,0,3.284-.861l.241-.573a2.4,2.4,0,0,0,0-1.276,14.948,14.948,0,0,0-2.078-5.689,2.509,2.509,0,0,0-1.434-1.1,2.458,2.458,0,0,0-1.85.242,2.43,2.43,0,0,0-1.1,1.435,2.47,2.47,0,0,0,.242,1.849Z"></path><path class="c" d="M141.2,191.237a29.792,29.792,0,0,1,1.324,2.734l-.242-.573a29.406,29.406,0,0,1,1.635,5.242,2.417,2.417,0,0,0,2.953,1.676,2.457,2.457,0,0,0,1.676-2.952,31.425,31.425,0,0,0-3.2-8.55,2.423,2.423,0,0,0-3.284-.861,2.451,2.451,0,0,0-.861,3.284Z"></path><path class="c" d="M155.291,189.944q-3.294,4.044-6.463,8.189a2.4,2.4,0,0,0-.242,1.849,2.4,2.4,0,0,0,2.952,1.677,2.842,2.842,0,0,0,1.434-1.1q.414-.54.829-1.078l-.375.486q2.588-3.346,5.259-6.626a2.588,2.588,0,0,0,.7-1.7,2.4,2.4,0,0,0-4.1-1.7Z"></path><path class="c" d="M157.617,233.758a21.57,21.57,0,0,1,9.777-5.518,19.394,19.394,0,0,1,10.948.655,2.316,2.316,0,0,0,2.335-.617c.848-1.093,2.333-2.737,2.333-4.2l-.328,1.211a12.481,12.481,0,0,1,.815-1.163,3.1,3.1,0,0,1,.362-.256c.026.071-.825.172-.811.038a23.1,23.1,0,0,0,2.716,1.675q1.4.883,2.789,1.784.674.438,1.342.885.315.21.627.424c.252.172.678.654.176-.037l-.328-1.211q.135-.321.008.093-.085.348-.174.7-.144.575-.29,1.148c-.193.764-.385,1.528-.568,2.3a2.5,2.5,0,0,0,1.1,2.71,20.161,20.161,0,0,1,4.249,4.209l-.328-1.211c0,1.151.982,2.13,1.528,3.089a18.392,18.392,0,0,1,1.412,3.128,25.32,25.32,0,0,1,1.3,5.859,25.691,25.691,0,0,1-1.741,12.2c-3,7.215-9.837,11.886-17.264,13.71a25.1,25.1,0,0,1-13.817-.468c-2.94-.972-4.2,3.662-1.276,4.629,8.952,2.96,19.2,1.028,26.927-4.2a28.726,28.726,0,0,0,7.4-39.147l.328,1.212c0-1.47-1.6-2.928-2.549-3.932a27.952,27.952,0,0,0-3.75-3.221l1.1,2.711c.294-1.228.61-2.45.917-3.675s.514-2.433-.369-3.47a12.441,12.441,0,0,0-2.695-2.011c-.977-.646-1.963-1.278-2.951-1.906-1.67-1.06-3.616-2.748-5.692-2.667a4.886,4.886,0,0,0-3.081,1.525c-.8.792-1.893,2.184-1.893,3.356l.328-1.212a20.716,20.716,0,0,1-1.255,2l2.335-.618a24.094,24.094,0,0,0-13.5-.655,26.448,26.448,0,0,0-11.895,6.753c-2.271,2.1,1.13,5.492,3.394,3.394Z"></path><path class="c" d="M167.659,233.186a34.143,34.143,0,0,0-6.351,7.3,26.225,26.225,0,0,0-3.465,10.057,2.475,2.475,0,0,0,1.676,2.953,2.419,2.419,0,0,0,2.952-1.677,32.4,32.4,0,0,1,1.087-4.744,15.975,15.975,0,0,1,1.894-4.167q.587-.915,1.228-1.8l.266-.36c.16-.215-.18.216.095-.121.208-.255.416-.508.631-.755a35.706,35.706,0,0,1,3.381-3.3,2.4,2.4,0,0,0-3.394-3.394Z"></path><path class="c" d="M175.135,238.646a14.582,14.582,0,0,0-3.877,4.391,18.759,18.759,0,0,0-1.953,4.9,2.4,2.4,0,1,0,4.629,1.276,17.192,17.192,0,0,1,.871-2.635l-.242.573a15.261,15.261,0,0,1,1.53-2.774c.071-.1.144-.2.216-.3.267-.363-.346.421-.075.1.183-.217.364-.433.559-.64.166-.175.337-.345.515-.509.16-.148.931-.755.25-.238a2.63,2.63,0,0,0,1.1-1.434,2.452,2.452,0,0,0-.242-1.849,2.417,2.417,0,0,0-1.434-1.1,2.323,2.323,0,0,0-1.85.242Z"></path><path class="c" d="M77.227,251.114a20.112,20.112,0,0,0-9.682-4.835,23.861,23.861,0,0,0-25.122,12.587c-3.091,6.1-2.756,12.9.122,18.99a23.235,23.235,0,0,0,12.7,11.609,22.436,22.436,0,0,0,19.1-.912c2.708-1.489.289-5.636-2.422-4.145-7.967,4.382-19.308,1.074-24.045-6.731-2.737-4.508-3.8-9.806-1.98-14.868A18.877,18.877,0,0,1,56.5,252.124c5.89-2.33,12.43-1.788,17.337,2.384a2.464,2.464,0,0,0,3.394,0,2.421,2.421,0,0,0,0-3.394Z"></path><path class="c" d="M130.245,243.723a35.722,35.722,0,0,1,14.123,1.517,26.235,26.235,0,0,1,10.756,7.232,29.366,29.366,0,0,1,6.918,12.245,32.345,32.345,0,0,1,.39,14.358,34.4,34.4,0,0,1-7.227,15.513,2.467,2.467,0,0,0,0,3.394,2.419,2.419,0,0,0,3.394,0,39.424,39.424,0,0,0,8.54-32.493c-1.979-10.184-9.425-19.77-19-23.9a38.333,38.333,0,0,0-17.9-2.668,2.457,2.457,0,0,0-2.4,2.4,2.42,2.42,0,0,0,2.4,2.4Z"></path><path class="c" d="M121.672,251.155c3.1.87,7.4,1.918,8.424,5.468.545,1.886-1.041,3.641.052,5.509.923,1.578,3.132,2.118,4.6,3.073,6.308,4.11,9.551,11.507,11.032,18.625a99.786,99.786,0,0,1,1.561,15.011c.165,3.072,4.966,3.092,4.8,0-.452-8.427-1.026-17-4.429-24.831a31.855,31.855,0,0,0-5.7-8.854,26.13,26.13,0,0,0-4.078-3.575,20.749,20.749,0,0,0-2.2-1.374c-.574-.311-1.471-.533-1.82-.983l.617,1.059c-.072.377-.051.345.066-.1q.093-.258.165-.524a8.446,8.446,0,0,0,.234-1.351,7.972,7.972,0,0,0-.184-2.611,10.184,10.184,0,0,0-2.448-4.46c-2.426-2.669-6.059-3.772-9.419-4.714-2.979-.835-4.251,3.795-1.276,4.629Z"></path><path class="c" d="M117.2,241.809c-1.709-2.76-3.72-5.76-6.736-7.222a8.025,8.025,0,0,0-5.32-.755c-1.645.374-3.024,1.391-4.585,1.964-1.638.6-3.352.14-5-.182a15.513,15.513,0,0,0-5.98-.264,17.376,17.376,0,0,0-8.626,4.8c-5.22,5.056-8.445,12.377-10.264,19.305a53.933,53.933,0,0,0-.893,23.147c1.251,7,4.051,13.985,9.016,19.193,2.136,2.24,5.526-1.158,3.394-3.394a30.13,30.13,0,0,1-7.09-13.841,47.843,47.843,0,0,1-.617-20.17,44.178,44.178,0,0,1,7.46-18.129,17.051,17.051,0,0,1,6.3-5.483,8.466,8.466,0,0,1,3.61-.858,40.864,40.864,0,0,1,5.032.791,10.557,10.557,0,0,0,5.863-.668c1.252-.539,2.679-1.657,4.1-1.613,2.855.087,4.9,3.716,6.194,5.8,1.623,2.621,5.777.213,4.144-2.423Z"></path><path class="c" d="M95.12,235.507c3.775-5.573,9.782-9.478,16-11.841a43.493,43.493,0,0,1,19.738-2.858l-2.4-2.4.1,6.286a2.433,2.433,0,0,0,3.038,2.314,27.963,27.963,0,0,1,19.606,2.845,4.672,4.672,0,0,1,2.5,3.237c.1.431.163.87.232,1.307l.063.437q-.053-.389.006.081.1.908.171,1.818a80.491,80.491,0,0,1,.148,10.065c-.149,3.088,4.652,3.08,4.8,0a76.521,76.521,0,0,0-.26-11.329,19.382,19.382,0,0,0-.905-4.916,9.43,9.43,0,0,0-3.992-4.64c-6.851-4.308-15.862-5.2-23.644-3.534l3.038,2.315-.1-6.286a2.466,2.466,0,0,0-2.4-2.4,47.3,47.3,0,0,0-33.045,9.731,32.57,32.57,0,0,0-6.836,7.345c-1.737,2.565,2.42,4.969,4.144,2.423Z"></path><path class="c" d="M93.8,288.351c1.151-10.653,5.585-21.672,12.814-29.668,2.067-2.286-1.318-5.691-3.394-3.394C95.074,264.3,90.3,276.34,89,288.351a2.415,2.415,0,0,0,2.4,2.4,2.456,2.456,0,0,0,2.4-2.4Z"></path><path class="c" d="M99.657,294.085a44.386,44.386,0,0,0,23.772-8.195,2.47,2.47,0,0,0,.861-3.284,2.42,2.42,0,0,0-3.284-.861,39.826,39.826,0,0,1-21.349,7.54c-3.076.146-3.093,4.946,0,4.8Z"></path><path class="c" d="M208.01,282.3c0,.027-.007.055-.01.083l.085-.638c-.062.461-.147.92-.239,1.377a1.823,1.823,0,0,0-.043.957,1.777,1.777,0,0,0,.285.892,2.69,2.69,0,0,0,1.434,1.1l.638.086a2.4,2.4,0,0,0,1.211-.328l.486-.375a2.4,2.4,0,0,0,.617-1.059c.14-.695.254-1.394.336-2.1a2.464,2.464,0,0,0-2.4-2.4l-.638.085a2.4,2.4,0,0,0-1.059.618l-.375.485a2.389,2.389,0,0,0-.328,1.212Z"></path><path class="c" d="M18.564,282.193c-.035-.177-.07-.353-.1-.53a1.806,1.806,0,0,0-.429-.817,1.815,1.815,0,0,0-.674-.618,1.791,1.791,0,0,0-.892-.285,1.823,1.823,0,0,0-.957.043l-.573.242a2.416,2.416,0,0,0-.861.861l-.242.574a2.423,2.423,0,0,0,0,1.276c.029.177.065.353.1.53a1.807,1.807,0,0,0,.429.816,1.823,1.823,0,0,0,.674.618,1.794,1.794,0,0,0,.892.285,1.823,1.823,0,0,0,.957-.043l.573-.242a2.4,2.4,0,0,0,.861-.861l.242-.573a2.4,2.4,0,0,0,0-1.276Z"></path><path class="c" d="M55.212,327.425c14.081,5.933,29.4,8.526,44.589,9.373a255.794,255.794,0,0,0,28.976-.026,156.939,156.939,0,0,0,24.886-3.332,108.422,108.422,0,0,0,21.568-7.147,2.417,2.417,0,0,0,.861-3.284,2.457,2.457,0,0,0-3.283-.861c-12.763,5.827-27.173,8.606-41.243,9.641a255.839,255.839,0,0,1-28.444.364,157.878,157.878,0,0,1-24.87-2.8A112.794,112.794,0,0,1,56.488,322.8a2.414,2.414,0,0,0-2.952,1.677,2.462,2.462,0,0,0,1.676,2.952Z"></path><path class="c" d="M7.149,262.82A27.684,27.684,0,0,0,15.7,282.627c5.817,5.69,13.409,9.3,21.007,11.957a139.773,139.773,0,0,0,26.668,6.094c9.011,1.271,18.085,2.017,27.176,2.4,6.863.292,13.736.395,20.605.346q10.894-.079,21.775-.75c9.148-.565,18.277-1.455,27.346-2.783a178.862,178.862,0,0,0,26.845-5.8c7.6-2.346,15.3-5.373,21.758-10.11,5.453-4,10.149-9.357,11.61-16.13a24.44,24.44,0,0,0,.547-5.037c.014-3.089-4.786-3.093-4.8,0,0,.767-.051,1.527-.122,2.291-.01.114-.1.745-.008.105-.027.184-.055.367-.087.55q-.109.636-.26,1.263a20.117,20.117,0,0,1-.625,2.093c-.059.166-.475,1.188-.223.606q-.234.541-.5,1.069-.469.939-1.027,1.829-.292.47-.609.924c-.1.152-.213.3-.322.454-.066.09-.568.739-.189.259a29.367,29.367,0,0,1-3.3,3.513c-.547.5-1.114.971-1.687,1.437-.052.042-.59.46-.162.131q-.246.189-.5.374-.591.438-1.2.855a50.918,50.918,0,0,1-4.678,2.849,69.172,69.172,0,0,1-10.4,4.555c-16.727,5.951-34.411,8.182-51.9,9.52a407.81,407.81,0,0,1-41.705,1c-17.412-.452-34.659-1.757-51.446-6.288-7.893-2.131-15.161-4.738-21.9-9.421-5.283-3.672-9.58-8.8-10.972-15.215-.089-.413-.162-.828-.235-1.244-.013-.072-.11-.774-.037-.208-.028-.214-.051-.429-.073-.644-.089-.882-.128-1.767-.132-2.653-.012-3.088-4.812-3.095-4.8,0Z"></path><path class="c" d="M73.843,316.457a252.178,252.178,0,0,0,37.328,2.451,293.649,293.649,0,0,0,31.126-1.623,206.506,206.506,0,0,0,21.732-3.4c3.017-.654,1.74-5.282-1.276-4.629a224.493,224.493,0,0,1-36.016,4.448c-9.765.5-19.561.548-29.331.138a210.566,210.566,0,0,1-22.287-2.011,2.478,2.478,0,0,0-2.952,1.677,2.418,2.418,0,0,0,1.676,2.952Z"></path><path class="c" d="M136.313,310.5c-.013.644-.048,1.286-.114,1.926-.017.16-.035.32-.055.48q.048-.36-.016.078c-.056.317-.107.634-.171.95a22.932,22.932,0,0,1-1.039,3.588c-.03.079-.321.792-.167.433-.127.3-.263.587-.4.877q-.422.867-.916,1.7t-1.056,1.615c-.094.13-.189.26-.286.388l-.068.086c-.2.249-.41.5-.622.739a2.4,2.4,0,0,0,3.395,3.394,25.573,25.573,0,0,0,6.318-16.252,2.4,2.4,0,0,0-4.8,0Z"></path><path class="c" d="M149.649,307.96c.009,1.215-.016,2.429-.108,3.64q-.034.456-.082.91c-.009.089-.128,1-.054.493-.081.561-.179,1.12-.3,1.674s-.256,1.1-.418,1.634c-.086.286-.178.569-.278.85-.028.08-.352.914-.164.464a14.418,14.418,0,0,1-1.786,3.081,2.406,2.406,0,0,0,.861,3.283,2.471,2.471,0,0,0,3.283-.861c3.23-4.3,3.883-9.948,3.844-15.168a2.4,2.4,0,0,0-4.8,0Z"></path><path class="c" d="M200.75,328.983a19.029,19.029,0,0,1-9.567,1.178c-2.3-.407-3.757-.25-6.015-.983a20.377,20.377,0,0,1-9.228-6.358,15.008,15.008,0,0,1-1.317-1.906c-.238-.4-.456-.818-.659-1.241.018.038-.281-.649-.156-.341.075.185-.168-.469-.2-.555a11.6,11.6,0,0,1-.348-1.268c-.037-.175-.069-.351-.1-.528-.067-.407.029.571-.006-.1-.021-.42-.033-.832-.019-1.253,0,0,.062-.675.016-.3-.039.31.085-.425.1-.5.047-.2.111-.4.165-.6.018-.063.264-.711.056-.216a7.518,7.518,0,0,1,.5-.959c.115-.191.238-.378.369-.559-.277.383.182-.217.2-.238a12.034,12.034,0,0,1,1.05-1.032,9.5,9.5,0,0,1,1.033-.74c.417-.263.848-.5,1.288-.728,1.112-.566,2.417-.817,3.468-1.477,1.94-1.218,2.949-3.341,4.11-5.223.122-.2.251-.394.376-.591.049-.077.438-.6.158-.247.136-.173.29-.327.434-.492q.148-.153.309-.294-.321.231.015,0a2.028,2.028,0,0,1,.361-.2c-.6.285.667-.1.031-.02a2.529,2.529,0,0,1,1.472.221,2.419,2.419,0,0,0,2.711-1.1,3.214,3.214,0,0,1,2.641-2.029,7.41,7.41,0,0,1,3.788.641c1.195.527,2,1.544,3.232,2.159,2.472,1.234,4.928-.67,5.233-3.162a27.053,27.053,0,0,1,2.221-8.386,16.022,16.022,0,0,1,.931-1.618c.14-.211.285-.419.436-.622.221-.3-.225.27.01-.006.109-.128.216-.256.328-.381a10.135,10.135,0,0,1,1.093-1.04c-.357.293-.043.032.151-.09.213-.133.436-.25.649-.382.09-.055.2-.095.292-.142-.057.028-.522.185-.134.061.2-.063.392-.126.591-.184.1-.028.7-.136.273-.072-.395.059.294-.012.421-.012.2,0,.392.019.589.032-.45-.03-.287-.057.018.03.192.055.384.119.576.173.09.025.4.171.068.021-.362-.163.064.035.134.081.176.115.367.221.548.328.093.054.182.126.269.188-.007,0-.355-.294-.155-.116a13.3,13.3,0,0,1,1.068,1.069c.243.27-.146-.257.208.279.13.2.262.393.385.6a12.893,12.893,0,0,1,.846,1.65c-.166-.393.165.461.19.533.1.275.187.554.271.834a22.316,22.316,0,0,1,.539,2.225,26.745,26.745,0,0,1,.413,4.665c.025,1.99-.232,3.947-.314,5.927a25.2,25.2,0,0,1-.715,5.1,28.844,28.844,0,0,1-17.708,20.307,2.464,2.464,0,0,0-1.676,2.952,2.419,2.419,0,0,0,2.952,1.676,33.624,33.624,0,0,0,19.946-20.089c1.536-4.1,1.928-8.286,2.221-12.612A32.668,32.668,0,0,0,223.2,289.6c-1.328-4.532-4.8-9.795-10.2-9.318-5.827.516-9.043,6.428-10.442,11.476a31.272,31.272,0,0,0-.685,3.1c-.112.664-.2,1.332-.29,2a5.7,5.7,0,0,0-.087.708q-.129.777.131-.105.164-1.092,1.556-.63c.015-.056.278.32.094.058a3.557,3.557,0,0,0-.638-.539,14.411,14.411,0,0,0-1.307-.945,13.618,13.618,0,0,0-2.956-1.358c-4.172-1.371-9.073-.317-11.159,3.848l2.711-1.1a6.533,6.533,0,0,0-7.008,1.691,15.725,15.725,0,0,0-1.874,2.653c-.263.444-.517.894-.787,1.334-.122.2-.249.4-.377.594-.062.1-.129.191-.195.285-.224.317.206-.238-.034.055a6.394,6.394,0,0,1-.441.49c-.079.079-.493.407-.323.3.141-.09-.166.058-.227.08-.433.155-.861.316-1.285.49a19.31,19.31,0,0,0-3.638,1.88,12.373,12.373,0,0,0-4.489,5.138c-3.858,8.84,4.808,17.884,12.332,21.13a22.969,22.969,0,0,0,7.931,1.872,40.519,40.519,0,0,0,5.588.314,27.387,27.387,0,0,0,6.923-1.49,2.459,2.459,0,0,0,1.676-2.952A2.421,2.421,0,0,0,200.75,328.983Z"></path><path class="c" d="M28.04,330.413a29.447,29.447,0,0,1-17.5-18.32,41.4,41.4,0,0,1-1.78-11.325,28.273,28.273,0,0,1,.94-9.841,10.066,10.066,0,0,1,3.072-5.1c-.389.341-.011,0,.18-.115s.368-.211.548-.321c.488-.3-.141.015.13-.071.215-.068.428-.134.645-.2.306-.087.466-.064.016-.031.2-.014.391-.034.588-.035s.393.017.59.029c-.748-.045.029.019.248.077.2.053.392.126.588.19.343.11-.382-.252.156.086.188.117.389.214.576.335.168.108.622.462.221.135a10.391,10.391,0,0,1,1.091,1.028c.182.2.356.4.523.613-.29-.365.283.415.375.556a21.053,21.053,0,0,1,2.916,8.154c.38,2.142.294,4.636,2.786,5.473a3.687,3.687,0,0,0,3.557-.646,12.973,12.973,0,0,1,1.63-1.228,7.946,7.946,0,0,1,4.521-1.2,3.485,3.485,0,0,1,3.128,2.151,2.417,2.417,0,0,0,2.711,1.1,2.854,2.854,0,0,1,1.265-.245.991.991,0,0,1,.477.118,3.533,3.533,0,0,1,1.265,1.329c1.1,1.663,1.918,3.549,3.379,4.951,1.7,1.633,4.207,1.991,6.175,3.263a9.569,9.569,0,0,1,2.053,1.78c.5.554-.225-.352.2.238q.131.181.251.371.178.276.335.567c.048.088.394.89.2.4a9.623,9.623,0,0,1,.359,1.2s.121.666.065.293.024.3.024.3c.023.419.015.831,0,1.251,0,.079-.089.771-.006.2-.042.284-.1.566-.164.845a11.417,11.417,0,0,1-2.067,4.411,21.268,21.268,0,0,1-8.861,6.955,20.151,20.151,0,0,1-3.267,1,14.073,14.073,0,0,1-2.96.319,44.945,44.945,0,0,1-5.148.329,23.081,23.081,0,0,1-6.03-1.374,2.4,2.4,0,1,0-1.276,4.629,24.362,24.362,0,0,0,11.869,1.312c2.4-.378,4.752-.419,7.1-1.223a25.6,25.6,0,0,0,11.689-8.153c2.775-3.5,4.689-7.952,3.642-12.477a11.279,11.279,0,0,0-3.411-5.656c-2.1-1.912-4.715-2.9-7.1-3.958a1.557,1.557,0,0,1-.266-.177c.2.146.124.1-.007-.041-.179-.188-.359-.369-.525-.569-.245-.3.187.259-.041-.059-.091-.126-.177-.256-.263-.385-.153-.232-.3-.468-.443-.7a35.568,35.568,0,0,0-1.891-3.014,6.806,6.806,0,0,0-7.894-2.655l2.71,1.1c-1.936-3.87-6.192-5.081-10.209-4.251a12.981,12.981,0,0,0-5.083,2.31c-.193.145-1.011.645-1.129.92-.035.081.216-.083.529-.116l.424-.054a.891.891,0,0,1,.72.843l.08.345q-.037-.359-.081-.715c-.04-.33-.085-.66-.13-.99-.077-.565-.16-1.129-.26-1.692-.98-5.538-3.6-12.47-9.5-14.363-5.214-1.672-9.551,2.45-11.439,6.917A27.825,27.825,0,0,0,3.9,297.909c-.038,2.21.261,4.385.328,6.585a29.773,29.773,0,0,0,.939,6.386,34.72,34.72,0,0,0,21.6,24.162,2.422,2.422,0,0,0,2.952-1.676A2.452,2.452,0,0,0,28.04,330.413Z"></path></svg>