<svg xmlns="http://www.w3.org/2000/svg" width="214.8" height="314.396" viewBox="0 0 214.8 314.396"><defs><style>.a{fill:#fff;}.b{fill:#fcdc4a;}.c{fill:#211715;}</style></defs><path class="a" d="M66.45,312l-64.05.006c0-22.3.155-299.872.139-309.608,20.948,0,109.283.063,132.635.063v9.875c17.852,0,57.075.063,77.15.063,0,11.167.076,281.1.076,299.595C212.4,312,146.236,312,66.45,312Z"></path><path class="a" d="M34.23,103.921H101.6c-.1,7.326,0,14.806,0,20.428H34.23Z"></path><path class="a" d="M34.23,42.13H101.6c-.1,7.326,0,14.806,0,20.428H34.23Z"></path><path class="a" d="M34.23,165.711H101.6c-.1,7.327,0,14.806,0,20.428H34.23Z"></path><path class="a" d="M34.23,226.89H101.6c-.1,7.327,0,14.806,0,20.428H34.23Z"></path><path class="b" d="M202.288,311.709V273.581H144.977c.113,11.28,0,29.474,0,38.128" style="fill: rgb(109, 109, 109);"></path><path class="b" d="M163.332,126.543h20.6c-.029,10.376,0,20.969,0,28.931h-20.6Z" style="fill: rgb(109, 109, 109);"></path><path class="b" d="M163.332,188.332h20.6c-.029,10.376,0,20.97,0,28.931h-20.6Z" style="fill: rgb(109, 109, 109);"></path><path class="b" d="M163.332,65.974h20.6c-.029,10.376,0,20.97,0,28.931h-20.6Z" style="fill: rgb(109, 109, 109);"></path><path class="b" d="M90.344,103.921c-.007-6.834,0-14.041.026-21.181h-45.1v21.181Z" style="fill: rgb(109, 109, 109);"></path><path class="b" d="M90.344,42.13c-.007-6.834,0-14.041.026-21.18h-45.1V42.13Z" style="fill: rgb(109, 109, 109);"></path><path class="b" d="M90.344,165.711c-.007-6.834,0-14.041.026-21.18h-45.1v21.18Z" style="fill: rgb(109, 109, 109);"></path><path class="b" d="M90.344,226.89c-.007-6.834,0-14.04.026-21.18h-45.1v21.18Z" style="fill: rgb(109, 109, 109);"></path><path class="c" d="M135.174,263.025H2.554c-2.573,0-2.578,4,0,4h132.62c2.574,0,2.578-4,0-4Z"></path><path class="c" d="M204.688,312V273.581c0-3.088-4.8-3.094-4.8,0V312c0,3.088,4.8,3.093,4.8,0Z"></path><path class="c" d="M185.584,312V273.581c0-3.088-4.8-3.094-4.8,0V312c0,3.088,4.8,3.093,4.8,0Z"></path><path class="c" d="M166.481,312V273.581c0-3.088-4.8-3.094-4.8,0V312c0,3.088,4.8,3.093,4.8,0Z"></path><path class="c" d="M147.377,312V273.581c0-3.088-4.8-3.094-4.8,0V312c0,3.088,4.8,3.093,4.8,0Z"></path><path class="c" d="M135.174,275.981h77.072c3.088,0,3.093-4.8,0-4.8H135.174c-3.088,0-3.093,4.8,0,4.8Z"></path><path class="c" d="M212.4,309.6H2.557c-3.089,0-3.094,4.8,0,4.8H212.4c3.089,0,3.094-4.8,0-4.8Z"></path><path class="c" d="M.154,2.431q0,5.079,0,10.156,0,11.244-.011,22.488Q.132,51.031.123,66.987L.1,105.416Q.092,126.434.08,147.452.068,168.821.058,190.188L.037,230.716.019,266.128Q.013,279.822.006,293.514,0,301.742,0,309.968V312c0,3.088,4.8,3.093,4.8,0q0-6.671,0-13.342.006-12.492.011-24.984.009-16.86.017-33.72.011-19.773.02-39.547.012-21.232.022-42.465T4.9,115.462l.021-39.578.018-33.772.012-25.059q0-6.719.006-13.436V2.431c0-3.088-4.8-3.093-4.8,0Z"></path><path class="c" d="M132.774,2.4V312c0,3.088,4.8,3.093,4.8,0V2.4c0-3.089-4.8-3.094-4.8,0Z"></path><path class="c" d="M209.923,12.338q0,5.007,0,10.014,0,11.031,0,22.064l.009,31.113q0,18.768.01,37.536.006,20.494.011,40.988.006,20.708.011,41.414.006,19.647.011,39.293l.009,34.145L210,295.032l0,15.238V312c0,3.088,4.8,3.093,4.8,0q0-6.09,0-12.178l-.006-23.76q0-16.167-.008-32.336,0-19.148-.01-38.3-.006-20.638-.011-41.278-.006-20.619-.011-41.238-.006-19.324-.011-38.649l-.009-33.031-.006-24.544,0-13.187V12.338c0-3.088-4.8-3.093-4.8,0Z"></path><path class="c" d="M135.174,14.738q30.8,0,61.6.055,7.812.008,15.623.008c3.089,0,3.094-4.8,0-4.8q-31.362,0-62.725-.055-7.251-.006-14.5-.008c-3.088,0-3.093,4.8,0,4.8Z"></path><path class="c" d="M2.477,4.8q9.456,0,18.912.006l28.433.015,32.211.018,29.755.016q10.778.006,21.554.008h1.832c3.089,0,3.094-4.8,0-4.8q-10.053,0-20.106-.006L86.018.042,53.771.023,24.559.008Q14.343,0,4.127,0H2.477c-3.088,0-3.093,4.8,0,4.8Z"></path><path class="c" d="M70.21,103.924q-.015-10.59.02-21.18c.013-3.089-4.787-3.093-4.8,0q-.044,10.59-.02,21.18c0,3.088,4.8,3.094,4.8,0Z"></path><path class="c" d="M70.21,42.134q-.015-10.59.02-21.18c.013-3.089-4.787-3.093-4.8,0q-.044,10.59-.02,21.18c0,3.088,4.8,3.094,4.8,0Z"></path><path class="c" d="M70.21,165.714q-.015-10.59.02-21.18c.013-3.089-4.787-3.093-4.8,0q-.044,10.59-.02,21.18c0,3.088,4.8,3.094,4.8,0Z"></path><path class="c" d="M163.332,128.943h20.6l-2.4-2.4c-.026,9.643,0,19.287,0,28.931l2.4-2.4h-20.6l2.4,2.4V126.543c0-3.089-4.8-3.094-4.8,0v28.931a2.435,2.435,0,0,0,2.4,2.4h20.6a2.435,2.435,0,0,0,2.4-2.4c0-9.644-.026-19.288,0-28.931a2.433,2.433,0,0,0-2.4-2.4h-20.6C160.243,124.143,160.238,128.943,163.332,128.943Z"></path><path class="c" d="M163.332,190.732h20.6l-2.4-2.4c-.026,9.644,0,19.288,0,28.931l2.4-2.4h-20.6l2.4,2.4V188.332c0-3.088-4.8-3.093-4.8,0v28.931a2.434,2.434,0,0,0,2.4,2.4h20.6a2.434,2.434,0,0,0,2.4-2.4c0-9.643-.026-19.287,0-28.931a2.434,2.434,0,0,0-2.4-2.4h-20.6C160.243,185.932,160.238,190.732,163.332,190.732Z"></path><path class="c" d="M163.332,68.374h20.6l-2.4-2.4c-.026,9.644,0,19.288,0,28.931l2.4-2.4h-20.6l2.4,2.4V65.974c0-3.088-4.8-3.094-4.8,0V94.905a2.434,2.434,0,0,0,2.4,2.4h20.6a2.434,2.434,0,0,0,2.4-2.4c0-9.643-.026-19.287,0-28.931a2.434,2.434,0,0,0-2.4-2.4h-20.6C160.243,63.574,160.238,68.374,163.332,68.374Z"></path><path class="c" d="M45.27,126.744h45.1c3.089,0,3.094-4.8,0-4.8H45.27c-3.089,0-3.094,4.8,0,4.8Z"></path><path class="c" d="M47.67,103.924V82.744l-2.4,2.4h45.1l-2.4-2.4q-.043,10.59-.02,21.18c0,3.088,4.8,3.094,4.8,0q-.015-10.59.02-21.18a2.435,2.435,0,0,0-2.4-2.4H45.27a2.435,2.435,0,0,0-2.4,2.4v21.18c0,3.089,4.8,3.094,4.8,0Z"></path><path class="c" d="M47.67,42.134V20.954l-2.4,2.4h45.1l-2.4-2.4q-.043,10.59-.02,21.18c0,3.088,4.8,3.094,4.8,0q-.015-10.59.02-21.18a2.435,2.435,0,0,0-2.4-2.4H45.27a2.435,2.435,0,0,0-2.4,2.4v21.18c0,3.089,4.8,3.094,4.8,0Z"></path><path class="c" d="M45.27,64.954h45.1c3.089,0,3.094-4.8,0-4.8H45.27c-3.089,0-3.094,4.8,0,4.8Z"></path><path class="c" d="M47.67,165.714v-21.18l-2.4,2.4h45.1l-2.4-2.4q-.043,10.59-.02,21.18c0,3.088,4.8,3.094,4.8,0q-.015-10.59.02-21.18a2.435,2.435,0,0,0-2.4-2.4H45.27a2.435,2.435,0,0,0-2.4,2.4v21.18c0,3.089,4.8,3.094,4.8,0Z"></path><path class="c" d="M47.67,226.894v-21.18l-2.4,2.4h45.1l-2.4-2.4q-.043,10.59-.02,21.18c0,3.088,4.8,3.094,4.8,0q-.015-10.59.02-21.18a2.435,2.435,0,0,0-2.4-2.4H45.27a2.435,2.435,0,0,0-2.4,2.4v21.18c0,3.089,4.8,3.094,4.8,0Z"></path><path class="c" d="M45.27,249.714h45.1c3.089,0,3.094-4.8,0-4.8H45.27c-3.089,0-3.094,4.8,0,4.8Z"></path><path class="c" d="M70.21,226.894q-.015-10.59.02-21.18c.013-3.089-4.787-3.093-4.8,0q-.044,10.59-.02,21.18c0,3.088,4.8,3.094,4.8,0Z"></path><path class="c" d="M135.02,266.377h77.226c3.088,0,3.093-4.8,0-4.8H135.02c-3.089,0-3.094,4.8,0,4.8Z"></path><path class="c" d="M34.23,106.321H101.6l-2.4-2.4c-.087,6.809,0,13.618,0,20.428l2.4-2.4H34.23l2.4,2.4V103.921c0-3.089-4.8-3.094-4.8,0v20.428a2.435,2.435,0,0,0,2.4,2.4H101.6a2.435,2.435,0,0,0,2.4-2.4c0-6.81-.087-13.619,0-20.428a2.433,2.433,0,0,0-2.4-2.4H34.23C31.141,101.521,31.136,106.321,34.23,106.321Z"></path><path class="c" d="M34.23,44.53H101.6l-2.4-2.4c-.087,6.809,0,13.618,0,20.428l2.4-2.4H34.23l2.4,2.4V42.13c0-3.089-4.8-3.094-4.8,0V62.558a2.435,2.435,0,0,0,2.4,2.4H101.6a2.435,2.435,0,0,0,2.4-2.4c0-6.81-.087-13.619,0-20.428a2.433,2.433,0,0,0-2.4-2.4H34.23C31.141,39.73,31.136,44.53,34.23,44.53Z"></path><path class="c" d="M34.23,168.111H101.6l-2.4-2.4c-.087,6.81,0,13.619,0,20.428l2.4-2.4H34.23l2.4,2.4V165.711c0-3.088-4.8-3.094-4.8,0v20.428a2.435,2.435,0,0,0,2.4,2.4H101.6a2.435,2.435,0,0,0,2.4-2.4c0-6.809-.087-13.618,0-20.428a2.433,2.433,0,0,0-2.4-2.4H34.23C31.141,163.311,31.136,168.111,34.23,168.111Z"></path><path class="c" d="M34.23,229.29H101.6l-2.4-2.4c-.087,6.81,0,13.619,0,20.428l2.4-2.4H34.23l2.4,2.4V226.89c0-3.088-4.8-3.093-4.8,0v20.428a2.435,2.435,0,0,0,2.4,2.4H101.6a2.435,2.435,0,0,0,2.4-2.4c0-6.809-.087-13.618,0-20.428a2.433,2.433,0,0,0-2.4-2.4H34.23C31.141,224.49,31.136,229.29,34.23,229.29Z"></path></svg>