<svg id="b" xmlns="http://www.w3.org/2000/svg" width="453.722" height="397.346" viewBox="0 0 453.722 397.346"><defs><style>.ar{fill:#211715;}.ar,.as,.at{stroke-width:0px;}.as{fill:#fff;}.at{fill:#fcdc4a;}</style></defs><g id="c"><g id="d"><path class="as" d="M176.266,347.933c2.17,1.247,4.294,2.465,6.345,3.633.341.195.756.192,1.097-.003,1.323-.758,2.907-1.664,4.192-2.402.172-.099.275-.278.275-.477,0-2.092-.004-9.46-.005-14.859-3.703,4.397-7.791,9.24-11.904,14.108Z"></path><path class="as" d="M314.638,21.883c-5.927-3.422-14.709-8.492-20.44-11.799-2.865-1.653-6.388-1.655-9.252-.002-5.406,3.121-14.383,8.304-20.434,11.798-2.817,1.626-2.816,5.683,0,7.309,6.05,3.493,15.026,8.675,20.433,11.797,2.866,1.655,6.387,1.655,9.253,0,5.409-3.123,14.39-8.308,20.44-11.8,2.814-1.624,2.813-5.678,0-7.302Z"></path><path class="as" d="M367.454,107.073c-4.918-2.88-10.414-6.099-15.91-9.316,0-.732-.001-13.967,0-14.449,3.261-1.909,6.776-3.968,10.378-6.078,3.438-2.014,7.7-2.014,11.138,0,3.603,2.11,7.119,4.169,10.38,6.078-.001.497,0,13.709,0,14.448-5.426,3.177-10.851,6.354-15.721,9.206-.076.045-.152.089-.228.134l-.038-.022Z"></path><g id="e"><path class="as" d="M35.878,218.542L2.775,199.43c-.554-.32-.895-.911-.895-1.551v-46.834c0-.64.341-1.231.895-1.551l30.765-17.762v-16.9c0-.64.341-1.231.895-1.551l23.536-13.588c.554-.32,1.237-.32,1.791,0,0,0,6.946,4.01,14.638,8.449,5.684-3.28,11.375-6.567,15.043-8.685.673-.388,1.49-.386,2.163.002,5.349,3.088,28.882,16.675,33.775,19.5.556.321.893.919.893,1.561,0,16.362,0,30.27,0,46.811,0,.642-.343,1.243-.899,1.564-28.95,16.714-57.9,33.428-86.85,50.143-.554.32-1.237.32-1.791,0l-.856-.494Z"></path></g><path class="as" d="M211.769,284.69c0,11.187.064,30.028.064,37.192,0,.753-.484,1.499-1.39,2.057-1.982,1.23-4.678,1.277-6.691.034-.96-.605-1.452-1.338-1.452-2.064v-40.661"></path><path class="as" d="M202.764,279.21l4.798-2.773s14.046-7.253,19.007-10.971c.78-.585,1.277-1.707,1.277-3.341,0-2.918-.993-5.831-3.753-7.423-1.356-.784-3.012-1.112-3.865-.7-6.62,3.194-24.534,13.73-24.534,13.73"></path><g id="f"><path class="as" d="M204.935,276.364c1.874.16,5.039.748,6.737,2.051,5.303,4.069,16.061,20.042,22.358,28.88,1.182,1.66,2.376,3.362,3.236,5.212.159.342.311.71.312,1.02,0,.241-.075.387-.201.46,0,0-1.072.539-1.427.716-.382.191-1.151-.113-1.752-.601-11.712-9.52-21.71-21.201-32.336-33.656"></path></g><g id="g"><path class="as" d="M195.999,267.871c-1.261-1.979-4.343-6.643-4.748-8.558-1.725-8.167.046-21.419.8-29.882.142-1.589,1.059-4.718,1.195-4.796,0,0,1.5-.856,1.563-.862.71-.066,1.419,1.447,1.679,2.497,3.787,15.278,4.354,28.557,4.928,42.675"></path></g><path class="as" d="M193.746,271.458c-7.161.983-19.186,5.716-22.418,7.548-2.604,1.476-3.79,2.197-4.606,2.827-.533.411-1.019,1.38-.307,2.267.235.289.524.44.79.561,1.447.651,2.803.747,4.123.82,7.053.374,18.362-.158,24.552-1.808,1.49-.397,1.798-2.75,1.718-4.979"></path><g id="h"><path class="as" d="M196.743,267.417l-1.389.802c-.855.494-1.354,1.573-1.354,3.052,0,3.243,1.955,6.605,4.684,8.18,1.397.806,2.555.927,3.37.456l1.395-.805c.839-.484,1.314-1.594,1.314-3.228,0-2.918-1.924-6.486-4.684-8.079-1.356-.783-2.508-.855-3.335-.378Z"></path></g><path class="as" d="M65.564,261.62c0-.376,0-17.956,0-44.231,10.549-6.091,26.345-15.21,36.895-21.301,10.549,6.091,26.345,15.21,36.894,21.302v44.224c-9.957,5.75-23.802,13.747-36.896,21.309-10.363-5.983-24.604-14.207-36.894-21.302Z"></path><path class="as" d="M380.246,136.177c-3.551-2.051-6.325-3.653-7.719-4.458-.586-.338-1.305-.336-1.891.002-11.624,6.713-23.245,13.425-34.869,20.132-.582.336-.941.954-.941,1.627,0,7.399,0,49.585,0,49.585,0,.677.358,1.3.944,1.638,32.435,18.726,71.836,41.474,78.433,45.282.58.335,1.294.334,1.874-.001,11.621-6.708,23.238-13.419,34.855-20.127.586-.338.947-.963.947-1.64v-49.593c0-.677-.359-1.3-.945-1.639-3.144-1.815-13.653-7.882-24.159-13.945v-17.856c0-.685-.367-1.32-.961-1.662-10.976-6.334-21.224-12.254-28.206-16.284-.584-.337-1.302-.336-1.887.001-5.159,2.979-10.318,5.957-15.476,8.935"></path><g id="i"><path class="as" d="M415.163,250.541v-51.705l-25.104-14.494c0-9.48,0-18.961,0-18.961l-30.126-17.393v18.961s-25.107-14.495-25.107-14.495v50.613c0,.677.358,1.3.944,1.638,35.519,20.507,79.393,45.836,79.393,45.836Z"></path></g><g id="j"><path class="as" d="M387.348,212.076l-23.656-13.658c-.554-.32-1.234-.322-1.788-.002-4.248,2.453-13.153,7.594-15.243,8.801-.277.16-.446.454-.446.774v3.353c0,.32.171.616.448.776,10.519,6.073,20.935,12.087,23.987,13.849.554.32,1.233.318,1.787-.002,3.007-1.736,12.687-7.325,14.913-8.61.277-.16.445-.454.445-.774v-3.731c0-.32-.171-.616-.448-.775Z"></path></g><path class="as" d="M159.111,22.463c11.799-6.82,24.995-14.428,38.191-22.048,13.178,7.61,26.357,15.208,38.144,22.021-.002,63.814-.002,91.767-.002,91.777-12.979,7.518-37.964,21.937-38.142,22.038-11.799-6.808-24.995-14.428-38.191-22.048V22.463Z"></path><path class="as" d="M235.889,382.167c1.921,1.103,3.809,2.185,5.636,3.226.341.195.756.192,1.097-.003,1.323-.758,2.907-1.664,4.192-2.402.172-.099.275-.278.275-.477,0-1.935-.004-8.382-.005-13.611-3.507,4.163-7.334,8.698-11.195,13.267Z"></path><g id="k"><path class="as" d="M345.864,69.303v-.466c0-1.006.724-2.005,2.152-2.83,2.979-1.72,6.976-1.658,9.909.035,1.351.78,2.069,1.799,2.069,2.833v.476c0,.999-.674,2.012-2.1,2.836-2.911,1.681-7.179,1.541-9.817.017-1.482-.856-2.213-1.877-2.213-2.901Z"></path></g><g id="l"><path class="as" d="M388.931,69.308v-.474c0-.987-.717-1.975-2.182-2.821-2.862-1.652-6.941-1.665-9.887.035-1.341.774-2.062,1.791-2.062,2.825v.475c0,.996.667,2.007,2.092,2.83,2.895,1.671,7.145,1.548,9.795.018,1.484-.857,2.243-1.872,2.243-2.888Z"></path></g><g id="m"><path class="as" d="M388.869,50.497v-.466c0-1.034-.719-2.053-2.069-2.833-2.933-1.694-6.93-1.755-9.909-.035-1.428.825-2.152,1.824-2.152,2.83v.476c0,1.014.731,2.035,2.213,2.891,2.639,1.523,6.906,1.663,9.817-.017,1.426-.823,2.1-1.836,2.1-2.845Z"></path></g><g id="n"><path class="as" d="M345.927,50.503v-.474c0-1.034.721-2.051,2.062-2.825,2.946-1.701,7.025-1.688,9.887-.035,1.465.846,2.182,1.834,2.182,2.821v.475c0,1.016-.759,2.03-2.243,2.887-2.651,1.53-6.901,1.654-9.795-.018-1.425-.823-2.092-1.834-2.092-2.831Z"></path></g><path class="as" d="M212.022,192.852l-32.147,18.562-4.393,2.534c-2.575,1.485-5.737,1.507-8.329.053-4.468-2.506-10.484-5.982-13.698-7.978-1.29-.801-2.118-2.173-2.199-3.69-.224-4.219-.052-12.247.292-15.712.61-6.139,3.022-10.434,7.483-13.01,3.323-1.919,22.361-12.91,32.51-18.77,3.328-1.922,7.366-1.811,10.755,0,3.942,2.108,10.308,5.701,15.106,8.738,1.804,1.142,3.079,2.719,3.355,4.856.362,3.229.624,13.452.33,17.485-.081,1.11-.711,2.105-1.675,2.661l-7.391,4.268Z"></path><path class="as" d="M320.138,297.743c0-3.35-.025-47.588-.025-51.472,0-1.799,2.526-3.307,5.642-3.307,3.117,0,5.642,1.579,5.642,3.378,0,3.897.026,48.36.026,51.455,0,1.799-2.501,3.307-5.618,3.307-3.117,0-5.668-1.508-5.668-3.307,0-.017,0-.035,0-.053Z"></path><path class="as" d="M339.777,308.913c0-3.35-.025-47.588-.025-51.472,0-1.799,2.526-3.307,5.642-3.307s5.642,1.579,5.642,3.378c0,3.897.026,48.36.026,51.455,0,1.799-2.501,3.307-5.618,3.307-3.117,0-5.668-1.508-5.668-3.307,0-.017,0-.035,0-.053Z"></path><path class="as" d="M308.545,351.887c-7.287,4.207-14.569,8.412-21.826,12.601-13.252-7.651-26.605-15.36-39.888-23.03v-38.835c8.239-9.493,16.712-18.783,25.403-27.864,2.239,1.293,4.481,2.588,6.724,3.883,5.591-6.288,11.289-12.469,17.079-18.581,13.948,8.054,27.987,16.165,41.924,24.208-.002.176-.002.302-.002.302v50.331c-9.78,5.649-19.602,11.321-29.415,16.986Z"></path><path class="as" d="M289.477,63.066c-12.376,7.147-24.751,14.282-35.974,20.767-1.347.778-2.17,2.216-2.17,3.772.002,39.101.002,52.688.002,57.406,0,1.551.82,2.98,2.162,3.757,10.322,5.975,25.996,15.024,32.725,18.908,2.017,1.164,4.492,1.164,6.509,0,6.729-3.884,22.403-12.933,32.725-18.908,1.342-.777,2.162-2.206,2.162-3.757,0-4.718,0-18.305.002-57.406,0-1.555-.824-2.993-2.17-3.772-11.223-6.485-23.599-13.621-35.974-20.767"></path><path class="as" d="M262.291,38.632c.001,27.421.002,40.113.002,44.145,0,1.552.826,2.981,2.169,3.759,6.424,3.718,15.393,8.897,20.661,11.938,2.69,1.553,5.996,1.553,8.686,0,5.267-3.041,14.237-8.22,20.661-11.938,1.343-.777,2.169-2.207,2.169-3.759,0-4.032,0-16.724.002-44.145"></path><path class="as" d="M310.166,31.766c1.391.815,2.728,1.587,3.978,2.304,3.467,2.011,3.467,7.011,0,9.011-6,3.467-14.142,8.163-19.37,11.185-3.228,1.859-7.185,1.859-10.402,0-5.228-3.022-13.37-7.718-19.37-11.185-3.478-2-3.467-7.011,0-9.011l3.978-2.304"></path><g id="o"><path class="as" d="M64.664,258.921c3.413-1.4,7.218-.969,10.715.323,1.851.684,5.345,2.3,7.001,3.406,1.294.864,2.5,1.68,3.451,2.817,1.105,1.32,2.391,2.813,3.562,4.224.867,1.045,1.911,1.975,3.131,2.728,1.248.77,2.796,1.715,4.159,2.543,2.105,1.279,3.461,3.281,3.586,5.465.033.574.003,1.139-.047,1.759-.067.834-.527,1.554-1.336,2.037-2.288,1.367-8.766,4.675-12.124,5.899-.993.362-1.665.446-2.797.468-1.546.031-3.617.081-5.186-.838-8.741-5.118-22.906-13.185-28.056-15.689-1.06-.516-1.713-1.471-1.698-2.503.015-1.043.104-2.275.447-3.279.358-1.047.985-1.977,1.937-2.801,1.402-1.215,2.403-1.629,3.298-2.09,2.463-1.269,6.514-3.058,9.956-4.47Z"></path></g><g id="p"><path class="at" d="M144.5,140.497c-2.22-3.022-6.592-3.021-8.811,0-.781,1.064-1.427,2.23-1.919,3.454-.306.761-.555,1.548-.704,2.354-.141.768-.191,1.549-.24,2.329-.087,1.374-.167,2.798.329,4.082.43,1.113,1.288,2.049,2.35,2.593s3.402.832,4.591.832c.897,0,3.529-.288,4.591-.832s1.92-1.48,2.35-2.593c.496-1.284.416-2.708.329-4.082-.049-.779-.099-1.561-.24-2.329-.149-.807-.398-1.593-.704-2.354-.492-1.225-1.138-2.391-1.92-3.455Z" style="fill: rgb(106, 106, 106);"></path><path class="at" d="M28.556,207.964c-2.22-3.022-6.592-3.021-8.811,0-.781,1.064-1.427,2.23-1.919,3.454-.306.761-.555,1.548-.704,2.354-.141.768-.191,1.549-.24,2.329-.087,1.374-.167,2.798.329,4.082.43,1.113,1.288,2.049,2.35,2.593,1.061.544,3.402.832,4.591.832.897,0,3.529-.288,4.591-.832s1.92-1.48,2.35-2.593c.496-1.284.416-2.708.329-4.082-.049-.779-.099-1.561-.24-2.329-.149-.807-.398-1.593-.704-2.354-.492-1.225-1.138-2.391-1.92-3.455Z" style="fill: rgb(106, 106, 106);"></path><path class="at" d="M102.459,196.087c-10.549,6.091-26.345,15.21-36.894,21.301,2.386,1.377,4.165,2.405,4.165,2.405,9.358,5.403,23.371,13.493,32.729,18.896,10.797-6.234,27.652-15.965,36.895-21.3-10.549-6.091-26.345-15.211-36.895-21.302Z" style="fill: rgb(106, 106, 106);"></path><path class="at" d="M139.712,300.399c-.209-.121-.417-.242-.624-.362-7.763,9.217-17.598,20.852-26.067,30.855,15.591,9.052,36.197,21.063,52.144,30.167,8.496-10.038,18.473-21.843,26.081-30.889-15.565-8.879-36.403-20.99-51.535-29.771Z" style="fill: rgb(106, 106, 106);"></path><path class="at" d="M199.111,334.896c-.209-.121-.417-.242-.624-.362-7.763,9.217-17.598,20.852-26.067,30.855,15.591,9.052,36.197,21.063,52.144,30.167,8.496-10.038,18.473-21.843,26.081-30.889-15.565-8.879-36.403-20.99-51.535-29.771Z" style="fill: rgb(106, 106, 106);"></path><g id="q"><path class="at" d="M177.088,191.653c-1.191.688-2.032,2.25-2.296,3.743-.41,2.323-.454,6.334-.419,9.227.004.336.124.474.335.562.233.098.714.037.714.037l.201-.026c.043-.025.086-.049.086-.049l44.168-25.44,1.326-.764c-.047-4.122-.228-8.571-.445-10.506-.079-.616-.242-1.186-.477-1.712l-.263.152-42.912,24.775" style="fill: rgb(106, 106, 106);"></path></g><path class="at" d="M306.059,265.847c-3.115-1.799-6.228-3.597-9.336-5.392-.402-.232-.911-.157-1.23.18-5.417,5.728-10.753,11.517-16,17.397-.315.353-.833.436-1.243.2-1.778-1.027-3.554-2.052-5.329-3.077-.401-.231-.908-.159-1.228.176-8.441,8.83-16.672,17.861-24.682,27.083-.413.476-.291,1.212.255,1.527,12.783,7.381,25.675,14.825,38.455,22.203.414.239.936.15,1.249-.211,7.696-8.865,15.575-17.571,23.63-26.112.621-.659,1.733-.214,1.734.692.003,3.381.004,6.612.005,8.909,0,1.165,1.438,1.702,2.206.825,7.629-8.718,15.439-17.279,23.415-25.678,0-.003,0-.128.002-.302-10.603-6.119-21.266-12.277-31.902-18.42Z" style="fill: rgb(106, 106, 106);"></path><g id="r"><path class="at" d="M357.395,55.031c-.082-.07-.165-.142-.249-.214-.736-.633-1.648-1.22-1.931-1.995-.03-.082-.044-.17-.044-.262,0-.175.057-.359.171-.521.117-.167.291-.296.528-.433s.461-.237.75-.305c.428-.1.943-.123,1.356-.073,1.343.163,2.36.69,3.456,1.115,1.896.735,3.369,1.346,5.919,1.353,2.507-.071,4.228-.6,6.124-1.336,1.096-.425,2.113-.951,3.456-1.115.412-.05.952-.013,1.38.087.289.068.521.172.75.305s.411.266.528.433c.122.173.19.378.19.567,0,.081-.013.158-.039.229-.283.775-1.195,1.363-1.931,1.995-1.274,1.095-2.191,2.088-2.314,3.536.011,1.472,1.069,2.323,2.343,3.417.736.633,1.648,1.22,1.931,1.995.03.082.044.17.044.262v3.681c0,.175-.057.359-.171.521-.117.167-.291.296-.528.433s-.461.237-.75.305c-.428.1-.943.123-1.356.073-1.343-.163-2.36-.69-3.456-1.115-1.896-.735-3.369-1.346-5.919-1.353-2.507.071-4.228.6-6.124,1.336-1.096.425-2.113.951-3.456,1.115-.412.05-.952.013-1.38-.087-.289-.068-.521-.172-.75-.305s-.411-.266-.528-.433c-.122-.173-.19-.378-.19-.567v-3.681c0-.081.013-.158.039-.229.283-.775,1.195-1.363,1.931-1.995,1.274-1.095,2.191-2.088,2.314-3.536-.01-1.375-.934-2.208-2.093-3.203Z" style="fill: rgb(106, 106, 106);"></path></g><path class="at" d="M69.289,169.503v15.663c-7.489,4.326-23.642,13.652-31.664,18.283v-15.663c5.794-3.348,24.457-14.12,31.664-18.283Z" style="fill: rgb(106, 106, 106);"></path><path class="at" d="M126.268,136.611v15.663c-8.022,4.631-24.163,13.957-31.653,18.272v-15.663c7.207-4.163,25.848-14.924,31.653-18.272Z" style="fill: rgb(106, 106, 106);"></path><path class="at" d="M235.441,78.047v16.511c-9.631,5.565-25.903,14.957-33.642,19.435-2.696,1.554-6,1.554-8.685,0-7.761-4.478-24.087-13.913-33.848-19.555h-.152v-16.511h.152c9.761,5.641,26.087,15.076,33.848,19.555,2.685,1.554,5.989,1.554,8.685,0,7.739-4.467,24.011-13.87,33.642-19.435Z" style="fill: rgb(106, 106, 106);"></path><path class="at" d="M235.441,45.438v16.511c-9.631,5.565-25.903,14.957-33.642,19.435-2.696,1.554-6,1.554-8.685,0-7.761-4.478-24.087-13.913-33.848-19.555h-.152v-16.511h.152c9.761,5.641,26.087,15.076,33.848,19.555,2.685,1.554,5.989,1.554,8.685,0,7.739-4.467,24.011-13.87,33.642-19.435Z" style="fill: rgb(106, 106, 106);"></path><path class="at" d="M239.367,227.668c.1.226.199.452.295.679l-.181-.43c.539,1.279.987,2.591,1.335,3.935.191.735.96,1.356,1.736,1.321.795-.036,1.518-.534,1.736-1.321.37-1.336.797-2.654,1.333-3.933l-.181.43c.096-.228.196-.455.298-.681.205-.454.319-.888.181-1.387-.115-.418-.438-.87-.827-1.076-.418-.221-.924-.331-1.387-.181-.419.136-.886.408-1.076.827-.739,1.635-1.333,3.315-1.812,5.044h3.471c-.451-1.738-1.083-3.405-1.812-5.044-.172-.386-.687-.72-1.076-.827-.431-.119-1.005-.065-1.387.181-.384.248-.723.617-.827,1.076l-.064.479c.001.325.083.628.246.908h0Z" style="fill: rgb(106, 106, 106);"></path><path class="at" d="M250.877,220.049c.1.226.199.452.295.679l-.181-.43c.539,1.279.987,2.591,1.335,3.935.191.735.96,1.356,1.736,1.321.795-.036,1.518-.534,1.736-1.321.37-1.336.797-2.654,1.333-3.933l-.181.43c.096-.228.196-.455.298-.681.205-.454.319-.888.181-1.387-.115-.418-.438-.87-.827-1.076-.418-.221-.924-.331-1.387-.181-.419.136-.886.408-1.076.827-.739,1.635-1.333,3.315-1.812,5.044h3.471c-.451-1.738-1.083-3.405-1.812-5.044-.172-.386-.687-.72-1.076-.827-.431-.119-1.005-.065-1.387.181-.384.248-.723.617-.827,1.076l-.064.479c.001.325.083.628.246.908h0Z" style="fill: rgb(106, 106, 106);"></path><path class="at" d="M263.038,226.682c.1.226.199.452.295.679l-.181-.43c.539,1.279.987,2.591,1.335,3.935.191.735.96,1.356,1.736,1.321.795-.036,1.518-.534,1.736-1.321.37-1.336.797-2.654,1.333-3.933l-.181.43c.096-.228.196-.455.298-.681.205-.454.319-.888.181-1.387-.115-.418-.438-.87-.827-1.076-.418-.221-.924-.331-1.387-.181-.419.136-.886.408-1.076.827-.739,1.635-1.333,3.315-1.812,5.044h3.471c-.451-1.738-1.083-3.405-1.812-5.044-.172-.386-.687-.72-1.076-.827-.431-.119-1.005-.065-1.387.181-.384.248-.723.617-.827,1.076l-.064.479c.001.325.083.628.246.908h0Z" style="fill: rgb(106, 106, 106);"></path><path class="at" d="M250.799,234.794c.1.226.199.452.295.679l-.181-.43c.539,1.279.987,2.591,1.335,3.935.191.735.96,1.356,1.736,1.321.795-.036,1.518-.534,1.736-1.321.37-1.336.797-2.654,1.333-3.933l-.181.43c.096-.228.196-.455.298-.681.205-.454.319-.888.181-1.387-.115-.418-.438-.87-.827-1.076-.418-.221-.924-.331-1.387-.181-.419.136-.886.408-1.076.827-.739,1.635-1.333,3.315-1.812,5.044h3.471c-.451-1.738-1.083-3.405-1.812-5.044-.172-.386-.687-.72-1.076-.827-.431-.119-1.005-.065-1.387.181-.384.248-.723.617-.827,1.076l-.064.479c.001.325.083.628.246.908h0Z" style="fill: rgb(106, 106, 106);"></path><path class="at" d="M361.904,198.417c.554-.32,1.234-.318,1.788.002l23.656,13.658c.277.16.448.456.448.775v3.731c0,.162-.044.317-.123.452,9.179,5.299,18.351,10.595,27.492,15.872-.002-3.964-.002-10.862-.002-18.861-.845-.488-1.688-.975-2.53-1.461-26.275-15.17-51.181-29.55-77.807-44.922,0,5.953,0,12.791,0,18.86,7.931,4.578,15.882,9.169,23.838,13.762,1.215-.702,2.336-1.349,3.24-1.87Z" style="fill: rgb(106, 106, 106);"></path></g></g><g id="s"><path class="ar" d="M176.973,255.817c-12.296,7.1-24.591,14.2-36.887,21.301-13.292,7.675-26.583,15.351-39.875,23.026-6.631,3.829-13.263,7.659-19.894,11.488-3.343,1.93-.325,7.117,3.028,5.181,12.329-7.12,24.658-14.239,36.988-21.359,13.282-7.67,26.564-15.34,39.847-23.01,6.607-3.815,13.214-7.631,19.822-11.446,3.343-1.93.325-7.117-3.028-5.181h0Z"></path><path class="ar" d="M324.265,228.875c-11.191,6.462-22.382,12.925-33.573,19.387-12.159,7.021-24.317,14.042-36.476,21.063-6.051,3.494-12.103,6.989-18.154,10.483-3.343,1.93-.325,7.117,3.028,5.181,11.222-6.48,22.443-12.96,33.665-19.44,12.15-7.016,24.3-14.032,36.45-21.049,6.029-3.482,12.058-6.963,18.088-10.445,3.343-1.93.325-7.117-3.028-5.181h0Z"></path><path class="ar" d="M113.042,199.611c6.988,4.034,13.976,8.069,20.964,12.103,11.359,6.558,22.718,13.116,34.078,19.675,3.031,1.75,6.062,3.5,9.093,5.25,3.35,1.934,6.375-3.249,3.028-5.181-7.695-4.442-15.389-8.885-23.084-13.328-11.16-6.443-22.321-12.887-33.481-19.33-2.523-1.457-5.046-2.913-7.569-4.37-3.35-1.934-6.375,3.249-3.028,5.181h0Z"></path><path class="ar" d="M159.99,209.912c-2.76,1.589-5.519,3.178-8.275,4.773-1.359.786-1.952,2.747-1.076,4.105.883,1.37,2.651,1.918,4.105,1.076,3.25-1.882,6.505-3.756,9.76-5.63.456-.262.815-.664,1.072-1.124-1.791-1.013-3.727-2.122-5.585-3.2Z"></path><path class="ar" d="M230.399,172.691c-.885-1.373-2.649-1.915-4.105-1.076-1.73.997-3.46,1.997-5.188,2.997.067,2.089.107,4.351.106,6.4.5.002,1.006-.112,1.48-.387,2.208-1.281,4.419-2.556,6.63-3.83.651-.375,1.18-1.07,1.379-1.793.198-.718.109-1.674-.302-2.312Z"></path><path class="ar" d="M365.692,92.795c-.004,1.555,0,3.109,0,4.664,0,.942.828,1.844,1.8,1.8s1.8-.791,1.8-1.8c0-1.555-.004-3.109,0-4.664.002-.942-.829-1.843-1.8-1.8-.977.044-1.798.791-1.8,1.8h0Z"></path><path class="ar" d="M372.879,79.209l9.653,5.653-.892-1.554c-.007,4.816,0,9.632,0,14.448l.892-1.554c-5.316,3.113-10.633,6.226-15.949,9.339h1.817c-5.316-3.113-10.632-6.226-15.948-9.339l.892,1.554c0-4.816-.012-9.633,0-14.449l-.892,1.554c3.243-1.899,6.486-3.798,9.729-5.698,1.998-1.17.188-4.283-1.817-3.108-2.065,1.209-4.129,2.418-6.194,3.627-.921.54-1.843,1.079-2.764,1.619-.873.511-1.595.952-1.662,2.047-.097,1.585,0,3.207,0,4.794,0,2.372,0,4.743,0,7.115,0,.739-.024,1.482,0,2.221.059,1.809,1.843,2.389,3.221,3.196,4.54,2.658,9.079,5.316,13.618,7.975.555.325,1.262.325,1.817,0,3.963-2.321,7.925-4.641,11.888-6.962.997-.584,1.993-1.167,2.99-1.751.963-.564,1.883-.971,1.962-2.215.036-.564,0-1.141,0-1.705,0-4.138.128-8.297,0-12.433-.059-1.903-2.163-2.575-3.606-3.42l-6.939-4.064c-2.003-1.173-3.817,1.937-1.817,3.108h0Z"></path><path class="ar" d="M357.888,89.109c2.899,1.697,5.797,3.395,8.696,5.092.555.325,1.262.325,1.817,0,2.899-1.697,5.797-3.395,8.696-5.092,1.998-1.17.188-4.283-1.817-3.108-2.899,1.697-5.797,3.395-8.696,5.092h1.817c-2.899-1.697-5.797-3.395-8.696-5.092-2.003-1.173-3.817,1.937-1.817,3.108h0Z"></path><path class="ar" d="M71.089,201.273v-63.961c0-.286-.023-.584,0-.869.071-.892.599-1.312,1.299-1.716l6.856-3.958c3.107-1.794,6.214-3.588,9.322-5.382l3.326-1.92c.263-.152.616-.289.847-.489.25-.216.204.004.084-.179.199.304-.006,1.83-.006,2.292v26.627c0,11.443,0,22.885,0,34.328v.605c0,2.316,3.6,2.32,3.6,0,0-10.231,0-20.463,0-30.694v-21.67c0-3.781.121-7.585,0-11.365-.05-1.561-.866-3-2.433-3.488-1.282-.399-2.375.04-3.453.662l-7.544,4.355-9.351,5.399c-2.081,1.201-4.86,2.302-5.784,4.693-.475,1.23-.363,2.585-.363,3.88v62.851c0,2.316,3.6,2.32,3.6,0h0Z"></path><path class="ar" d="M68.381,150.818c-4.865,2.809-9.729,5.617-14.594,8.426-4.683,2.704-9.365,5.407-14.048,8.111-1.024.591-2.578,1.16-3.382,2.024-.442.475-.51,1.012-.527,1.618-.016.554,0,1.11,0,1.664v42.682c0,2.316,3.6,2.32,3.6,0,0-12.63,0-25.26,0-37.89v-6.803l-.892,1.554c10.553-6.093,21.107-12.186,31.66-18.279,2.006-1.158.195-4.27-1.817-3.108h0Z"></path><path class="ar" d="M75.308,109.7c3.963-2.287,7.925-4.576,11.887-6.865.969-.56,2.702-2.102,3.854-1.621.177.074.348.201.514.297l8.196,4.734c7.484,4.323,14.969,8.645,22.453,12.968.552.319,1.194.597,1.702.983.458.347.533.638.556,1.193.05,1.197,0,2.408,0,3.606v7.03c0,9.595,0,19.191,0,28.786v3.414c0,.886.324,2.404-.227,3.159-.481.658-1.787,1.115-2.479,1.515-1.151.665-2.302,1.33-3.453,1.995-4.315,2.493-8.631,4.984-12.947,7.475-8.536,4.926-17.07,9.855-25.606,14.782-8.615,4.973-17.23,9.945-25.844,14.919-4.247,2.452-8.493,4.905-12.739,7.357-1.173.677-2.879,2.297-4.25,1.64-.905-.434-1.764-1.02-2.632-1.522l-1.974-1.142c-2.009-1.162-3.824,1.948-1.817,3.108,1.569.907,3.116,1.871,4.713,2.726,1.882,1.007,3.615.702,5.402-.33,2.232-1.289,4.463-2.577,6.695-3.866,9.059-5.232,18.121-10.458,27.18-15.69,9.025-5.214,18.052-10.426,27.08-15.635,4.532-2.615,9.063-5.23,13.595-7.846,2.23-1.288,4.46-2.575,6.689-3.863,1.902-1.099,4.564-2.07,5.662-4.092.504-.929.553-1.922.553-2.955v-41.44c0-2.189.401-4.736-1.198-6.499-.403-.444-.887-.777-1.397-1.08-7.01-4.165-14.127-8.159-21.188-12.237l-10.109-5.838c-.896-.518-1.775-1.11-2.811-1.302-2.089-.389-3.775.886-5.486,1.875-1.978,1.142-3.955,2.285-5.933,3.427-2.152,1.243-4.305,2.486-6.457,3.728-2.006,1.158-.195,4.27,1.817,3.108h0Z"></path><path class="ar" d="M20.038,207.321c-2.385-1.378-4.771-2.756-7.156-4.134-2.821-1.63-5.771-3.138-8.504-4.913-1.08-.702-.699-2.501-.699-3.64v-41.727c0-.4-.051-.838,0-1.237.101-.793.679-1.011,1.287-1.362,6.122-3.534,12.244-7.069,18.366-10.603l8.705-5.025c.599-.346,1.229-.664,1.808-1.044,1.182-.775,1.494-1.895,1.494-3.207,0-3.689,0-7.378,0-11.066,0-1.256-.076-2.537,0-3.791.049-.805.55-1.048,1.16-1.4l18.656-10.768c.957-.552,1.906-1.123,2.873-1.658.66-.365,1.175-.293,1.814.076l9.438,5.448c5.027,2.902,10.055,5.802,15.083,8.703l2.457,1.418c2.01,1.16,3.825-1.95,1.817-3.108-4.67-2.694-9.34-5.386-14.009-8.082l-9.797-5.656c-1.156-.668-2.302-1.361-3.472-2.004-1.659-.912-3.37-.893-5.023.024-6.144,3.411-12.181,7.031-18.267,10.544-2.291,1.322-5.731,2.606-6.246,5.523-.195,1.103-.084,2.293-.084,3.405v11.68c0,.313-.137,1.013,0,1.297.165.341.118-.586.343-.516-.032-.01-.106.078-.14.081-.605.047-1.617.934-2.132,1.231l-4.079,2.355-20.607,11.897c-2.338,1.35-4.911,2.448-5.045,5.609-.065,1.532,0,3.081,0,4.613v23.751c0,5.692-.178,11.415,0,17.104.106,3.379,2.964,4.525,5.471,5.973,3.479,2.01,6.958,4.02,10.437,6.03.745.43,1.489.86,2.234,1.291,2.01,1.161,3.825-1.949,1.817-3.108h0Z"></path><g id="t"><path class="ar" d="M43.5,122.075c4.996,2.884,9.992,5.769,14.988,8.653.715.413,1.43.826,2.145,1.239,2.01,1.161,3.825-1.949,1.817-3.108-4.996-2.884-9.992-5.769-14.988-8.653-.715-.413-1.43-.826-2.145-1.239-2.01-1.161-3.825,1.949-1.817,3.108h0Z"></path></g><g id="u"><path class="ar" d="M31.049,164.773c-5.499-3.175-10.997-6.349-16.496-9.524-.787-.454-1.574-.909-2.361-1.363-2.01-1.161-3.825,1.949-1.817,3.108,5.499,3.175,10.997,6.349,16.496,9.524.787.454,1.574.909,2.361,1.363,2.01,1.161,3.825-1.949,1.817-3.108h0Z"></path></g><g id="v"><path class="ar" d="M124.469,119.523c-10.254,5.92-20.507,11.84-30.761,17.76-2.006,1.158-.195,4.27,1.817,3.108,10.254-5.92,20.507-11.84,30.761-17.76,2.006-1.158.195-4.27-1.817-3.108h0Z"></path></g><path class="ar" d="M68.379,167.95c-8.711,5.029-17.422,10.058-26.133,15.088l-5.526,3.19c-2.006,1.158-.195,4.27,1.817,3.108,8.466-4.888,16.931-9.775,25.397-14.663,2.087-1.205,4.174-2.41,6.262-3.615,2.006-1.158.195-4.27-1.817-3.108h0Z"></path><path class="ar" d="M38.539,205.001c10.553-6.093,21.106-12.185,31.658-18.278,2.006-1.158.195-4.27-1.817-3.108-10.553,6.093-21.106,12.185-31.658,18.278-2.006,1.158-.195,4.27,1.817,3.108h0Z"></path><g id="w"><path class="ar" d="M79.069,149.34c-.271-.168-.016.004.03.046-.088-.079-.167-.162-.249-.246-.174-.178.139.243.019.013-.047-.091-.103-.178-.152-.268-.131-.247.091.389-.038-.103-.03-.115-.069-.226-.098-.342-.093-.375-.08-.29-.102-.704-.014-.26-.015-.52-.004-.78.005-.111.062-.709.017-.377.071-.534.202-1.064.363-1.578.185-.59.268-.793.48-1.228.266-.547.572-1.074.916-1.576.311-.453.382-.541.795-.984.173-.185.351-.365.537-.537.115-.107.233-.211.353-.312.057-.048.333-.259.149-.124.429-.315.944-.646,1.405-.828.2-.079.518-.167.769-.204-.315.047.68.112.25.005.103.026.203.051.305.084-.215-.069-.063-.117-.009.01.052.123.161.116.005-.019.079.068.147.141.22.215-.274-.275.21.367.153.247-.087-.183.057.159.07.2.048.151.084.304.12.459.206.882.016,2.017-.242,2.972-.294,1.09-.614,1.787-1.255,2.772-.584.896-1.475,1.827-2.341,2.402-.582.387-1.087.615-1.717.815-.041.013-.36.063-.081.03-.145.017-.292.013-.437.011l-.085-.004c.205.033.203.028-.004-.014l-.151-.045c.187.088.189.085.006-.009-.858-.457-1.959-.216-2.463.646-.477.816-.215,2.004.646,2.463,3.126,1.666,6.792-.743,8.762-3.163,1.958-2.405,3.269-5.603,2.989-8.751-.149-1.678-.788-3.306-2.25-4.257-1.518-.987-3.398-.723-4.964-.026-2.884,1.282-4.949,4.05-6.088,6.914-1.159,2.912-1.511,7.389,1.552,9.283.827.511,1.981.178,2.463-.646.503-.859.183-1.95-.646-2.463Z"></path></g><path class="ar" d="M95.525,156.435c8.711-5.029,17.422-10.058,26.133-15.088l5.526-3.19c2.006-1.158.195-4.27-1.817-3.108-8.466,4.888-16.931,9.775-25.397,14.663l-6.262,3.615c-2.006,1.158-.195,4.27,1.817,3.108h0Z"></path><path class="ar" d="M95.524,172.101c10.553-6.093,21.106-12.185,31.659-18.278,2.006-1.158.195-4.27-1.817-3.108-10.553,6.093-21.106,12.185-31.659,18.278-2.006,1.158-.195,4.27,1.817,3.108h0Z"></path><path class="ar" d="M146.054,139.589c-1.186-1.553-2.742-2.712-4.708-3.037-1.834-.303-3.76.056-5.296,1.133-1.881,1.319-3.049,3.446-3.908,5.527-.893,2.163-1.155,4.479-1.18,6.807-.025,2.293.638,4.553,2.468,6.05,1.548,1.266,3.448,1.607,5.391,1.801,3.367.336,7.392-.354,9.338-3.395,1.41-2.204,1.162-5.111.856-7.589-.327-2.64-1.408-5.143-2.959-7.296-.568-.788-1.567-1.17-2.463-.646-.778.455-1.217,1.67-.646,2.463,1.056,1.466,1.907,3.078,2.328,4.844.188.786.239,1.58.29,2.385.053.838.136,1.714.02,2.55-.085.609-.296,1.197-.68,1.68-.201.252-.447.475-.713.653-.133.089-.274.161-.413.238.357-.197-.058.019-.159.051-1.214.39-2.183.512-3.412.534s-2.25-.115-3.415-.46c.042.012-.54-.184-.297-.086.25.1-.387-.208-.291-.152-.217-.124-.405-.264-.588-.432-.555-.51-.856-1.153-.984-1.891-.136-.788-.069-1.615-.023-2.409.052-.894.098-1.786.307-2.66.394-1.651,1.161-3.245,2.163-4.614.751-1.026,1.836-1.584,2.92-1.604.492-.009,1.152.111,1.549.298.585.276,1.038.602,1.4,1.076.589.771,1.55,1.179,2.463.646.76-.444,1.239-1.685.646-2.463Z"></path><path class="ar" d="M138.625,157.055v6.158c0,.942.828,1.844,1.8,1.8s1.8-.791,1.8-1.8v-6.158c0-.942-.828-1.844-1.8-1.8s-1.8.791-1.8,1.8h0Z"></path><path class="ar" d="M30.11,207.056c-1.186-1.553-2.742-2.712-4.708-3.037-1.834-.303-3.76.056-5.296,1.133-1.881,1.319-3.049,3.446-3.908,5.527-.893,2.163-1.155,4.479-1.18,6.807-.025,2.293.638,4.553,2.468,6.05,1.548,1.266,3.448,1.607,5.391,1.801,3.367.336,7.392-.354,9.338-3.395,1.41-2.204,1.162-5.111.856-7.589-.327-2.64-1.408-5.143-2.959-7.296-.568-.788-1.567-1.17-2.463-.646-.778.455-1.217,1.67-.646,2.463,1.056,1.466,1.907,3.078,2.328,4.844.188.786.239,1.58.29,2.385.053.838.136,1.714.02,2.55-.085.609-.296,1.197-.68,1.68-.201.252-.447.475-.713.653-.133.089-.274.161-.413.238.357-.197-.058.019-.159.051-1.214.39-2.183.512-3.412.534s-2.25-.115-3.415-.46c.042.012-.54-.184-.297-.086.25.1-.387-.208-.291-.152-.217-.124-.405-.264-.588-.432-.555-.51-.856-1.153-.984-1.891-.136-.788-.069-1.615-.023-2.409.052-.894.098-1.786.307-2.66.394-1.651,1.161-3.245,2.163-4.614.751-1.026,1.836-1.584,2.92-1.604.492-.009,1.152.111,1.549.298.585.276,1.038.602,1.4,1.076.589.771,1.55,1.179,2.463.646.76-.444,1.239-1.685.646-2.463Z"></path><path class="ar" d="M22.681,224.522v6.158c0,.942.828,1.844,1.8,1.8s1.8-.791,1.8-1.8v-6.158c0-.942-.828-1.844-1.8-1.8s-1.8.791-1.8,1.8h0Z"></path><path class="ar" d="M209.979,291.925c.006,5.889.018,11.778.03,17.667.005,2.582.011,5.164.015,7.745.002.962.003,1.924.004,2.886,0,.832.249,1.643-.498,2.158-.99.682-2.343.843-3.498.596-.555-.119-1.219-.353-1.642-.752-.451-.426-.291-.44-.291-1.134v-39.845c0-2.316-3.6-2.32-3.6,0v38.113c0,1.303-.202,2.786.337,4.001,1.264,2.847,5.122,3.7,7.913,3.144,1.387-.276,2.832-.934,3.802-1.988,1.013-1.101,1.078-2.376,1.077-3.785-.002-2.38-.006-4.759-.011-7.139-.014-7.222-.032-14.444-.039-21.667-.002-2.316-3.602-2.32-3.6,0h0Z"></path><path class="ar" d="M203.672,280.765c7.486-4.326,15.406-8.011,22.57-12.869,1.289-.874,2.428-1.71,2.991-3.231.644-1.742.482-3.827.058-5.606-.879-3.686-4.203-7.12-8.209-7.033-1.325.029-2.507.78-3.654,1.373-1.115.577-2.221,1.17-3.323,1.77-2.635,1.433-5.25,2.904-7.857,4.386-3.836,2.181-7.659,4.387-11.463,6.624-1.996,1.174-.186,4.287,1.817,3.108,7.368-4.333,14.759-8.674,22.341-12.623.751-.391,1.663-1.086,2.481-1.031,1.601.107,3.068,1.385,3.798,2.735.697,1.288,1.011,3.051.782,4.501-.184,1.168-1.064,1.58-1.978,2.186-4.481,2.973-9.26,5.524-14.001,8.053-2.756,1.47-5.464,2.985-8.17,4.548-2.005,1.159-.195,4.271,1.817,3.108h0Z"></path><g id="x"><path class="ar" d="M204.935,278.164c2.774.259,5.124,1.031,7.111,2.986,1.951,1.92,3.686,4.065,5.378,6.213,4.22,5.358,8.107,10.977,12.026,16.555.951,1.354,1.902,2.707,2.861,4.055.691.972,1.384,1.942,2.02,2.95.581.922,1.357,1.985,1.51,3.082v-.957c.666-.553.817-.729.453-.529-.136.068-.271.136-.407.205-.049.025-.631.38-.683.343.64-.002.711-.099.214-.292-.214-.162-.423-.33-.628-.503-.34-.278-.677-.561-1.013-.845-1.573-1.324-3.114-2.686-4.627-4.079-3.059-2.815-6.002-5.755-8.864-8.77-5.945-6.262-11.548-12.839-17.152-19.405-1.506-1.765-4.042.792-2.546,2.546,5.603,6.567,11.206,13.143,17.152,19.405,2.862,3.015,5.804,5.955,8.864,8.77,1.567,1.442,3.164,2.851,4.796,4.22,1.324,1.111,2.993,2.872,4.918,2.352,1.146-.31,2.663-1.096,2.969-2.315.456-1.815-1.154-3.982-2.084-5.416-1.742-2.685-3.677-5.26-5.517-7.878-3.838-5.461-7.681-10.929-11.818-16.17-1.793-2.271-3.632-4.562-5.752-6.541-2.563-2.392-5.748-3.263-9.181-3.583-2.306-.215-2.291,3.386,0,3.6h0Z"></path></g><g id="y"><path class="ar" d="M197.553,266.963c-1.318-2.065-2.682-4.115-3.81-6.293-1.021-1.972-1.186-4.164-1.319-6.354-.368-6.085.203-12.212.787-18.265.251-2.593.307-5.316.871-7.862.114-.514.243-1.026.384-1.534.086-.309.457-1.004.408-1.315.054.343-1.102.894-.587.775.164-.038.377-.214.523-.296.137-.077.274-.154.412-.23.112-.062.225-.124.338-.184.575-.274.092-.308-1.45-.102-.009.251.553,1.12.644,1.446.22.789.388,1.597.572,2.396.464,2.021.882,4.053,1.256,6.092.631,3.438,1.134,6.896,1.522,10.37.866,7.752,1.198,15.548,1.514,23.338.094,2.309,3.694,2.321,3.6,0-.311-7.641-.635-15.288-1.465-22.894-.43-3.941-.983-7.871-1.699-11.771-.374-2.04-.793-4.071-1.256-6.092-.369-1.607-.649-3.354-1.593-4.746-.844-1.246-2.144-1.813-3.538-1.104-.836.425-1.71.838-2.127,1.714-1.086,2.288-1.247,5.029-1.486,7.505-.643,6.641-1.412,13.303-1.326,19.985.039,3.052.019,6.614,1.218,9.471,1.156,2.756,2.898,5.258,4.5,7.767,1.243,1.947,4.36.143,3.108-1.817h0Z"></path></g><path class="ar" d="M193.267,269.723c-4.787.683-9.47,2.259-13.99,3.93-3.926,1.451-7.718,3.07-11.314,5.217-1.736,1.036-3.873,2.208-3.676,4.559.284,3.39,4.759,3.739,7.349,3.866,5.242.257,10.535.07,15.756-.442,2.771-.272,5.562-.62,8.273-1.272,3.294-.792,3.808-3.899,3.733-6.89-.058-2.312-3.659-2.321-3.6,0,.026,1.032,0,2.017-.301,3.011-.121.401-.094.239-.367.304-.484.114-.966.233-1.452.334-2.074.432-4.177.706-6.284.912-4.522.444-9.083.617-13.626.516-.946-.021-1.892-.05-2.836-.112-.598-.039-1.176-.094-1.76-.233-.281-.067-.792-.346-1.056-.321-.502.048.104-.269-.315.181,1.02-1.096,3.079-1.976,4.437-2.724,2.735-1.508,5.719-2.61,8.647-3.674,4.317-1.568,8.779-3.042,13.341-3.692.97-.138,1.482-1.361,1.257-2.214-.273-1.037-1.256-1.394-2.214-1.257h0Z"></path><g id="z"><path class="ar" d="M195.834,265.863c-.826.477-1.771.906-2.396,1.646-1.208,1.43-1.371,3.338-1.131,5.126.453,3.376,2.486,6.655,5.467,8.371,1.597.919,3.486,1.362,5.187.456.728-.388,1.571-.814,2.163-1.396,1.164-1.143,1.502-2.944,1.43-4.513-.077-1.658-.573-3.253-1.329-4.723-1.605-3.124-5.643-6.959-9.391-4.968-.858.456-1.122,1.648-.646,2.463.508.869,1.601,1.103,2.463.646l.133-.071c-.198.082-.197.09,0,.025.005-.056.424-.008-.003-.004-.024,0,.517.024.281-.005-.249-.03.355.091.316.08.537.155,1.037.469,1.521.834-.23-.173.068.063.12.108.113.098.224.198.331.301.218.209.425.427.623.655.259.299.568.731.88,1.272.152.263.293.532.423.806.051.109.103.218.149.329-.111-.268.026.087.05.152.207.57.365,1.158.459,1.758-.055-.355.018.311.022.422.01.285-.002.568-.019.853-.033.547.095-.24-.041.252-.03.109-.051.219-.083.328,0,0-.189.472-.072.226.096-.203-.157.244-.187.288.031-.046.235-.296.024-.06-.246.275.206-.061.014-.006-.064.019-.141.083-.199.117-.329.193-.66.381-.99.572-.083.048-.168.094-.25.144-.196.121-.178.045.03-.004-.096.023-.186.052-.284.069.402-.069.034-.007-.065-.034-.307-.084.43.143-.119-.019-.313-.092-.491-.13-.713-.242-.59-.296-1.058-.617-1.389-.909-.235-.207-.459-.426-.671-.655-.086-.092-.17-.187-.252-.282.002.002-.351-.446-.192-.232-.807-1.083-1.22-1.984-1.513-3.192-.037-.154-.07-.309-.099-.464-.018-.093-.034-.186-.049-.28.021.166.02.139-.005-.083-.021-.32-.041-.638-.031-.958-.002.059.057-.586.021-.35-.013.087.1-.381.121-.469.016-.068.136-.315,0-.033.068-.14.145-.274.233-.402-.227.33.045-.014.105-.071-.083.078-.266.16-.008.028.112-.057.219-.126.328-.189l1.05-.606c2.006-1.158.195-4.27-1.817-3.108Z"></path></g><path class="ar" d="M134.937,264.582v-21.574c0-1.369-1.528-2.238-2.708-1.554-3.295,1.908-6.592,3.814-9.888,5.72-.798.462-1.794.84-2.082,1.801-.265.887-.064,2.033-.064,2.953,0,1.924,0,3.848,0,5.772,0,4.435,0,8.87,0,13.306,0,2.316,3.6,2.32,3.6,0,0-7.184,0-14.368,0-21.552l-.892,1.554c3.714-2.148,7.429-4.295,11.142-6.445l-2.708-1.554v21.574c0,2.316,3.6,2.32,3.6,0h0Z"></path><path class="ar" d="M113.647,247.574c-3.588,2.07-7.173,4.144-10.76,6.214-.548.316-.892.923-.892,1.554,0,3.381,0,6.763,0,10.144,0,1.37,1.528,2.236,2.708,1.554,3.587-2.072,7.173-4.144,10.761-6.214.548-.316.892-.923.892-1.554,0-3.381,0-6.763,0-10.144,0-2.316-3.6-2.32-3.6,0,0,3.381,0,6.763,0,10.144l.892-1.554c-3.587,2.07-7.174,4.142-10.761,6.214l2.708,1.554c0-3.381,0-6.763,0-10.144l-.892,1.554c3.588-2.07,7.173-4.144,10.76-6.214,2.006-1.157.195-4.27-1.817-3.108Z"></path><path class="ar" d="M68.822,221.347c9.434,5.447,18.868,10.894,28.302,16.34,1.264.73,2.652,1.784,4.085,2.171,2.232.603,3.991-.673,5.796-1.715,5.477-3.162,10.954-6.324,16.431-9.487,4.467-2.579,8.934-5.158,13.401-7.737,2.006-1.158.195-4.27-1.817-3.108-9.327,5.385-18.654,10.77-27.981,16.155-1.281.74-2.564,1.654-3.916,2.261-1.098.493-2.278-.548-3.207-1.084-5.38-3.106-10.759-6.212-16.139-9.318-4.38-2.529-8.76-5.057-13.14-7.586-2.01-1.161-3.825,1.949-1.817,3.108h0Z"></path><path class="ar" d="M67.369,258.605v-37.85c0-.58-.249-1.815.107-2.336.154-.225.568-.382.79-.51l1.75-1.01c9.735-5.62,19.469-11.239,29.204-16.859.909-.525,1.929-1.356,2.931-1.692.593-.199,1.016.221,1.529.518,1.195.69,2.39,1.38,3.585,2.071,2.285,1.32,4.57,2.639,6.855,3.959,4.816,2.781,9.632,5.562,14.448,8.342,2.266,1.308,4.532,2.616,6.798,3.924.792.457,2.11.82,2.182,1.828.098,1.36,0,2.765,0,4.127v34.106c0,.923.193,2.086,0,2.996-.165.778-1.292,1.105-1.936,1.477-1.147.662-2.294,1.325-3.441,1.987-2.478,1.431-4.957,2.863-7.435,4.294-5.329,3.078-10.659,6.155-15.989,9.231-1.311.757-2.623,1.514-3.934,2.27-.604.349-1.403,1.043-2.064,1.191-.619.139-1.061-.268-1.593-.57-2.018-1.144-3.834,1.964-1.817,3.108,1.272.721,2.487,1.39,4.008,1.041,1.593-.366,3.12-1.568,4.524-2.378,2.893-1.669,5.785-3.339,8.677-5.009,5.336-3.081,10.671-6.162,16.006-9.244,1.174-.678,2.348-1.356,3.523-2.035,1.189-.687,2.631-1.285,3.652-2.213.996-.906,1.394-2.116,1.418-3.427.028-1.517,0-3.038,0-4.555v-34.956c0-2.155-.111-4.081-2.235-5.383-4.698-2.878-9.561-5.518-14.332-8.273-4.997-2.885-9.994-5.771-14.991-8.657-1.047-.605-2.094-1.209-3.141-1.814-1.186-.685-2.396-1.587-3.813-1.645-.992-.04-1.843.324-2.677.793-9.724,5.469-19.33,11.158-28.992,16.736l-4.609,2.661c-.621.358-1.189.728-1.65,1.302-.981,1.221-.94,2.621-.94,4.111v5.258c0,9.763,0,19.526,0,29.288v3.792c0,2.316,3.6,2.32,3.6,0h0Z"></path><path class="ar" d="M413.363,198.835v47.102c0,2.316,3.6,2.32,3.6,0v-47.102c0-2.316-3.6-2.32-3.6,0h0Z"></path><path class="ar" d="M361.733,166.948v-18.959l-2.708,1.554c10.043,5.796,20.083,11.597,30.126,17.392l-.892-1.554v18.964c0,.631.343,1.238.892,1.554,8.369,4.828,16.737,9.658,25.104,14.49,2.01,1.161,3.825-1.949,1.817-3.108-8.367-4.832-16.735-9.662-25.104-14.49l.892,1.554v-18.964c0-.632-.343-1.238-.892-1.554-10.043-5.796-20.084-11.596-30.126-17.392-1.181-.682-2.708.184-2.708,1.554v18.959c0,2.316,3.6,2.32,3.6,0h0Z"></path><path class="ar" d="M334.212,154.18c8.278,4.765,16.543,9.553,24.816,14.326,2.01,1.16,3.825-1.95,1.817-3.108-8.273-4.774-16.538-9.561-24.816-14.326-2.011-1.158-3.826,1.952-1.817,3.108h0Z"></path><path class="ar" d="M416.071,212.492c-20.519-11.847-41.038-23.694-61.558-35.54-5.904-3.409-11.808-6.817-17.711-10.226-2.01-1.161-3.825,1.949-1.817,3.108,20.557,11.868,41.114,23.737,61.67,35.605,5.866,3.387,11.732,6.774,17.599,10.161,2.01,1.161,3.825-1.949,1.817-3.108h0Z"></path><path class="ar" d="M413.628,229.941c-8.349-4.821-16.698-9.644-25.05-14.46-2.011-1.159-3.826,1.95-1.817,3.108,8.352,4.816,16.701,9.639,25.05,14.46,2.01,1.161,3.825-1.949,1.817-3.108h0Z"></path><path class="ar" d="M359.578,198.731c-7.949-4.583-15.895-9.171-23.84-13.76-2.01-1.161-3.825,1.949-1.817,3.108,7.945,4.589,15.891,9.177,23.84,13.76,2.011,1.159,3.826-1.95,1.817-3.108h0Z"></path><path class="ar" d="M375.103,180.445c.416,0,.812-.159,1.113-.449.318-.305.493-.716.493-1.158v-1.851l1.602.925c.244.141.522.216.803.216.887,0,1.607-.721,1.607-1.607v-2.863c0-.572-.308-1.105-.803-1.391l-3.209-1.852v-3.705c0-.572-.308-1.105-.803-1.391l-2.479-1.431c-.245-.142-.522-.216-.802-.216-.886,0-1.607.721-1.607,1.608v1.849l-1.602-.925c-.245-.141-.522-.216-.802-.216-.887,0-1.607.721-1.607,1.607v2.862c0,.572.306,1.105.801,1.39l3.211,1.854v3.709c0,.571.308,1.103.804,1.389l2.479,1.431c.244.141.522.216.803.216Z"></path><path class="ar" d="M391.638,166.665c8.307-4.796,16.614-9.593,24.923-14.388,2.006-1.158.195-4.27-1.817-3.108-8.308,4.795-16.615,9.592-24.923,14.388-2.006,1.158-.195,4.27,1.817,3.108h0Z"></path><path class="ar" d="M361.026,149.353c6.709-3.875,13.418-7.749,20.128-11.623,2.006-1.158.195-4.27-1.817-3.108-6.71,3.874-13.419,7.748-20.128,11.623-2.006,1.158-.195,4.27,1.817,3.108h0Z"></path><path class="ar" d="M424.559,195.256c6.548-3.78,13.095-7.56,19.642-11.341,2.006-1.158.195-4.27-1.817-3.108-6.547,3.78-13.094,7.561-19.642,11.341-2.006,1.158-.195,4.27,1.817,3.108h0Z"></path><path class="ar" d="M371.601,227.48c10.225,5.897,20.448,11.797,30.671,17.696,3.015,1.74,6.03,3.48,9.046,5.219,1.457.84,2.926,1.881,4.709,1.468,1.494-.346,2.894-1.44,4.21-2.199,1.504-.868,3.008-1.736,4.512-2.604,5.945-3.431,11.888-6.864,17.831-10.298,2.991-1.728,6.13-3.321,9.019-5.213,1.351-.885,2.041-2.173,2.082-3.779.096-3.788,0-7.592,0-11.381v-35.472c0-1.453.154-2.961-.657-4.257-.91-1.455-2.963-2.257-4.406-3.09-2.162-1.248-4.324-2.495-6.486-3.743-2.748-1.586-5.496-3.172-8.243-4.757-1.414-.816-2.828-1.632-4.242-2.448-.269-.155-.761-.582-1.073-.619-.693-.084.528-.705.007.743.026-.074-.005-.197,0-.272.179-2.509,0-5.096,0-7.611v-8.654c0-1.339-.182-2.622-1.174-3.646-1.03-1.063-2.65-1.726-3.92-2.458-1.464-.845-2.928-1.69-4.392-2.535-5.169-2.984-10.337-5.969-15.505-8.955-1.037-.599-2.075-1.199-3.112-1.798-1.183-.684-2.381-1.567-3.809-1.555-1.57.014-2.908,1.03-4.214,1.785-1.481.856-2.963,1.712-4.444,2.568-2.89,1.669-5.78,3.338-8.669,5.007h1.817c-1.786-1.031-3.572-2.06-5.358-3.091-1.441-.832-2.877-1.923-4.626-1.752-1.188.116-2.179.819-3.188,1.402-1.075.62-2.15,1.241-3.225,1.861-2.221,1.282-4.443,2.564-6.665,3.846-4.299,2.48-8.597,4.961-12.895,7.442-2.149,1.24-4.298,2.481-6.446,3.722-1.766,1.02-4.303,1.926-5.268,3.843-.594,1.179-.456,2.537-.456,3.818v40.583c0,2.334-.213,4.777.029,7.103.268,2.57,2.941,3.52,4.9,4.652,2.449,1.415,4.9,2.828,7.352,4.238,2.012,1.157,3.827-1.952,1.817-3.108-1.965-1.13-3.93-2.262-5.893-3.396-.901-.52-1.802-1.041-2.702-1.561-.407-.235-1.7-.727-1.903-1.166-.162-.35,0-1.151,0-1.529v-46.142c0-.411-.013-.824,0-1.235.024-.768.26-.866.933-1.255,2.005-1.158,4.011-2.317,6.017-3.475,4.011-2.316,8.023-4.631,12.035-6.946,4.443-2.564,8.886-5.128,13.329-7.692.739-.427,2.048-1.605,2.919-1.375.608.161,1.301.754,1.841,1.067,1.879,1.085,3.759,2.168,5.639,3.253.561.324,1.256.324,1.817,0,2.819-1.629,5.638-3.257,8.458-4.885,1.411-.815,2.822-1.63,4.233-2.446.702-.406,1.393-.862,2.117-1.224.671-.336.884-.298,1.537.079,4.526,2.616,9.052,5.231,13.579,7.846,2.687,1.552,5.375,3.104,8.063,4.656,1.41.814,2.82,1.628,4.23,2.442.642.37,1.447.582,1.606,1.344.144.689,0,1.564,0,2.264v13.288c0,.552-.043,1.123,0,1.673.129,1.663,1.566,2.225,2.849,2.965,1.414.816,2.828,1.632,4.242,2.448,4.739,2.735,9.477,5.47,14.216,8.204.735.424,1.47.848,2.206,1.273.546.315,1.428.602,1.588,1.25.047.19,0,.451,0,.646v46.478c0,.504.011,1.01,0,1.515-.015.707-.199.841-.943,1.27-5.727,3.311-11.454,6.62-17.182,9.929-2.864,1.654-5.729,3.308-8.594,4.962-1.361.785-2.722,1.571-4.083,2.356-.716.413-1.432.826-2.149,1.24-.557.321-1.489,1.133-2.119,1.028-.879-.147-1.99-1.107-2.756-1.548-1.35-.778-2.699-1.557-4.049-2.336-8.798-5.077-17.595-10.155-26.394-15.23-2.798-1.614-5.596-3.228-8.395-4.842-2.011-1.16-3.826,1.95-1.817,3.108h0Z"></path><path class="ar" d="M369.141,226.994v16.63c0,2.316,3.6,2.32,3.6,0v-16.63c0-2.316-3.6-2.32-3.6,0h0Z"></path><path class="ar" d="M344.416,212.96v16.63c0,2.316,3.6,2.32,3.6,0v-16.63c0-2.316-3.6-2.32-3.6,0h0Z"></path><path class="ar" d="M376.799,204.945v-12.65c0-.973-.827-1.8-1.8-1.8s-1.8.824-1.8,1.8v12.65c0,.973.827,1.8,1.8,1.8s1.8-.824,1.8-1.8h0Z"></path><path class="ar" d="M353.11,179.738v18.153c0,2.316,3.6,2.32,3.6,0v-18.153c0-2.316-3.6-2.32-3.6,0h0Z"></path><path class="ar" d="M393.279,203.377v16.195c0,2.316,3.6,2.32,3.6,0v-16.195c0-2.316-3.6-2.32-3.6,0h0Z"></path><g id="aa"><path class="ar" d="M388.256,210.522c-4.446-2.567-8.893-5.134-13.339-7.701l-8.232-4.753c-.639-.369-1.27-.762-1.922-1.11-1.799-.958-3.235-.404-4.881.546-4.078,2.355-8.156,4.709-12.234,7.064-1.553.897-3.134,1.571-3.233,3.609-.065,1.323-.329,3.496.454,4.65.884,1.302,3.008,2.073,4.33,2.836,1.54.889,3.08,1.778,4.62,2.667,2.814,1.624,5.627,3.249,8.441,4.873,2.01,1.161,4.02,2.321,6.03,3.482.59.34,1.169.724,1.796.991,1.394.593,2.617.215,3.855-.5,4.039-2.332,8.078-4.664,12.116-6.995,1.684-.973,3.47-1.669,3.536-3.898.05-1.664.437-4.293-.975-5.48-1.763-1.481-4.322,1.053-2.546,2.546-.434-.365.01-.661-.079-.323-.019.071.003.217,0,.278-.015.348,0,.702,0,1.05,0,.53-.212,1.57,0,2.055v.094c-.009.317.106.103.343-.641-.016-.007-.243.137-.234.135-.226.052-.536.31-.735.424-.667.385-1.334.77-2,1.155-3.375,1.949-6.75,3.897-10.126,5.846-.386.223-1.269.98-1.715.99-.236.005-1.129-.668-1.421-.836-1.739-1.004-3.478-2.008-5.217-3.012-5.197-3.001-10.394-6.001-15.592-9.002-.23-.133-.81-.623-1.079-.623l-.216-.125c.008.528.012.676.011.444.024-.256,0-.527,0-.784,0-.693.104-1.479,0-2.165-.006-.042.027-.223,0-.265.098.154-.642.588-.223.597.179.004.586-.338.729-.421.689-.398,1.378-.796,2.068-1.194,3.704-2.138,7.407-4.277,11.111-6.415.794-.458.856-.772,1.571-.359l2.141,1.236,7.474,4.315c4.518,2.608,9.036,5.217,13.553,7.825,2.01,1.161,3.825-1.949,1.817-3.108Z"></path></g><path class="as" d="M235.441,22.438v2.511c0-1.533-.793-2.946-2.109-3.717.707.402,1.413.804,2.109,1.207Z"></path><path class="as" d="M197.299.415c1.446.837,2.902,1.674,4.348,2.511-2.663-1.544-5.957-1.554-8.641-.022,1.435-.837,2.859-1.663,4.294-2.489Z"></path><path class="as" d="M159.386,23.448c-.174.478-.272.989-.272,1.522v-2.511c.696-.402,1.391-.804,2.098-1.207-.848.511-1.489,1.283-1.826,2.196Z"></path><path class="ar" d="M234.536,60.395c-9.875,5.704-19.749,11.407-29.623,17.112-2.041,1.179-4.258,2.92-6.64,3.206-2.661.32-4.783-1.187-6.97-2.45-4.816-2.782-9.632-5.563-14.448-8.345-5.561-3.212-11.121-6.424-16.681-9.637-2.01-1.161-3.824,1.948-1.817,3.108,10.123,5.85,20.248,11.698,30.373,17.545,2.384,1.377,4.704,2.994,7.502,3.33,3.105.374,5.636-.841,8.243-2.347,4.836-2.795,9.673-5.589,14.51-8.383,5.789-3.344,11.578-6.688,17.367-10.032,2.006-1.158.195-4.271-1.817-3.108h0Z"></path><path class="ar" d="M234.536,43.884c-9.875,5.704-19.749,11.407-29.623,17.112-2.041,1.179-4.258,2.92-6.64,3.206-2.661.32-4.783-1.187-6.97-2.45-4.816-2.782-9.632-5.563-14.448-8.345-5.561-3.212-11.121-6.424-16.681-9.637-2.01-1.161-3.824,1.948-1.817,3.108,10.123,5.85,20.248,11.698,30.373,17.545,2.384,1.377,4.704,2.994,7.502,3.33,3.105.374,5.636-.841,8.243-2.347,4.836-2.795,9.673-5.589,14.51-8.383,5.789-3.344,11.578-6.688,17.367-10.032,2.006-1.158.195-4.271-1.817-3.108h0Z"></path><path class="ar" d="M234.536,93.004c-9.875,5.704-19.749,11.407-29.623,17.112-2.041,1.179-4.258,2.92-6.64,3.206-2.661.32-4.783-1.187-6.97-2.45-4.816-2.782-9.632-5.563-14.448-8.345-5.561-3.212-11.121-6.424-16.681-9.637-2.01-1.161-3.824,1.948-1.817,3.108,10.123,5.85,20.248,11.698,30.373,17.545,2.384,1.377,4.704,2.994,7.502,3.33,3.105.374,5.636-.841,8.243-2.347,4.836-2.795,9.673-5.589,14.51-8.383,5.789-3.344,11.578-6.688,17.367-10.032,2.006-1.158.195-4.271-1.817-3.108h0Z"></path><path class="ar" d="M234.536,76.493c-9.875,5.704-19.749,11.407-29.623,17.112-2.041,1.179-4.258,2.92-6.64,3.206-2.661.32-4.783-1.187-6.97-2.45-4.816-2.782-9.632-5.563-14.448-8.345-5.561-3.212-11.121-6.424-16.681-9.637-2.01-1.161-3.824,1.948-1.817,3.108,10.123,5.85,20.248,11.698,30.373,17.545,2.384,1.377,4.704,2.994,7.502,3.33,3.105.374,5.636-.841,8.243-2.347,4.836-2.795,9.673-5.589,14.51-8.383,5.789-3.344,11.578-6.688,17.367-10.032,2.006-1.158.195-4.271-1.817-3.108h0Z"></path><path class="ar" d="M167.595,29.469c4.425,2.555,8.849,5.11,13.274,7.664,2.182,1.26,4.364,2.519,6.546,3.779,1.997,1.153,3.992,2.55,6.151,3.379,2.083.799,4.45.889,6.593.268,1.721-.498,3.245-1.519,4.784-2.407,3.476-2.006,6.953-4.013,10.429-6.02,4.484-2.589,8.969-5.178,13.453-7.767,2.006-1.158.195-4.27-1.817-3.108-7.226,4.173-14.452,8.344-21.678,12.515-2.912,1.681-6.061,4.265-9.625,3.423-2.095-.495-4.022-1.977-5.868-3.042-2.039-1.177-4.078-2.354-6.117-3.531-4.769-2.753-9.539-5.507-14.308-8.261-2.01-1.161-3.825,1.949-1.817,3.108h0Z"></path><path class="ar" d="M160.942,24.352c.823-1.941,3.273-2.759,5.006-3.76,2.098-1.212,4.196-2.423,6.294-3.634,4.271-2.465,8.542-4.93,12.813-7.395,2.217-1.279,4.433-2.558,6.65-3.838,1.928-1.113,3.691-2.281,6.007-2.154,2.329.128,4.305,1.645,6.259,2.773,2.21,1.275,4.419,2.551,6.629,3.826,4.252,2.454,8.503,4.907,12.755,7.361,2.085,1.204,4.171,2.408,6.256,3.612,1.42.82,3.749,1.579,4.022,3.448.166,1.14.014,2.405.014,3.557,0,1.276,0,2.552,0,3.828,0,2.358,0,4.716,0,7.074,0,4.22,0,8.44,0,12.66,0,12.177,0,24.354-.001,36.53,0,6.749,0,13.497,0,20.246,0,1.22.247,2.797-.112,3.963-.481,1.564-2.555,2.269-3.859,3.024-1.621.938-3.241,1.875-4.862,2.812-6.682,3.863-13.365,7.723-20.049,11.582-2.912,1.681-5.852,3.997-9.404,2.963-2.133-.621-4.157-2.179-6.071-3.283-2.112-1.219-4.224-2.438-6.336-3.658-4.279-2.47-8.558-4.941-12.837-7.412-2.211-1.277-4.422-2.553-6.632-3.83-1.293-.747-2.485-1.317-2.57-2.963-.219-4.227,0-8.524,0-12.754V25.646c0-.621.008-1.096.212-1.724.717-2.209-2.758-3.155-3.471-.957-.518,1.596-.341,3.432-.341,5.091v67.424c0,5.313-.052,10.629,0,15.941.019,1.964.739,3.796,2.301,5.047,1.938,1.552,4.401,2.644,6.55,3.885,2.269,1.31,4.538,2.621,6.807,3.931,4.361,2.518,8.722,5.036,13.084,7.554,4.018,2.319,8.046,5.503,12.95,4.723,3.36-.535,6.512-2.971,9.414-4.647,3.392-1.958,6.783-3.917,10.174-5.876,3.613-2.087,7.225-4.175,10.837-6.264,3.227-1.866,7.479-3.43,7.801-7.704.203-2.697.014-5.48.014-8.184,0-3.527,0-7.054,0-10.581,0-11.382,0-22.764.001-34.146,0-8.67,0-17.34,0-26.01,0-2.567.016-5.135,0-7.702-.013-2.151-.709-4.086-2.477-5.412-1.872-1.404-4.119-2.446-6.145-3.616-2.181-1.259-4.361-2.518-6.542-3.777-4.431-2.557-8.862-5.114-13.293-7.672-4.167-2.405-8.311-5.701-13.395-4.822-2.345.406-4.345,1.8-6.369,2.968-2.285,1.319-4.57,2.637-6.855,3.956-4.463,2.576-8.926,5.151-13.388,7.727-2.016,1.164-4.032,2.328-6.048,3.492-1.936,1.118-3.981,2.071-4.903,4.246-.382.902-.263,1.918.646,2.463.751.45,2.084.248,2.463-.646Z"></path><path class="ar" d="M186.369,333.815c0,4.31.01,8.62.01,12.93,0,.973.827,1.8,1.8,1.8s1.8-.824,1.8-1.8c0-4.31-.01-8.62-.01-12.93,0-.973-.827-1.8-1.8-1.8s-1.8.824-1.8,1.8h0Z"></path><path class="ar" d="M175.361,349.49c1.506.864,3.012,1.727,4.519,2.59.774.443,1.574,1.027,2.427,1.299.531.169,1.173.169,1.704,0,.493-.157.929-.448,1.376-.699.822-.461,1.166-1.655.646-2.463-.536-.831-1.584-1.139-2.463-.646-.174.098-.346.198-.519.297-.083.048-.167.096-.251.143l.193-.083c.271-.019.305-.026.102-.022.152-.009.292.026.422.105-.108-.002-.299-.171-.402-.229-.655-.374-1.31-.749-1.964-1.123-1.325-.758-2.649-1.518-3.974-2.277-.817-.469-2.006-.218-2.463.646-.453.857-.227,1.962.646,2.463h0Z"></path><path class="ar" d="M131.88,320.472c12.94,7.508,25.877,15.021,38.849,22.474,2.012,1.156,3.828-1.953,1.817-3.108-12.972-7.453-25.909-14.966-38.849-22.474-2.008-1.165-3.822,1.945-1.817,3.108h0Z"></path><path class="ar" d="M158.252,347.2c4.799-5.693,9.627-11.36,14.424-17.055.626-.743.729-1.817,0-2.546-.643-.643-1.916-.747-2.546,0-4.797,5.694-9.625,11.362-14.424,17.055-.626.743-.728,1.817,0,2.546.643.643,1.916.747,2.546,0h0Z"></path><path class="ar" d="M145.893,340.058c4.839-5.665,9.615-11.384,14.435-17.066.628-.741.727-1.819,0-2.546-.645-.645-1.914-.745-2.546,0-4.82,5.681-9.596,11.401-14.435,17.066-.631.739-.725,1.82,0,2.546.647.647,1.911.742,2.546,0h0Z"></path><path class="ar" d="M133.219,332.721c4.817-5.688,9.62-11.387,14.435-17.076.628-.742.728-1.818,0-2.546-.644-.644-1.915-.745-2.546,0-4.815,5.689-9.618,11.388-14.435,17.076-.628.741-.727,1.818,0,2.546.644.644,1.915.745,2.546,0h0Z"></path><path class="ar" d="M140.62,298.845c-.208-.121-.416-.241-.624-.362-.641-.372-1.672-.323-2.181.281-8.673,10.298-17.367,20.579-26.067,30.855-.737.871-.704,2.207.364,2.827,13.638,7.918,27.264,15.858,40.928,23.731,3.735,2.152,7.472,4.299,11.216,6.436.646.369,1.668.324,2.181-.281,8.706-10.286,17.407-20.576,26.081-30.889.729-.867.713-2.213-.364-2.827-13.638-7.781-27.22-15.661-40.801-23.541-3.578-2.076-7.156-4.153-10.734-6.23-2.008-1.165-3.822,1.945-1.817,3.108,13.517,7.845,27.03,15.698,40.577,23.491,3.649,2.099,7.301,4.194,10.958,6.28l-.364-2.827c-8.674,10.313-17.375,20.603-26.081,30.889l2.181-.281c-13.745-7.849-27.428-15.806-41.113-23.759-3.677-2.136-7.353-4.273-11.031-6.408l.364,2.827c8.7-10.276,17.393-20.557,26.067-30.855l-2.181.281c.208.121.416.241.624.362,2.008,1.165,3.822-1.945,1.817-3.108Z"></path><path class="ar" d="M245.279,368.895c0,4.062.006,8.125.009,12.187,0,.304,0,.608,0,.912,0,.114-.023.252,0,.363-.067-.316.84-1.058.029-.59-1,.577-2.001,1.153-3.005,1.723-.268.152-.989.335-.238.346.782.011-.034-.22-.295-.368-.531-.302-1.062-.605-1.593-.909-1.131-.648-2.259-1.298-3.389-1.948-2.012-1.157-3.827,1.952-1.817,3.108,1.263.726,2.524,1.454,3.789,2.177,1.235.706,2.608,1.788,4.117,1.32,1.262-.391,2.499-1.333,3.638-1.989.565-.325,1.254-.619,1.71-1.094.512-.532.634-1.182.655-1.89.129-4.441-.01-8.906-.01-13.349,0-2.316-3.6-2.32-3.6,0h0Z"></path><path class="ar" d="M191.28,354.969c12.94,7.508,25.877,15.021,38.849,22.474,2.012,1.156,3.828-1.953,1.817-3.108-12.972-7.453-25.909-14.966-38.849-22.474-2.008-1.165-3.822,1.945-1.817,3.108h0Z"></path><path class="ar" d="M217.652,381.697c4.799-5.693,9.627-11.36,14.424-17.055.626-.743.729-1.817,0-2.546-.643-.643-1.916-.747-2.546,0-4.797,5.694-9.625,11.362-14.424,17.055-.626.743-.728,1.817,0,2.546.643.643,1.916.747,2.546,0h0Z"></path><path class="ar" d="M205.293,374.555c4.839-5.665,9.615-11.384,14.435-17.066.628-.741.727-1.819,0-2.546-.645-.645-1.914-.745-2.546,0-4.82,5.681-9.596,11.401-14.435,17.066-.631.739-.725,1.82,0,2.546.647.647,1.911.742,2.546,0h0Z"></path><path class="ar" d="M192.619,367.218c4.817-5.688,9.62-11.387,14.435-17.076.628-.742.728-1.818,0-2.546-.644-.644-1.915-.745-2.546,0-4.815,5.689-9.618,11.388-14.435,17.076-.628.741-.727,1.818,0,2.546.644.644,1.915.745,2.546,0h0Z"></path><path class="ar" d="M200.02,333.342c-.208-.121-.416-.241-.624-.362-.641-.372-1.672-.323-2.181.281-8.673,10.298-17.367,20.579-26.067,30.855-.737.871-.704,2.207.364,2.827,13.638,7.918,27.264,15.858,40.928,23.731,3.735,2.152,7.472,4.299,11.216,6.436.646.369,1.668.324,2.181-.281,8.706-10.286,17.407-20.576,26.081-30.889.729-.867.713-2.213-.364-2.827-13.638-7.781-27.22-15.661-40.801-23.541-3.578-2.076-7.156-4.153-10.734-6.23-2.008-1.165-3.822,1.945-1.817,3.108,13.517,7.845,27.03,15.698,40.577,23.491,3.649,2.099,7.301,4.194,10.958,6.28l-.364-2.827c-8.674,10.313-17.375,20.603-26.081,30.889l2.181-.281c-13.745-7.849-27.428-15.806-41.113-23.759-3.677-2.136-7.353-4.273-11.031-6.408l.364,2.827c8.7-10.276,17.393-20.557,26.067-30.855l-2.181.281c.208.121.416.241.624.362,2.008,1.165,3.822-1.945,1.817-3.108Z"></path><path class="ar" d="M358.179,68.565c.019.223.019.442.02.666,0,.093.002.188-.006.281.035-.414-.179.315-.028.03-.029.055-.256.401-.134.246-.125.159-.282.31-.436.44-.28.236-.698.467-1.061.646-1.39.682-3.145.855-4.825.652-1.245-.151-3.096-.715-3.87-1.801.085.119-.209-.396-.121-.199.09.203-.098-.425-.053-.153.032.19.004-.285.005-.375,0-.053.002-.108,0-.162-.012-.306-.018.001-.01.005-.047-.026.027-.143.102-.271.045-.077.092-.158.146-.229-.03.039-.113.14.026-.011.298-.324.61-.547.995-.771,1.752-1.018,3.882-1.234,5.803-.819.949.205,1.947-.283,2.214-1.257.247-.898-.303-2.008-1.257-2.214-2.762-.597-5.639-.332-8.172.961-2.298,1.174-4.065,3.479-3.295,6.163.709,2.471,3.431,3.917,5.767,4.457,2.433.562,5.129.47,7.456-.472,2.509-1.015,4.585-2.921,4.334-5.814-.084-.969-.767-1.8-1.8-1.8-.909,0-1.884.826-1.8,1.8h0Z"></path><path class="ar" d="M380.288,66.711c1.736-.322,3.676-.131,5.25.693.721.378,1.377.786,1.623,1.407-.112-.282-.005.23-.038-.132.009.1.005.201.006.302.001.108-.005.217,0,.325.002.042-.034.278.004.066.04-.226-.038.104-.056.141-.09.185.008-.032.02-.054-.042.075-.081.154-.133.223-.118.158-.015.032.009.002-.061.076-.131.146-.199.216-.305.311-.609.52-.993.742-.677.391-1.276.59-2.164.776-1.493.312-3.192.217-4.733-.301-.666-.224-1.683-.744-2.096-1.304.053.072-.233-.473-.112-.157-.03-.077-.047-.157-.071-.236-.076-.256.002.266-.003.005-.006-.314-.009-.626.027-.939.112-.967-.907-1.8-1.8-1.8-1.066,0-1.688.83-1.8,1.8-.655,5.681,6.827,7.163,11.03,6.497,2.295-.364,5.005-1.559,6.147-3.707.492-.926.613-1.965.468-2.992-.196-1.388-1.094-2.458-2.188-3.273-2.599-1.937-6.039-2.348-9.155-1.771-.956.177-1.499,1.334-1.257,2.214.276,1.004,1.255,1.435,2.214,1.257h0Z"></path><path class="ar" d="M378.251,55.841c2.666.769,5.655.698,8.228-.37,1.341-.557,2.598-1.356,3.43-2.574.729-1.067.906-2.411.673-3.667-.501-2.702-3.507-4.231-5.936-4.795-2.711-.629-5.574-.342-8.082.869-1.433.692-2.745,1.757-3.345,3.265-.514,1.293-.329,2.851.336,4.046,1.128,2.024,4.238.211,3.108-1.817-.16-.288-.141-.274-.124-.567.006-.104,0-.21.003-.315.007-.212-.006.054-.013.081.028-.105.052-.215.096-.315-.115.264.101-.121.153-.188-.123.16.265-.251.323-.302.304-.263.707-.489,1.083-.682,1.44-.738,3.323-.969,4.855-.732.87.135,1.767.403,2.472.765.358.184.781.435,1.026.658.091.083.335.342.328.333-.056-.075.244.47.121.167.042.103.068.214.094.323-.007-.03-.02-.283-.014-.07.004.144.002.289.003.433,0,.088.002.18-.006.268.003-.035.058-.283,0-.081-.023.079-.041.16-.071.237.094-.244-.024.023-.09.115-.113.16-.023.048.002.016-.062.079-.136.151-.206.223-.111.113-.206.206-.315.29-.379.294-.887.561-1.295.724-1.86.743-3.975.741-5.882.192-2.23-.643-3.183,2.83-.957,3.471h0Z"></path><path class="ar" d="M361.253,52.564c.589-1.069.792-2.402.467-3.599-.382-1.407-1.51-2.467-2.708-3.219-2.382-1.494-5.345-1.856-8.081-1.437-2.594.396-5.828,1.812-6.632,4.555-.78,2.66.86,5.054,3.192,6.23,2.806,1.415,6.214,1.607,9.207.697,2.21-.672,1.268-4.148-.957-3.471-1.734.527-3.573.582-5.326.08-.769-.22-1.568-.546-2.172-1.094-.069-.063-.403-.45-.303-.306-.055-.079-.237-.457-.135-.189-.05-.134-.091-.467-.069-.149-.011-.161-.007-.326-.006-.488.001-.106-.006-.215.007-.32-.005.042-.045.254.012.052.078-.279-.117.199.015-.073.183-.377.332-.532.7-.808.716-.537,1.49-.807,2.339-1.026,1.729-.447,3.523-.358,5.246.273.359.131.845.384,1.255.651.172.111.319.22.468.357.076.07.149.145.22.221.216.229-.086-.152.08.085.068.097.127.199.18.305.132.259-.089-.228-.001.032.066.194.008-.054.005-.092.006.062.007.128.006.19-.007.318.036.453-.114.726-1.119,2.03,1.989,3.849,3.108,1.817h0Z"></path><g id="ab"><path class="ar" d="M358.668,53.758c-.472-.405-1.656-1.052-1.762-1.676v.957c-.223.181-.159.18.192-.002.182-.034.366-.045.552-.033.504.02,1.007.191,1.48.352.839.286,1.649.66,2.477.976,1.783.681,3.602,1.144,5.524,1.16,2.017.016,4.048-.395,5.942-1.069.911-.324,1.788-.739,2.703-1.051.474-.161.979-.335,1.484-.35.193-.011.384.003.572.045.349.163.419.179.21.048v-.957c-.11.655-1.629,1.512-2.112,1.972-.825.787-1.55,1.696-1.937,2.779-.867,2.425.485,4.376,2.258,5.909.385.333.788.643,1.173.974.043.037.428.457.53.485.248.069.122.323.058-.157.067.499,0,1.049,0,1.552,0,.575-.074,1.213,0,1.784,0-.006-.014.196,0,.217v.058c.336-.514.347-.687.032-.518-.071-.022-.432.086-.539.092-.367.021-.72-.074-1.07-.17-2.034-.555-3.871-1.649-5.962-2.043-2.435-.46-4.955-.284-7.334.397-1.03.295-2.023.692-3.014,1.095-.554.225-1.116.454-1.701.59-.162.038-1.626-.02-1.594-.053.05-.052.083.903.174.259.038-.269,0-.573,0-.843v-2.009c0-.251.113-.625-.037-.325-.25.5.369-.241.343-.216.221-.213.471-.397.708-.592.971-.796,1.956-1.673,2.569-2.788,1.487-2.703.192-5.021-1.921-6.85-1.744-1.509-4.302,1.027-2.546,2.546.469.406,1.415,1.034,1.538,1.709.127.698-.568,1.37-1.015,1.809-1.269,1.244-3.113,2.196-3.24,4.174-.11,1.704-.417,4.487.939,5.75,3.059,2.85,7.419-.287,10.662-1.015,1.822-.409,3.71-.43,5.515.07,1.699.471,3.261,1.345,4.958,1.808,1.799.491,4.105.463,5.435-1.062.798-.914.698-2.038.698-3.16,0-.904.119-1.9-.064-2.793-.362-1.76-2.122-2.701-3.34-3.84-.462-.432-1.003-.886-.852-1.566.174-.782,1.001-1.42,1.57-1.917,1.311-1.146,3.102-2.38,2.539-4.402-.545-1.956-3.001-2.602-4.773-2.392-1.921.227-3.621,1.206-5.451,1.768-1.966.604-4.089.876-6.118.433-1.889-.413-3.579-1.371-5.419-1.918-1.983-.59-4.822-.553-5.98,1.499-1.228,2.176.95,3.802,2.399,5.045,1.75,1.502,4.307-1.034,2.546-2.546Z"></path></g><g id="ac"><path class="ar" d="M367.082,58.48l.002-.023-.064.479c.003-.016.007-.032.014-.046l-.181.43c.008-.016.017-.032.028-.046l-.281.364c.022-.025.043-.046.069-.068l-.364.281c.072-.053.15-.093.232-.128l-.43.181c.234-.093.478-.149.727-.185l-.479.064c.386-.051.775-.051,1.161-.003l-.479-.064c.265.037.528.093.776.194l-.43-.181c.071.032.137.067.2.113l-.364-.281c.028.023.052.045.075.073l-.281-.364c.012.015.023.032.031.05l-.181-.43c.008.016.013.033.016.051l-.064-.479c.003.016.003.032,0,.049l.064-.479c-.002.016-.007.031-.013.046l.181-.43c-.007.016-.016.032-.027.046l.281-.364c-.021.025-.041.046-.066.068l.364-.281c-.07.054-.146.093-.226.129l.43-.181c-.221.089-.452.141-.687.176l.479-.064c-.415.055-.835.056-1.25.003l.479.064c-.243-.034-.48-.087-.709-.178l.43.181c-.084-.037-.164-.077-.238-.132l.364.281c-.026-.022-.048-.043-.07-.069l.281.364c-.011-.014-.021-.03-.029-.047l.181.43c-.007-.015-.012-.031-.014-.047l.064.479-.002-.024c-.037-.483-.176-.922-.527-1.273-.312-.312-.824-.547-1.273-.527-.466.021-.948.174-1.273.527-.309.337-.563.8-.527,1.273.04.531.199,1.032.592,1.413.188.183.411.352.653.459.256.114.514.23.788.295.279.067.573.097.855.132.303.037.609.047.913.026.438-.029.895-.077,1.316-.213.762-.245,1.527-.727,1.737-1.559.095-.374.093-.729-.003-1.102-.136-.528-.532-.953-.985-1.234-.364-.226-.821-.371-1.248-.438-.47-.074-.941-.137-1.417-.109-.495.029-1.015.09-1.484.261-.41.15-.774.312-1.09.623-.134.131-.261.297-.359.455-.2.321-.24.621-.268.99-.034.439.225.97.527,1.273.312.312.824.547,1.273.527.466-.021.948-.174,1.273-.527l.281-.364c.163-.281.245-.584.246-.908Z"></path></g><path class="ar" d="M365.505,68.332v12.202c0,.973.827,1.8,1.8,1.8s1.8-.824,1.8-1.8v-12.202c0-.973-.827-1.8-1.8-1.8s-1.8.824-1.8,1.8h0Z"></path><path class="ar" d="M174.096,146.232l16.178,9.341c.434-.25.86-.496,1.266-.731,2.297-1.326,4.929-1.663,7.455-1.163-5.304-3.062-10.608-6.124-15.911-9.186-7.026-4.056-14.051-8.113-21.077-12.169-3.312-1.912-6.603-3.87-9.94-5.739-.141-.079-.279-.161-.419-.242-3.35-1.934-6.375,3.249-3.028,5.181,2.278,1.315,4.555,2.63,6.833,3.945,6.214,3.588,12.428,7.175,18.643,10.763Z"></path><path class="ar" d="M418.499,280.408c-3.367-1.944-6.733-3.887-10.1-5.831-7.067-4.08-14.134-8.16-21.201-12.24-9.806-5.661-19.612-11.323-29.418-16.984-11.642-6.721-23.284-13.443-34.925-20.164-12.598-7.273-25.195-14.547-37.793-21.82-12.592-7.27-25.184-14.54-37.775-21.81-9.227-5.327-18.453-10.654-27.68-15.981.603.818,1.01,1.764,1.151,2.859.118,1.049.224,2.839.305,4.911,4.796,2.769,9.592,5.538,14.388,8.307,12.451,7.189,24.903,14.377,37.354,21.566,12.681,7.321,25.363,14.643,38.044,21.964,11.948,6.898,23.896,13.797,35.845,20.695,10.335,5.967,20.67,11.934,31.005,17.901,7.822,4.516,15.643,9.032,23.465,13.547,4.345,2.509,8.69,5.017,13.035,7.526.424.245.848.49,1.273.735,3.35,1.934,6.375-3.249,3.028-5.181Z"></path><g id="ad"><path class="ar" d="M159.864,183.933c2.7,1.559,5.399,3.117,8.099,4.676.386.223.773.446,1.159.669.816.471,2.007.217,2.463-.646s.225-1.96-.646-2.463c-2.7-1.559-5.399-3.117-8.099-4.676-.386-.223-.773-.446-1.159-.669-.816-.471-2.007-.217-2.463.646s-.225,1.96.646,2.463h0Z"></path></g><g id="ae"><path class="ar" d="M178.013,193.207c4.815-2.78,9.63-5.56,14.444-8.34,7.72-4.457,15.439-8.914,23.159-13.371,1.769-1.022,3.539-2.043,5.308-3.065,2.006-1.158.195-4.27-1.817-3.108-4.815,2.78-9.63,5.56-14.444,8.34-7.72,4.457-15.439,8.914-23.159,13.371-1.769,1.022-3.539,2.043-5.308,3.065-2.006,1.158-.195,4.27,1.817,3.108h0Z"></path></g><g id="af"><path class="ar" d="M175.421,203.422c-.137.015-.292-.01-.425.016,1.191-.231,1.183,1.912,1.173.891-.001-.134-.002-.267-.003-.401-.004-.602-.004-1.204,0-1.805.011-1.246.04-2.492.113-3.735.032-.537.071-1.074.126-1.609.016-.154.033-.307.051-.46.036-.306-.039.247.005-.041.037-.238.074-.475.128-.709.136-.597.266-.948.556-1.438.233-.393.582-.758.85-.924,1.967-1.216.161-4.332-1.817-3.108-3.016,1.865-3.359,5.507-3.522,8.716-.081,1.601-.1,3.204-.093,4.807.004.873-.06,1.794.522,2.515.564.699,1.454.984,2.335.886.966-.107,1.8-.751,1.8-1.8,0-.89-.828-1.908-1.8-1.8h0Z"></path></g><g id="ag"><path class="ar" d="M218.967,178.153c-4.982,2.87-9.965,5.739-14.947,8.609-7.907,4.554-15.814,9.109-23.722,13.663-1.833,1.056-3.666,2.112-5.5,3.168-2.007,1.156-.196,4.268,1.817,3.108,4.982-2.87,9.965-5.739,14.947-8.609,7.907-4.554,15.814-9.109,23.722-13.663,1.833-1.056,3.666-2.112,5.5-3.168,2.007-1.156.196-4.268-1.817-3.108h0Z"></path></g><path class="ar" d="M188.895,186.02v7.727c0,.942.828,1.844,1.8,1.8s1.8-.791,1.8-1.8v-7.727c0-.942-.828-1.844-1.8-1.8s-1.8.791-1.8,1.8h0Z"></path><path class="ar" d="M205.03,176.509v7.727c0,.942.828,1.844,1.8,1.8s1.8-.791,1.8-1.8v-7.727c0-.942-.828-1.844-1.8-1.8s-1.8.791-1.8,1.8h0Z"></path><path class="ar" d="M217.355,169.069v8.474c0,.942.828,1.844,1.8,1.8s1.8-.791,1.8-1.8v-8.474c0-.942-.828-1.844-1.8-1.8s-1.8.791-1.8,1.8h0Z"></path><path class="ar" d="M214.872,187.704c.831-.59,1.677-1.171,2.619-1.573l-.43.181c.448-.185.909-.322,1.389-.391l-.479.064c.227-.028.454-.04.683-.036l-1.736-1.321c.139.461.279.921.418,1.382.272.9,1.273,1.562,2.214,1.257.909-.294,1.549-1.249,1.257-2.214-.139-.461-.279-.921-.418-1.382-.233-.772-.928-1.307-1.736-1.321-2.109-.038-3.939,1.068-5.599,2.246-.391.277-.696.6-.827,1.076-.119.431-.065,1.005.181,1.387.248.384.617.723,1.076.827.448.102.997.096,1.387-.181h0Z"></path><path class="ar" d="M333.209,280.495c0-10.878-.006-21.756-.01-32.634,0-1.741-.062-3.292-1.437-4.6-2.179-2.072-5.674-2.456-8.495-1.812-2.528.577-4.862,2.238-4.958,5.002-.059,1.671.002,3.355.003,5.027.004,7.499.007,14.998.007,22.497,0,2.316,3.6,2.32,3.6,0,0-6.368-.002-12.737-.006-19.105-.001-2.104-.002-4.208-.003-6.313,0-1.072-.343-2.298.628-2.973,1.018-.707,2.437-.875,3.641-.809.979.053,2.646.317,3.241,1.236.415.64.179,1.815.179,2.559.002,4.303.004,8.605.005,12.908.002,6.339.004,12.679.004,19.018,0,2.316,3.6,2.32,3.6,0h0Z"></path><path class="ar" d="M341.577,308.913c0-7.079-.007-14.159-.01-21.238-.005-9.05-.01-18.1-.013-27.151,0-.93-.143-1.988,0-2.909.131-.85,1.185-1.224,1.942-1.434,1.621-.45,3.87-.409,5.25.695.74.592.492,1.627.493,2.493,0,1.477.001,2.953.002,4.43.005,9.697.01,19.394.015,29.092.002,4.058.004,8.117.006,12.175,0,1.116.001,2.232.001,3.348,0,2.054-3.314,2.202-4.812,2.003-.645-.086-2.874-.528-2.874-1.504,0-2.316-3.6-2.32-3.6,0,0,4.069,5.286,5.432,8.502,5.102,3.009-.309,6.331-1.904,6.383-5.319.046-2.999-.003-6.003-.004-9.003-.005-10.595-.011-21.191-.017-31.786-.002-3.289-.004-6.578-.004-9.866,0-3.075-2.463-4.947-5.334-5.494-3.252-.62-8.688.208-9.471,4.173-.218,1.102-.079,2.344-.079,3.459,0,1.774.002,3.548.002,5.321.002,5.195.005,10.39.008,15.586.005,8.947.01,17.894.013,26.841,0,.329,0,.658,0,.986,0,2.316,3.6,2.32,3.6,0Z"></path><path class="ar" d="M287.993,327.487c3.866-4.452,7.775-8.866,11.731-13.238,2.005-2.216,4.021-4.422,6.049-6.617.932-1.009,1.866-2.015,2.802-3.019.496-.532.992-1.063,1.489-1.593.221-.236.442-.471.663-.707.137-.146.968-.867.996-1.059l-1.188-.522v.482c-.049.277,0,.662.001.955,0,.77.001,1.541.001,2.311,0,1.239.001,2.477.002,3.716,0,1.032-.148,2.207.38,3.142.561.993,1.737,1.55,2.854,1.404,1.247-.164,1.919-1.078,2.7-1.968,1.022-1.165,2.046-2.326,3.074-3.485,2.002-2.257,4.015-4.503,6.041-6.739,4.489-4.955,9.037-9.855,13.637-14.707,1.594-1.681-.948-4.231-2.546-2.546-4.095,4.319-8.149,8.677-12.156,13.078-2.031,2.23-4.051,4.471-6.058,6.723-.922,1.035-1.842,2.071-2.759,3.11-.486.55-.971,1.101-1.455,1.652-.215.245-.43.49-.645.735-.161.184-.322.368-.483.552-.468.416-.129.666,1.018.752.148-.228,0-1.066,0-1.339,0-.643,0-1.286,0-1.929,0-1.33-.001-2.661-.002-3.991,0-1.187.182-2.52-.527-3.549-.666-.967-1.91-1.457-3.058-1.162-1.169.3-1.914,1.351-2.702,2.191-1.05,1.119-2.097,2.241-3.141,3.366-2.033,2.19-4.055,4.391-6.065,6.602-4.455,4.9-8.853,9.853-13.196,14.854-1.513,1.742,1.023,4.299,2.546,2.546h0Z"></path><path class="ar" d="M278.05,280.195c9.013,5.205,18.027,10.409,27.04,15.613,2.01,1.161,3.825-1.949,1.817-3.108-9.014-5.204-18.027-10.408-27.04-15.613-2.01-1.161-3.825,1.949-1.817,3.108h0Z"></path><path class="ar" d="M286.55,362.311c-11.218-6.477-22.436-12.953-33.653-19.43-.643-.371-1.286-.743-1.929-1.114-.492-.284-1.815-.782-2.142-1.237-.132-.183-.152-.232-.194-.436-.085-.412,0-.933,0-1.351v-6.418c0-6.202,0-12.404,0-18.606v-7.391c0-.881-.274-2.251.061-3.096.273-.689,1.237-1.432,1.715-1.978.59-.674,1.182-1.347,1.774-2.018,1.185-1.343,2.375-2.683,3.57-4.018,2.389-2.67,4.797-5.323,7.223-7.96s4.871-5.255,7.334-7.857c.56-.591,1.114-1.188,1.682-1.771.61-.626.659-.55,1.424-.109,1.543.891,3.087,1.782,4.63,2.673.658.38,1.653.311,2.181-.281,2.607-2.927,5.237-5.834,7.888-8.721,1.326-1.444,2.656-2.882,3.992-4.317.557-.598,1.114-1.195,1.673-1.791.335-.358.67-.715,1.006-1.072.357-.38.88-1.204,1.344-1.428.622-.299,1.193.298,1.768.63.712.411,1.425.823,2.137,1.234,1.853,1.07,3.707,2.141,5.56,3.211,3.282,1.896,6.565,3.791,9.847,5.687,3.425,1.978,6.849,3.955,10.274,5.933,1.639.946,3.278,1.893,4.918,2.839.783.452,1.567.904,2.35,1.356.427.246.854.493,1.281.739.43.248,1.417.591,1.707.985.295.402.19.977.19,1.485,0,.876,0,1.753,0,2.629,0,2.2,0,4.4,0,6.6,0,6.555,0,13.111,0,19.666,0,3.784,0,7.569,0,11.353,0,1.907,0,3.814,0,5.721,0,.633.14.995-.311,1.389-.22.192-.554.32-.805.465-7.433,4.292-14.866,8.584-22.299,12.876-4.917,2.839-9.833,5.678-14.75,8.517-2.144,1.238-4.287,2.475-6.431,3.713-.872.503-1.744,1.007-2.615,1.51-.447.258-1.903,1.422-2.399,1.19-2.087-.974-3.917,2.129-1.817,3.108,2.57,1.199,4.533-.323,6.702-1.576,1.873-1.081,3.746-2.163,5.619-3.244,4.549-2.626,9.097-5.253,13.646-7.879,8.392-4.846,16.784-9.691,25.175-14.537,2.01-1.161,3.821-2.15,3.885-4.783.103-4.191,0-8.397,0-12.59,0-7.367,0-14.734,0-22.102,0-4.346.16-8.726,0-13.069-.06-1.63-.803-2.831-2.186-3.675-1.752-1.069-3.561-2.055-5.339-3.081-3.637-2.099-7.273-4.199-10.91-6.299-7.275-4.201-14.55-8.403-21.825-12.604-1.582-.914-3.202-1.632-4.967-.667-.849.465-1.475,1.279-2.127,1.971-.727.774-1.454,1.549-2.178,2.325-2.842,3.044-5.662,6.109-8.456,9.197-1.37,1.514-2.734,3.033-4.092,4.558l2.181-.281c-1.342-.775-2.684-1.55-4.027-2.325-1.376-.794-2.702-1.545-4.339-1.066-1.445.423-2.404,1.761-3.396,2.807-1.232,1.3-2.46,2.605-3.683,3.913-4.559,4.878-9.055,9.816-13.485,14.812-1.081,1.218-2.157,2.44-3.23,3.666-1.091,1.247-2.445,2.423-2.635,4.158-.045.414-.035.824-.035,1.24v6.007c0,6.543,0,13.085,0,19.628v7.67c0,1.549-.233,3.368.622,4.74.839,1.347,2.609,2.029,3.926,2.789,1.715.99,3.43,1.981,5.145,2.971,3.29,1.899,6.579,3.799,9.869,5.698,6.713,3.876,13.426,7.752,20.139,11.627,2.01,1.161,3.825-1.949,1.817-3.108Z"></path><path class="ar" d="M284.92,325.801c0,12.574,0,25.148,0,37.722,0,2.316,3.6,2.32,3.6,0,0-12.574,0-25.148,0-37.722,0-2.316-3.6-2.32-3.6,0h0Z"></path><path class="ar" d="M247.148,305.952c12.357,7.135,24.715,14.269,37.072,21.404,2.01,1.161,3.825-1.949,1.817-3.108-12.357-7.135-24.715-14.269-37.072-21.404-2.01-1.161-3.825,1.949-1.817,3.108h0Z"></path><path class="ar" d="M295.757,360.091c0-4.583,0-9.166-.001-13.749,0-.877,0-1.755,0-2.632,0-.937.157-2.029,0-2.95-.167-.977-.062-.296-.089-.272.084-.074.232-.148.333-.192,1.036-.453,2.022-1.168,3.001-1.732,3.26-1.882,6.52-3.764,9.78-5.647l3.83-2.211c.305-.176.676-.33.951-.549.037-.029.217-.088.231-.134.002-.007.028-.01.03-.017-.137.068-.255.059-.356-.028-.138-.384-.173-.294-.104.269-.26,1.987,0,4.198-.001,6.201,0,1.893,0,3.787,0,5.68,0,1.734,0,3.468,0,5.202,0,2.316,3.6,2.32,3.6,0,0-5.53,0-11.06.002-16.59,0-1.73-.348-3.445-2.193-4.088-.99-.345-1.957-.176-2.865.302-.919.484-1.806,1.043-2.705,1.562l-10.651,6.149-3.959,2.286c-.253.146-.519.281-.764.441-1.342.874-1.671,2.079-1.671,3.615.002,6.361.002,12.723.002,19.084,0,2.316,3.6,2.32,3.6,0h0Z"></path><path class="ar" d="M322.628,324.508c1.611-.93,3.222-1.86,4.832-2.79.804-.464,1.63-.903,2.417-1.396.024-.015.422-.209.147-.102-.28.109.089.062-.044.011-.085-.033-.221-.109-.3-.134l-.063-.112c.106.181.116.194.028.039-.031-.289-.019.075-.021.125-.009.281,0,.565,0,.846v5.129c0,.091-.076,1.211,0,1.244-.101-.044.158-.265.155-.273.008.021-1.131.654-1.206.698-.805.466-1.61.931-2.416,1.397s-1.611.931-2.416,1.396c-.362.209-.724.419-1.087.628-.065.038-.577.287-.267.171.166-.007.183-.01.053-.01-.135-.002-.113-.002.067,0,.073.058.182.131.256.19.06.105.042.075-.055-.089.051.066.078.14.08.223-.015-.389,0-.781,0-1.17,0-.879-.001-1.758-.002-2.637,0-.788-.001-1.577-.002-2.365,0-.339.006-.679,0-1.018-.008-.426.055-.14-.155,0,.807-.539,1.157-1.588.646-2.463-.469-.802-1.651-1.188-2.463-.646-1.006.672-1.573,1.61-1.629,2.829-.035.767.001,1.544.002,2.312,0,.928.001,1.856.002,2.784,0,1.006-.14,2.141.093,3.126.218.923.84,1.722,1.685,2.156,1.139.585,2.308.389,3.386-.214,2.028-1.136,4.027-2.327,6.039-3.49.888-.514,1.854-.961,2.392-1.884.325-.559.433-1.176.443-1.812.013-.838,0-1.678,0-2.516v-3.253c0-.718.067-1.484-.075-2.194-.226-1.128-1.05-2.043-2.131-2.426-1.273-.451-2.344.042-3.44.675-2.255,1.303-4.51,2.605-6.766,3.907-2.006,1.158-.195,4.27,1.817,3.108Z"></path><path class="ar" d="M315.731,80.3c2.664,1.536,5.326,3.075,7.988,4.615.973.563,1.823,1.039,2.062,2.225.273,1.356.039,2.987.039,4.371,0,5.416,0,10.832,0,16.248,0,7.482,0,14.963,0,22.445v11.858c0,1.07.135,2.248-.014,3.309-.275,1.96-3.028,2.868-4.528,3.736-2.055,1.19-4.111,2.379-6.167,3.568-7.569,4.376-15.14,8.748-22.713,13.115-2.045,1.179-3.803,1.177-5.844,0-1.492-.86-2.983-1.721-4.474-2.581-3.936-2.272-7.872-4.545-11.807-6.819-4.197-2.426-8.394-4.853-12.59-7.282-1.505-.872-4.247-1.766-4.527-3.736-.073-.515-.014-1.083-.015-1.604,0-3.246-.002-6.492-.003-9.738-.002-6.494-.004-12.988-.005-19.482,0-4.817-.001-9.633-.002-14.45,0-2.862,0-5.725,0-8.587,0-1.382-.236-3.02.039-4.371.24-1.175,1.09-1.664,2.058-2.225,2.655-1.538,5.315-3.069,7.971-4.605,2.005-1.16.194-4.272-1.817-3.108-2.792,1.615-5.606,3.198-8.381,4.843-2.554,1.514-3.471,3.654-3.471,6.554,0,5.874,0,11.748,0,17.622,0,7.995.002,15.989.004,23.984.001,4.084.003,8.168.004,12.252,0,1.737-.159,3.557.593,5.172,1.045,2.245,3.394,3.233,5.423,4.408,2.158,1.249,4.316,2.498,6.475,3.746,4.425,2.559,8.851,5.117,13.278,7.674,3.431,1.982,6.817,4.2,10.364,5.967,2.573,1.282,5.454,1.164,7.966-.194,1.528-.826,3.016-1.739,4.52-2.607,4.115-2.374,8.229-4.749,12.343-7.126,4.404-2.544,8.808-5.09,13.209-7.638,2.106-1.219,4.37-2.238,5.298-4.661.389-1.017.411-2.058.411-3.125v-55.476c0-2.905-.909-5.039-3.472-6.554-2.783-1.645-5.599-3.237-8.4-4.853-2.011-1.16-3.826,1.95-1.817,3.108h0Z"></path><path class="ar" d="M309.258,33.32c1.398.818,2.93,1.537,4.252,2.474.779.552,1.303,1.408,1.418,2.36.317,2.61-2.107,3.613-3.99,4.701-5.21,3.009-10.422,6.016-15.632,9.025-2.619,1.513-5.17,2.52-8.217,1.614-2.502-.744-4.882-2.558-7.13-3.856-2.748-1.586-5.495-3.172-8.243-4.758-1.282-.74-2.564-1.48-3.846-2.221-1.041-.601-2.374-1.13-3.081-2.145-1.181-1.696-.511-3.9,1.179-4.923,1.291-.782,2.614-1.514,3.92-2.271,2.004-1.161.194-4.273-1.817-3.108-1.313.761-2.645,1.495-3.942,2.283-2.353,1.43-3.787,4.01-3.486,6.79.162,1.493.759,2.876,1.767,3.997,1.07,1.19,2.615,1.893,3.98,2.682,3.158,1.824,6.316,3.647,9.474,5.469,2.85,1.645,5.686,3.602,8.696,4.939,3.396,1.508,7.254,1.401,10.576-.26,3.031-1.515,5.924-3.397,8.859-5.092,3.144-1.815,6.288-3.629,9.431-5.445,1.541-.89,3.043-1.705,4.034-3.242.812-1.26,1.183-2.831,1.051-4.319-.382-4.301-4.138-5.87-7.438-7.801-2.004-1.172-3.818,1.938-1.817,3.108h0Z"></path><path class="ar" d="M260.491,38.632c0,11.8,0,23.601.001,35.401,0,2.575,0,5.15,0,7.724,0,2.076.355,4.061,1.983,5.532,1.17,1.056,2.713,1.748,4.069,2.532,1.413.817,2.827,1.634,4.24,2.451,2.881,1.665,5.762,3.329,8.643,4.993,2.362,1.364,4.814,3.187,7.406,4.078,3.307,1.137,6.068-.267,8.865-1.882,2.647-1.528,5.294-3.057,7.941-4.586,2.915-1.684,5.831-3.369,8.745-5.054,2.814-1.627,5.764-3.04,6.038-6.688.163-2.169.015-4.403.015-6.576,0-10.572,0-21.143.001-31.715,0-2.07,0-4.14,0-6.21,0-2.316-3.6-2.32-3.6,0,0,11.514,0,23.029-.001,34.543,0,2.618,0,5.237,0,7.855,0,1.119.184,2.415-.558,3.345-.73.915-2.221,1.475-3.222,2.053-1.461.845-2.923,1.69-4.384,2.535-2.73,1.578-5.46,3.155-8.191,4.732-2.308,1.333-4.605,2.93-7.028,4.043-2.72,1.249-5.09-.626-7.363-1.938-2.558-1.477-5.115-2.954-7.672-4.431-2.85-1.646-5.699-3.293-8.548-4.941-1.013-.586-2.485-1.131-3.222-2.053-.517-.647-.558-1.377-.558-2.159,0-2.258,0-4.517,0-6.775,0-12.27,0-24.54-.001-36.81,0-2.316-3.6-2.32-3.6,0h0Z"></path><path class="ar" d="M265.832,115.552v-10.457c0-.942-.828-1.844-1.8-1.8s-1.8.791-1.8,1.8v10.457c0,.942.828,1.844,1.8,1.8s1.8-.791,1.8-1.8h0Z"></path><path class="ar" d="M277.43,122.247v-10.446c0-.942-.828-1.844-1.8-1.8s-1.8.791-1.8,1.8v10.446c0,.942.828,1.844,1.8,1.8s1.8-.791,1.8-1.8h0Z"></path><path class="ar" d="M317.648,114.997v-10.457c0-.942-.828-1.844-1.8-1.8s-1.8.791-1.8,1.8v10.457c0,.942.828,1.844,1.8,1.8s1.8-.791,1.8-1.8h0Z"></path><path class="ar" d="M306.05,121.693v-10.446c0-.942-.828-1.844-1.8-1.8s-1.8.791-1.8,1.8v10.446c0,.942.828,1.844,1.8,1.8s1.8-.791,1.8-1.8h0Z"></path><path class="ar" d="M265.832,138.378v-10.457c0-.942-.828-1.844-1.8-1.8s-1.8.791-1.8,1.8v10.457c0,.942.828,1.844,1.8,1.8s1.8-.791,1.8-1.8h0Z"></path><path class="ar" d="M277.43,145.074v-10.446c0-.942-.828-1.844-1.8-1.8s-1.8.791-1.8,1.8v10.446c0,.942.828,1.844,1.8,1.8s1.8-.791,1.8-1.8h0Z"></path><path class="ar" d="M317.648,137.824v-10.457c0-.942-.828-1.844-1.8-1.8s-1.8.791-1.8,1.8v10.457c0,.942.828,1.844,1.8,1.8s1.8-.791,1.8-1.8h0Z"></path><path class="ar" d="M306.05,144.519v-10.446c0-.942-.828-1.844-1.8-1.8s-1.8.791-1.8,1.8v10.446c0,.942.828,1.844,1.8,1.8s1.8-.791,1.8-1.8h0Z"></path><path class="ar" d="M302.45,63.714v15.239c0,2.316,3.6,2.32,3.6,0v-15.239c0-2.316-3.6-2.32-3.6,0h0Z"></path><path class="ar" d="M276.659,79.062v-15.239c0-2.316-3.6-2.32-3.6,0v15.239c0,2.316,3.6,2.32,3.6,0h0Z"></path><path class="ar" d="M287.654,112.59v43.012c0,2.316,3.6,2.32,3.6,0v-43.012c0-2.316-3.6-2.32-3.6,0h0Z"></path><path class="ar" d="M287.665,67.317v22.187c0,2.316,3.6,2.32,3.6,0v-22.187c0-2.316-3.6-2.32-3.6,0h0Z"></path><path class="ar" d="M318.44,38.935v-13.85c0-2.316-3.6-2.32-3.6,0v13.85c0,2.316,3.6,2.32,3.6,0h0Z"></path><path class="ar" d="M315.546,20.329c-4.265-2.462-8.53-4.925-12.796-7.387-2.059-1.188-4.118-2.377-6.177-3.565-2.215-1.279-4.378-2.333-7.002-2.334-2.449,0-4.529.904-6.606,2.104-1.987,1.147-3.974,2.295-5.961,3.442-4.173,2.409-8.345,4.818-12.518,7.227-1.879,1.085-3.41,2.422-3.786,4.674-.339,2.028.34,4.143,1.895,5.517,1.628,1.438,3.865,2.387,5.739,3.469,2.2,1.27,4.4,2.54,6.6,3.81,1.993,1.15,3.985,2.301,5.978,3.451,1.973,1.139,3.942,2.511,6.196,3.011,2.528.56,5.134.222,7.452-.918,1.912-.941,3.732-2.128,5.577-3.193,4.741-2.737,9.482-5.474,14.223-8.211,2.155-1.244,3.887-2.685,4.15-5.324.237-2.373-.977-4.527-2.965-5.772-1.969-1.233-3.778,1.88-1.817,3.108,1.107.693,1.562,2.052.935,3.241-.34.644-.91.939-1.519,1.291-.939.542-1.878,1.084-2.818,1.627-3.671,2.12-7.343,4.239-11.014,6.359-1.696.979-3.393,1.959-5.089,2.938-1.82,1.051-3.613,1.783-5.764,1.461-1.893-.283-3.5-1.438-5.123-2.375-1.791-1.034-3.582-2.068-5.372-3.102-3.684-2.127-7.368-4.253-11.051-6.38-1.237-.714-2.709-1.312-2.714-2.962-.005-1.708,1.604-2.322,2.869-3.052,3.69-2.13,7.38-4.261,11.069-6.391,1.733-1.001,3.467-2.002,5.2-3.002,1.673-.966,3.317-2.142,5.279-2.393,2.475-.317,4.39.778,6.447,1.965,2.016,1.163,4.032,2.327,6.047,3.491,4.206,2.428,8.412,4.856,12.619,7.285,2.01,1.16,3.825-1.949,1.817-3.108Z"></path><path class="ar" d="M264.091,40.706v-15.621c0-2.316-3.6-2.32-3.6,0v15.621c0,2.316,3.6,2.32,3.6,0h0Z"></path><path class="ar" d="M291.373,53.134v-9.602c0-.942-.828-1.844-1.8-1.8s-1.8.791-1.8,1.8v9.602c0,.942.828,1.844,1.8,1.8s1.8-.791,1.8-1.8h0Z"></path><path class="ar" d="M290.28,227.812c-8.394-4.846-26.931-15.548-33.745-19.482-.872-.504-1.945-.503-2.817,0-10.245,5.916-23.038,13.303-35.223,20.34-1.879,1.085-1.879,3.796,0,4.88,10.277,5.931,28.557,16.484,33.746,19.48.872.504,1.941.504,2.814,0,11.862-6.852,24.61-14.213,35.223-20.339,1.88-1.085,1.881-3.794.001-4.88ZM245.737,227.668c-.053.118-.104.237-.155.356-.516,1.247-.934,2.529-1.294,3.829-.218.788-.941,1.286-1.736,1.321-.776.035-1.545-.586-1.736-1.321-.339-1.309-.776-2.586-1.297-3.834-.051-.117-.101-.234-.152-.351-.163-.281-.245-.584-.246-.908.021-.16.043-.319.064-.479.105-.459.443-.828.827-1.076.382-.247.956-.3,1.387-.181.389.107.904.441,1.076.827.027.061.052.122.078.183.027-.06.047-.123.074-.183.189-.419.657-.692,1.076-.827.463-.15.969-.039,1.387.181.389.206.712.658.827,1.076.137.499.024.933-.181,1.387ZM257.168,234.794c-.053.118-.104.237-.155.356-.516,1.247-.934,2.529-1.294,3.829-.218.788-.941,1.286-1.736,1.321-.776.035-1.545-.586-1.736-1.321-.339-1.309-.776-2.586-1.297-3.834-.051-.117-.101-.234-.152-.351-.163-.281-.245-.584-.246-.909.021-.159.043-.319.064-.479.105-.459.443-.828.827-1.076.382-.247.956-.3,1.387-.181.389.107.904.441,1.076.827.027.061.052.122.078.183.027-.06.047-.123.074-.183.189-.419.657-.692,1.076-.827.463-.15.969-.039,1.387.181.389.206.712.658.827,1.076.137.499.024.933-.181,1.387ZM257.246,220.049c-.053.118-.104.237-.156.356-.516,1.247-.934,2.529-1.294,3.828-.218.788-.941,1.286-1.736,1.322-.776.035-1.545-.586-1.736-1.322-.339-1.309-.776-2.586-1.297-3.833-.051-.117-.101-.234-.153-.351-.163-.281-.245-.584-.246-.909.021-.16.043-.319.064-.479.105-.459.443-.828.827-1.076.382-.247.956-.3,1.387-.181.389.107.904.441,1.076.827.027.061.052.122.078.183.027-.06.047-.123.074-.183.189-.419.657-.692,1.076-.827.463-.15.969-.039,1.387.181.389.206.712.658.827,1.076.137.499.024.933-.181,1.387ZM269.407,226.682c-.053.118-.104.237-.156.356-.516,1.247-.933,2.529-1.293,3.828-.218.788-.941,1.286-1.736,1.321-.776.035-1.545-.586-1.736-1.321-.339-1.309-.776-2.586-1.297-3.834-.051-.117-.101-.234-.152-.35-.163-.281-.245-.584-.246-.909.021-.159.043-.319.064-.479.105-.459.443-.828.827-1.076.382-.247.956-.3,1.387-.181.389.107.904.441,1.076.827.027.061.052.123.078.184.027-.06.047-.123.074-.184.189-.419.657-.692,1.076-.827.463-.15.969-.039,1.387.181.389.206.712.658.827,1.076.137.499.024.933-.181,1.387Z"></path><g id="ah"><path class="ar" d="M78.105,276.919c2.06-1.002,4.119-2.004,6.179-3.006.296-.144.591-.288.887-.431.849-.413,1.145-1.689.646-2.463-.561-.87-1.555-1.087-2.463-.646-2.06,1.002-4.119,2.004-6.179,3.006-.296.144-.591.288-.887.431-.849.413-1.145,1.689-.646,2.463.561.87,1.555,1.087,2.463.646h0Z"></path></g><g id="ai"><path class="ar" d="M79.617,291.712c.602-.293.956-.954.956-1.942,0-1.761-1.38-3.937-3.377-4.909-.979-.476-1.812-.52-2.406-.231-.613.298-.971.953-.971,1.854,0,1.958,1.334,3.976,3.377,4.97.981.477,1.823.549,2.421.258Z"></path></g><g id="aj"><path class="ar" d="M65.142,260.657c4.16-1.61,8.362-.42,12.245,1.378,1.658.768,3.272,1.602,4.779,2.639,1.908,1.313,3.273,3.107,4.755,4.862,1.53,1.812,3.008,3.392,5.042,4.653,1.788,1.109,4.097,2.064,5.445,3.728.841,1.038,1.871,3.741.57,4.753-1.097.853-2.578,1.436-3.807,2.068-1.656.852-3.328,1.674-5.022,2.446-1.377.628-2.885,1.427-4.409,1.575-1.933.188-3.896.115-5.594-.877-1.575-.921-3.154-1.837-4.734-2.749-6.485-3.743-12.985-7.477-19.599-10.989-.646-.343-1.293-.683-1.944-1.016-.532-.272-1.399-.53-1.787-.986-.588-.693-.207-2.205.01-2.995.308-1.119,1.032-1.973,1.933-2.681,1.459-1.146,3.297-1.897,4.965-2.68,2.356-1.105,4.746-2.14,7.152-3.13.906-.373,1.527-1.192,1.257-2.214-.225-.853-1.316-1.627-2.214-1.257-2.449,1.008-4.886,2.049-7.292,3.158-1.819.838-3.768,1.65-5.412,2.809-2.057,1.451-3.593,3.325-4.033,5.855-.444,2.551-.257,5.092,2.197,6.517,2.858,1.66,5.884,3.08,8.778,4.683,3.999,2.215,7.974,4.472,11.938,6.748,1.856,1.066,3.709,2.136,5.558,3.212,2.106,1.226,3.93,2.137,6.425,2.224,2.18.076,4.134-.195,6.15-1.026,1.912-.788,3.785-1.668,5.638-2.585,1.698-.841,3.39-1.705,5.038-2.642,2.265-1.287,3.059-3.129,2.898-5.712-.141-2.249-1.2-4.346-2.888-5.839-1.978-1.749-4.523-2.716-6.612-4.311-2.382-1.819-3.904-4.572-6.009-6.673-1.752-1.749-4.003-3.047-6.21-4.132-5.008-2.461-10.671-4.413-16.165-2.287-2.138.827-1.209,4.31.957,3.471Z"></path></g><g id="ak"><path class="ar" d="M80.526,293.266c1.966-1.022,2.188-3.685,1.463-5.548-.72-1.852-2.07-3.53-3.884-4.411-1.086-.528-2.363-.881-3.559-.505-1.155.363-1.985,1.24-2.347,2.389-.309.981-.204,2.143.088,3.116.311,1.035.844,1.928,1.525,2.756.688.838,1.616,1.546,2.598,2.003.704.327,1.365.54,2.141.605.702.059,1.344-.118,1.976-.405.386-.175.719-.684.827-1.076.119-.431.065-1.005-.181-1.387-.573-.889-1.542-1.063-2.463-.646.493-.224.29-.114.153-.078-.203.054-.206-.041.173-.007-.138-.012-.294.005-.434.002-.238-.006.474.113.113.011-.072-.02-.147-.033-.219-.053-.076-.021-.152-.044-.226-.069-.078-.027-.156-.055-.233-.086.21.091.253.107.13.05-.314-.168-.624-.327-.917-.532-.059-.041-.116-.089-.176-.128.366.235.198.158.11.08-.147-.132-.295-.259-.434-.399-.112-.113-.22-.23-.323-.351-.031-.037-.261-.306-.056-.063.201.239-.014-.027-.044-.07-.088-.128-.17-.259-.247-.393-.083-.145-.15-.371-.255-.498.015.018.165.427.065.152-.023-.063-.047-.125-.068-.188-.053-.156-.1-.314-.138-.475-.021-.087-.103-.591-.055-.241.046.339.007.012.003-.05-.006-.096-.01-.193-.01-.289,0-.073.007-.147.007-.22,0-.369-.079.347-.016.12.021-.077.042-.158.06-.236.037-.165.145-.117-.081.172.034-.043.088-.14.106-.194.063-.19-.324.332-.101.126.032-.03.099-.085.12-.117-.248.181-.314.233-.198.155.035-.024.071-.046.108-.066.257-.174-.365.093-.161.063.066-.009.143-.039.208-.058.154-.043.211.055-.21.026.061.004.128-.007.19-.006.074,0,.37.056.062-.01-.335-.073.027.01.078.022.151.034.459.07.567.177l-.191-.08c.057.026.113.053.169.081.079.039.157.08.234.123.138.077.273.161.405.249.059.04.149.135.216.152-.026-.006-.343-.281-.115-.088.147.125.292.25.429.386.112.11.22.223.323.34.046.052.089.106.135.158.241.271-.199-.279-.059-.081.194.276.379.553.535.853.038.073.072.147.109.22.166.321-.153-.41-.029-.076.054.147.107.294.151.444.034.118.154.412.12.529-.003.01-.047-.508-.031-.218.005.086.013.17.015.256.002.067.001.134,0,.201-.002.075-.007.15-.013.224.043-.283.053-.355.029-.216-.019.081-.032.163-.055.243l-.027.091c-.064.178-.037.119.081-.176-.027.034-.066.118-.081.153-.074.111-.058.097.047-.044.11-.136.123-.154.038-.055-.053.048-.258.222.005.021.277-.211-.016-.007-.086.03-.837.435-1.154,1.674-.646,2.463.55.853,1.568,1.111,2.463.646Z"></path></g><g id="al"><path class="ar" d="M57.558,278.553c.602-.293.956-.954.956-1.942,0-1.761-1.38-3.937-3.377-4.909-.979-.476-1.812-.52-2.406-.231-.613.298-.971.953-.971,1.854,0,1.958,1.334,3.976,3.377,4.97.981.477,1.823.549,2.421.258Z"></path></g><g id="am"><path class="ar" d="M58.467,280.107c1.966-1.022,2.188-3.685,1.463-5.548-.72-1.852-2.07-3.53-3.884-4.411-1.086-.528-2.363-.881-3.559-.505-1.155.363-1.985,1.24-2.347,2.389-.309.981-.204,2.143.088,3.116.311,1.035.844,1.928,1.525,2.756.688.838,1.616,1.546,2.598,2.003.704.327,1.365.54,2.141.605.702.059,1.344-.118,1.976-.405.386-.175.719-.684.827-1.076.119-.431.065-1.005-.181-1.387-.573-.889-1.542-1.063-2.463-.646.493-.224.29-.114.153-.078-.203.054-.206-.041.173-.007-.138-.012-.294.005-.434.002-.238-.006.474.113.113.011-.072-.02-.147-.033-.219-.053-.076-.021-.152-.044-.226-.069-.078-.027-.156-.055-.233-.086.21.091.253.107.13.05-.314-.168-.624-.327-.917-.532-.059-.041-.116-.089-.176-.128.366.235.198.158.11.08-.147-.132-.295-.259-.434-.399-.112-.113-.22-.23-.323-.351-.031-.037-.261-.306-.056-.063.201.239-.014-.027-.044-.07-.088-.128-.17-.259-.247-.393-.083-.145-.15-.371-.255-.498.015.018.165.427.065.152-.023-.063-.047-.125-.068-.188-.053-.156-.1-.314-.138-.475-.021-.087-.103-.591-.055-.241.046.339.007.012.003-.05-.006-.096-.01-.193-.01-.289,0-.073.007-.147.007-.22,0-.369-.079.347-.016.12.021-.077.042-.158.06-.236.037-.165.145-.117-.081.172.034-.043.088-.14.106-.194.063-.19-.324.332-.101.126.032-.03.099-.085.12-.117-.248.181-.314.233-.198.155.035-.024.071-.046.108-.066.257-.174-.365.093-.161.063.066-.009.143-.039.208-.058.154-.043.211.055-.21.026.061.004.128-.007.19-.006.074,0,.37.056.062-.01-.335-.073.027.01.078.022.151.034.459.07.567.177l-.191-.08c.057.026.113.053.169.081.079.039.157.08.234.123.138.077.273.161.405.249.059.04.149.135.216.152-.026-.006-.343-.281-.115-.088.147.125.292.25.429.386.112.11.22.223.323.34.046.052.089.106.135.158.241.271-.199-.279-.059-.081.194.276.379.553.535.853.038.073.072.147.109.22.166.321-.153-.41-.029-.076.054.147.107.294.151.444.034.118.154.412.12.529-.003.01-.047-.508-.031-.218.005.086.013.17.015.256.002.067.001.134,0,.201-.002.075-.007.15-.013.224.043-.283.053-.355.029-.216-.019.081-.032.163-.055.243l-.027.091c-.064.178-.037.119.081-.176-.027.034-.066.118-.081.153-.074.111-.058.097.047-.044.11-.136.123-.154.038-.055-.053.048-.258.222.005.021.277-.211-.016-.007-.086.03-.837.435-1.154,1.674-.646,2.463.55.853,1.568,1.111,2.463.646Z"></path></g><path class="ar" d="M211.113,191.298c-7.83,4.521-15.66,9.042-23.49,13.564-2.881,1.664-5.762,3.328-8.644,4.991-1.791,1.034-3.582,2.067-5.374,3.1-1.611.93-3.017.905-4.652-.006-1.95-1.087-3.892-2.19-5.829-3.302-2.022-1.161-4.038-2.332-6.041-3.525-1.552-.924-3.782-1.761-4.029-3.784-.23-1.884-.11-3.882-.098-5.776.014-2.178.063-4.356.164-6.531.18-3.884.573-7.839,2.786-11.161,1.58-2.372,3.976-3.668,6.37-5.05,6.444-3.72,12.888-7.441,19.332-11.161,3.378-1.95,6.756-3.901,10.134-5.851,2.095-1.209,4.286-1.875,6.722-1.418,2.278.427,4.271,1.73,6.27,2.839,2.169,1.204,4.324,2.434,6.462,3.692,1.09.642,2.176,1.291,3.255,1.951,1.057.647,2.225,1.241,3.118,2.11,1.241,1.208,1.429,2.636,1.535,4.268.119,1.82.184,3.643.233,5.466.054,2.025.084,4.052.072,6.078-.005.807-.016,1.613-.041,2.42-.021.675.077,1.576-.252,2.188-.389.726-1.517,1.153-2.194,1.544l-3.768,2.176-2.044,1.18c-2.006,1.158-.195,4.27,1.817,3.108,2.079-1.2,4.157-2.401,6.236-3.601,1.186-.685,2.36-1.34,3.061-2.59.928-1.656.755-3.828.778-5.672.05-4.055-.032-8.127-.29-12.175-.123-1.932-.293-3.838-1.408-5.498-1.437-2.139-3.774-3.352-5.924-4.651-2.347-1.418-4.72-2.793-7.108-4.14-2.163-1.219-4.337-2.6-6.652-3.513-2.481-.978-5.258-1.192-7.852-.551-2.217.548-4.153,1.858-6.108,2.987-7.463,4.309-14.925,8.617-22.388,12.926-2.301,1.328-4.605,2.65-6.902,3.985-3.697,2.148-6.291,5.394-7.606,9.465-1.336,4.135-1.301,8.697-1.381,13-.043,2.283-.054,4.57.023,6.852.084,2.474.721,4.633,2.825,6.137,1.789,1.279,3.797,2.32,5.694,3.429,2.13,1.244,4.269,2.473,6.415,3.689,2.174,1.231,4.401,2.85,7.001,2.826,1.677-.015,3.089-.677,4.497-1.49,2.899-1.673,5.799-3.346,8.698-5.019,9.244-5.338,18.488-10.675,27.732-16.013l.66-.381c2.006-1.158.195-4.27-1.817-3.108Z"></path><g id="an"><path class="ar" d="M177.099,216.185c-.726-.419-1.174-1.318-1.174-2.597,0-2.559,1.797-5.671,4.013-6.951,1.109-.64,2.112-.7,2.839-.28s1.174,1.318,1.174,2.597c0,2.559-1.797,5.671-4.013,6.951-1.109.64-2.112.7-2.839.28Z"></path></g><g id="ao"><path class="ar" d="M212.303,196.567c-.726-.419-1.174-1.318-1.174-2.597,0-2.559,1.797-5.671,4.013-6.951,1.109-.64,2.112-.7,2.839-.28s1.174,1.318,1.174,2.597c0,2.559-1.797,5.671-4.013,6.951-1.109.64-2.112.7-2.839.28Z"></path></g><g id="ap"><path class="ar" d="M178.007,214.631c-.27-.166.098.069.095.093.001-.008-.178-.181-.201-.194-.173-.102.148.285.07.09-.026-.066-.077-.154-.122-.208-.139-.166.104.4.007.019-.022-.088-.054-.173-.076-.262-.023-.093-.039-.187-.058-.28.067.324.01.03.005-.136-.006-.186-.001-.373.011-.559.003-.042.037-.252.024-.267.059.072-.058.339-.007.074.082-.416.181-.825.319-1.227.031-.091.068-.181.098-.272.15-.441-.111.219.013-.042.084-.177.165-.356.255-.53.217-.417.472-.802.731-1.194.042-.063.208-.27-.018.014.06-.076.121-.151.183-.225.123-.146.251-.289.384-.427.13-.135.265-.266.404-.392.086-.077.176-.148.262-.225.164-.146-.266.18.013-.006.173-.115.345-.23.527-.331.035-.019.377-.193.193-.108-.174.08.14-.049.182-.062.126-.04.253-.068.382-.099-.077.018-.361.005-.042.014.033,0,.277.003.276.006l-.215-.027c.084.017.167.039.249.067.02.053-.369-.29-.085-.025.208.193-.087-.172-.095-.093,0,.003.142.134.163.152.26.225-.101-.083-.064-.097.013-.005.108.178.126.203.222.314-.065-.261,0-.026.056.202.117.396.156.604-.083-.437-.002.26-.003.366-.002.161.026.448-.037.596.015-.036.076-.42.007-.074-.018.091-.033.181-.052.272-.049.23-.109.458-.178.683-.056.184-.122.364-.187.545-.113.314-.01.035.016-.025-.04.089-.079.179-.121.267-.189.4-.405.788-.646,1.159-.067.103-.136.204-.206.305-.1.142-.179.24-.024.046-.15.188-.305.372-.469.548-.16.172-.328.338-.502.495-.069.062-.14.12-.209.181-.339.297.304-.194-.066.049-.201.132-.403.255-.61.376-.039.023-.321.155-.056.042-.151.064-.313.094-.467.148-.104.037-.327.017.034.01-.115.002-.236-.002-.351.006-.258.019.414.106.021-.006-.351-.099.306.172-.038-.012-.83-.443-1.997-.236-2.463.646-.441.835-.241,1.989.646,2.463,2.583,1.38,5.444-.353,7.076-2.402,1.476-1.853,2.632-4.281,2.475-6.709-.082-1.272-.488-2.59-1.508-3.425-1.194-.977-2.776-1.146-4.202-.585-2.318.912-4.07,2.973-5.039,5.225-1.09,2.532-1.533,6.212,1.199,7.896.803.495,2.016.2,2.463-.646.465-.88.211-1.935-.646-2.463Z"></path></g><g id="aq"><path class="ar" d="M213.212,195.013c-.27-.166.098.069.095.093.001-.008-.178-.181-.201-.194-.173-.102.148.285.07.09-.026-.066-.077-.154-.122-.208-.139-.166.104.4.007.019-.022-.088-.054-.173-.076-.262-.023-.093-.039-.187-.058-.28.067.324.01.03.005-.136-.006-.186-.001-.373.011-.559.003-.042.037-.252.024-.267.059.072-.058.339-.007.074.082-.416.181-.825.319-1.227.031-.091.068-.181.098-.272.15-.441-.111.219.013-.042.084-.177.165-.356.255-.53.217-.417.472-.802.731-1.194.042-.063.208-.27-.018.014.06-.076.121-.151.183-.225.123-.146.251-.289.384-.427.13-.135.265-.266.404-.392.086-.077.176-.148.262-.225.164-.146-.266.18.013-.006.173-.115.345-.23.527-.331.035-.019.377-.193.193-.108-.174.08.14-.049.182-.062.126-.04.253-.068.382-.099-.077.018-.361.005-.042.014.033,0,.277.003.276.006l-.215-.027c.084.017.167.039.249.067.02.053-.369-.29-.085-.025.208.193-.087-.172-.095-.093,0,.003.142.134.163.152.26.225-.101-.083-.064-.097.013-.005.108.178.126.203.222.314-.065-.261,0-.026.056.202.117.396.156.604-.083-.437-.002.26-.003.366-.002.161.026.448-.037.596.015-.036.076-.42.007-.074-.018.091-.033.181-.052.272-.049.23-.109.458-.178.683-.056.184-.122.364-.187.545-.113.314-.01.035.016-.025-.04.089-.079.179-.121.267-.189.4-.405.788-.646,1.159-.067.103-.136.204-.206.305-.1.142-.179.24-.024.046-.15.188-.305.372-.469.548-.16.172-.328.338-.502.495-.069.062-.14.12-.209.181-.339.297.304-.194-.066.049-.201.132-.403.255-.61.376-.039.023-.321.155-.056.042-.151.064-.313.094-.467.148-.104.037-.327.017.034.01-.115.002-.236-.002-.351.006-.258.019.414.106.021-.006-.351-.099.306.172-.038-.012-.83-.443-1.997-.236-2.463.646-.441.835-.241,1.989.646,2.463,2.583,1.38,5.444-.353,7.076-2.402,1.476-1.853,2.632-4.281,2.475-6.709-.082-1.272-.488-2.59-1.508-3.425-1.194-.977-2.776-1.146-4.202-.585-2.318.912-4.07,2.973-5.039,5.225-1.09,2.532-1.533,6.212,1.199,7.896.803.495,2.016.2,2.463-.646.465-.88.211-1.935-.646-2.463Z"></path></g></g></g></svg>