<svg id="b" xmlns="http://www.w3.org/2000/svg" width="159.117" height="231.836" viewBox="0 0 159.117 231.836"><defs><style>.f{fill:#fcdc4a;}.f,.g,.h{stroke-width:0px;}.g{fill:#fff;}.h{fill:#211715;}</style></defs><g id="c"><g id="d"><path class="g" d="M2.259,152.491c-.065-62.398-.16-139.694-.17-149.444,0-.553.447-.993,1-.993h152.699c.552,0,1,.442,1,.995.008,24.666.287,210.449.308,225.753,0,.553-.441.998-.994.998-9.213,0-80.887,0-152.781.007-.552,0-1-.441-1-.994.002-11.128-.026-41.39-.062-76.321Z"></path><path class="f" d="M156.802,36.33c-10.745,0-136.444.05-154.393.05v26.741h154.41" style="fill: rgb(109, 109, 109);"></path><path class="f" d="M156.802,90.555c-10.745,0-136.444.05-154.393.05v26.741h154.41" style="fill: rgb(109, 109, 109);"></path><path class="f" d="M156.802,144.78c-10.745,0-136.444.05-154.393.05v26.741h154.41" style="fill: rgb(109, 109, 109);"></path></g><g id="e"><path class="h" d="M2.258,65.121h154.41c2.574,0,2.578-4,0-4H2.258c-2.574,0-2.578,4,0,4h0Z"></path><path class="h" d="M2.258,38.33h154.41c2.574,0,2.578-4,0-4H2.258c-2.574,0-2.578,4,0,4h0Z"></path><path class="h" d="M2.408,119.346h154.41c2.574,0,2.578-4,0-4H2.408c-2.574,0-2.578,4,0,4h0Z"></path><path class="h" d="M2.408,92.555h154.41c2.574,0,2.578-4,0-4H2.408c-2.574,0-2.578,4,0,4h0Z"></path><path class="h" d="M2.408,173.571h154.41c2.574,0,2.578-4,0-4H2.408c-2.574,0-2.578,4,0,4h0Z"></path><path class="h" d="M2.408,146.78h154.41c2.574,0,2.578-4,0-4H2.408c-2.574,0-2.578,4,0,4h0Z"></path><path class="h" d="M4.259,152.491c-.022-21.21-.046-42.419-.07-63.629-.021-18.538-.043-37.076-.065-55.614-.008-6.453-.015-12.906-.023-19.359-.003-2.153-.005-4.305-.007-6.458-.001-1.258.245-2.811-.005-4.047-.177-.876.264,1.155-.984.668.03.012.074-.008.105,0,.148.038.359,0,.511,0h2.117c2.678,0,5.357,0,8.035,0,9.331,0,18.662,0,27.993,0,12.233,0,24.466,0,36.698,0,12.298,0,24.595,0,36.893,0,9.526,0,19.051,0,28.577,0,2.85,0,5.7,0,8.549,0h2.316c.103,0,.814.085.884,0-.262.321-.67-1.372-.995-.803-.038.066.012.204,0,.281-.038.237,0,.515,0,.756,0,.563,0,1.126.001,1.689,0,1.378.002,2.756.004,4.135.003,3.666.008,7.333.012,10.999.012,10.441.026,20.882.039,31.322.017,13.104.035,26.207.054,39.311.02,14.053.04,28.106.06,42.159.019,13.289.038,26.577.058,39.866.016,10.811.032,21.622.048,32.433.01,6.62.02,13.239.029,19.859.001.763-.114,1.631.003,2.386.011.068-.023.163,0,.228.176.501,1.36-.699.84-.875-.209-.071-.567,0-.789,0-.677,0-1.355,0-2.032,0-4.887,0-9.774,0-14.661,0-17.907,0-35.815,0-53.722.001-24.143,0-48.286.002-72.429.004-1.496,0-2.992,0-4.489,0-.832,0-1.664,0-2.496,0-.301,0-.717-.056-.998,0-.745-.143-.745.139.001.846v-.163c.25-1.06,0-2.485,0-3.575,0-3.28-.003-6.56-.005-9.84-.006-9.343-.014-18.685-.023-28.028-.011-11.518-.022-23.036-.034-34.555-.003-2.574-4.003-2.578-4,0,.022,21.348.045,42.695.058,64.043.002,3.169.004,6.338.004,9.506,0,1.357-.287,3.184.466,4.369.813,1.279,2.148,1.396,3.533,1.396,1.664,0,3.327,0,4.991,0,12.784-.001,25.569-.002,38.353-.003,22.137-.001,44.274-.002,66.412-.003,13.013,0,26.026,0,39.039,0,1.916,0,4.48.418,5.588-1.535.553-.975.392-2.301.39-3.397-.004-2.542-.007-5.084-.011-7.626-.013-8.806-.026-17.611-.039-26.417-.018-12.358-.036-24.715-.054-37.073-.02-14.09-.041-28.18-.061-42.27-.02-13.98-.039-27.96-.059-41.941-.017-12.167-.033-24.333-.048-36.5-.011-8.508-.021-17.016-.029-25.524-.001-1.348-.002-2.697-.003-4.045-.001-1.801.305-3.978-1.539-5.025-1.164-.66-3.001-.394-4.285-.394-7.028,0-14.056,0-21.083,0-11.414,0-22.828,0-34.242,0-12.781,0-25.563,0-38.344,0-11.261,0-22.522,0-33.783,0-6.722,0-13.443,0-20.165,0-2.277,0-5.063-.193-5.259,3.025-.206,3.378.008,6.837.012,10.22.018,15.093.036,30.185.053,45.278.024,20.946.048,41.891.071,62.837.011,10.359.023,20.718.033,31.077.003,2.574,4.003,2.578,4,0Z"></path></g></g></svg>