<svg id="b" xmlns="http://www.w3.org/2000/svg" width="410.785" height="270.365" viewBox="0 0 410.785 270.365"><defs><style>.g{fill:#fcdc4a;}.g,.h,.i{stroke-width:0px;}.h{fill:#fff;}.i{fill:#211715;}</style></defs><g id="c"><g id="d"><path class="h" d="M205.393,268.366C144.383,233.126,65.463,187.556,1.983,150.906c62.11-35.86,130.86-75.54,203.4-117.41,72.56,41.87,141.3,81.54,203.42,117.41-63.397,36.609-142.384,82.206-203.41,117.46Z"></path><path class="h" d="M157.053,88.76c0-12.951,0-27.892,0-42.859,0-.357.191-.688.5-.867L231.276,2.471c1.238-.715,2.762-.715,4,0l73.722,42.563c.309.179.5.509.5.866v107.321c-34.656,20.009-92.139,53.197-126.53,73.052-.305.176-.667.177-.972.002-13.368-7.706-35.004-20.208-48.766-28.148-.305-.176-.487-.492-.486-.844.001-7.338.02-35.463.03-43.256.245-.134,11.936-6.884,24.28-14.015v-12.065s0-16.556,0-39.186Z"></path><g id="e"><path class="g" d="M253.831,185.36c.848-.49,1.696-.979,2.542-1.468,0-11.844,0-27.199,0-39.803,0-1.538-1.66-2.494-2.991-1.724-6.622,3.83-13.332,7.711-20.109,11.63v43.235c6.804-3.929,13.708-7.916,20.559-11.871Z" style="fill: rgb(129, 129, 129);"></path><path class="g" d="M190.553,193.478c0,7.509,0,25.766,0,28.418,10.501-6.065,22.571-13.033,35.19-20.32,0,0,0-14.409,0-29.352,0-.769-.83-1.253-1.497-.869-9.057,5.22-18.319,10.565-26.256,15.156-2.449,1.429-4.786,2.784-6.943,4.03-.309.179-.494.505-.494.862v2.073Z" style="fill: rgb(129, 129, 129);"></path><path class="g" d="M297.363,86.395c-6.844,3.95-15.072,8.707-21.706,12.535-.31.179-.494.506-.494.863,0,4.412,0,8.74,0,11.054,0,.77.834,1.246,1.5.86,7.236-4.18,14.472-8.36,21.698-12.53.309-.179.5-.509.5-.866,0-3.686,0-7.372,0-11.052,0-.77-.832-1.249-1.498-.865Z" style="fill: rgb(129, 129, 129);"></path><path class="g" d="M181.013,104.146v-22.782c0-.358-.192-.688-.502-.867-3.046-1.755-6.062-3.502-8.852-5.11-.666-.384-1.496.098-1.496.868,0,5.418,0,16.599,0,21.058,0,.357.191.684.5.863,3.452,1.993,6.896,3.987,10.349,5.971" style="fill: rgb(129, 129, 129);"></path><path class="g" d="M132.765,162.07c-.913-.927-1.884-1.795-2.915-2.588-1.818-1.398-4.328-1.398-6.145.001-4.252,3.273-7.531,7.77-9.534,12.754-.61,1.518-1.107,3.085-1.403,4.694-.282,1.531-.381,3.089-.479,4.642-.174,2.739-.333,5.578.656,8.138.856,2.218,2.568,4.085,4.684,5.169s6.782,1.659,9.152,1.659c1.146,0,3.711-.237,5.964-.692.002-6.827.013-23.092.022-33.777Z" style="fill: rgb(129, 129, 129);"></path><path class="g" d="M313.171,126.336c-1.818-1.398-4.328-1.398-6.145.001-4.252,3.273-7.532,7.77-9.534,12.754-.61,1.518-1.107,3.085-1.403,4.694-.282,1.531-.381,3.089-.479,4.642-.173,2.739-.333,5.578.656,8.138.856,2.218,2.568,4.085,4.684,5.169,2.116,1.084,6.782,1.659,9.152,1.659,1.788,0,7.036-.575,9.152-1.659,2.116-1.084,3.827-2.951,4.684-5.169.989-2.56.829-5.399.656-8.138-.098-1.553-.197-3.111-.479-4.642-.296-1.609-.793-3.176-1.403-4.694-2.003-4.985-5.284-9.483-9.539-12.756Z" style="fill: rgb(129, 129, 129);"></path></g></g><g id="f"><path class="i" d="M308.483,95.305c25.992,15.004,51.984,30.007,77.975,45.012,7.112,4.106,14.224,8.212,21.335,12.318v-3.454c-26.447,15.272-52.895,30.541-79.342,45.811-27.208,15.709-54.416,31.419-81.623,47.131-14.149,8.171-28.298,16.344-42.445,24.517h2.019c-25.872-14.944-51.746-29.886-77.619-44.828-27.364-15.802-54.728-31.603-82.093-47.403-14.566-8.41-29.132-16.82-43.698-25.23v3.454c39.76-22.961,79.524-45.914,119.29-68.863,11.926-6.883,23.853-13.765,35.78-20.647,2.229-1.286.217-4.744-2.019-3.454-40.909,23.605-81.816,47.214-122.719,70.83-10.784,6.226-21.567,12.453-32.351,18.68-1.297.749-1.298,2.705,0,3.454,26.461,15.277,52.922,30.555,79.383,45.834,27.2,15.706,54.4,31.413,81.599,47.121,14.143,8.168,28.286,16.336,42.428,24.505.623.36,1.396.36,2.019,0,25.881-14.953,51.765-29.901,77.65-44.848,27.365-15.801,54.731-31.601,82.096-47.401,14.555-8.404,29.109-16.807,43.664-25.211,1.297-.749,1.298-2.705,0-3.454-25.464-14.703-50.929-29.403-76.395-44.102-7.638-4.409-15.277-8.818-22.915-13.228-2.233-1.289-4.25,2.166-2.019,3.454h0Z"></path><path class="i" d="M132.231,193.91c-5.843,1.145-15.729,1.506-17.691-5.758-.557-2.062-.4-4.249-.27-6.358.141-2.286.34-4.512,1.012-6.713,1.191-3.901,3.286-7.596,6.01-10.63,1.205-1.342,2.928-3.504,4.766-3.926,2.188-.503,3.911,1.567,5.291,2.957,1.816,1.829,4.645-.999,2.828-2.828-1.795-1.807-3.788-3.764-6.414-4.131s-4.645.786-6.567,2.43c-3.752,3.209-6.671,7.371-8.598,11.903-1.089,2.562-1.797,5.151-2.097,7.921-.291,2.695-.532,5.521-.215,8.221.569,4.853,3.633,9.005,8.405,10.418s9.758,1.3,14.603.351c2.524-.494,1.455-4.351-1.063-3.857h0Z"></path><path class="i" d="M297.852,60.72c-14.522,8.384-29.043,16.768-43.565,25.152-3.795,2.191-7.59,4.382-11.386,6.574-2.229,1.287-.217,4.745,2.019,3.454,14.522-8.384,29.043-16.768,43.565-25.152,3.795-2.191,7.59-4.382,11.386-6.574,2.229-1.287.217-4.745-2.019-3.454h0Z"></path><path class="i" d="M192.553,221.896c0-9.397,0-18.794,0-28.191,0-.416-.038-.851,0-1.266.066-.727.417-.698,1.151-1.123,1.951-1.129,3.896-2.268,5.848-3.397,3.779-2.185,7.558-4.369,11.339-6.551,4.02-2.321,8.042-4.64,12.063-6.959.426-.246,1.157-.479,1.466-.845.325-.386.859,0-.129-.542-.842-.462-.547-.228-.547.445,0,1.233,0,2.466,0,3.699,0,2.287,0,4.575,0,6.862,0,5.849,0,11.698,0,17.548,0,2.574,4,2.578,4,0,0-5.474,0-10.948,0-16.422,0-2.419,0-4.838,0-7.257,0-1.228,0-2.457,0-3.685,0-1.174.188-2.526-.453-3.573-.579-.946-1.665-1.454-2.751-1.396-1.215.064-2.377,1.006-3.395,1.593-2.163,1.247-4.326,2.494-6.489,3.742-4.256,2.455-8.511,4.911-12.765,7.37-2.058,1.189-4.117,2.378-6.171,3.574-.951.554-1.902,1.107-2.854,1.659-1.034.599-2.292,1.133-3.144,1.985-1.795,1.796-1.168,5.368-1.168,7.712,0,2.957,0,5.914,0,8.871,0,5.383,0,10.766,0,16.148,0,2.574,4,2.578,4,0h0Z"></path><path class="i" d="M199.485,198.146c6.436-3.745,12.891-7.458,19.34-11.182,2.229-1.287.217-4.745-2.019-3.454-6.449,3.723-12.904,7.436-19.34,11.182-2.224,1.294-.213,4.752,2.019,3.454h0Z"></path><path class="i" d="M199.485,208.217c6.447-3.724,12.892-7.453,19.34-11.176,2.229-1.287.217-4.745-2.019-3.454-6.448,3.723-12.893,7.452-19.34,11.176-2.228,1.287-.216,4.745,2.019,3.454h0Z"></path><path class="i" d="M234.282,155.723c4.082-2.361,8.165-4.721,12.247-7.083,2.055-1.189,4.11-2.377,6.165-3.566.423-.245.843-.497,1.269-.734.732-.407.442-.193.374-.251.08.068.066-.136.036.047-.104.62,0,1.349,0,1.975v4.446c0,8.769,0,17.538,0,26.307,0,2.344,0,4.688,0,7.032,0,2.574,4,2.578,4,0,0-6.674,0-13.347,0-20.021v-13.694c0-2.11.164-4.293-.025-6.399-.206-2.292-2.328-4.004-4.62-3.61-1.194.205-2.232.973-3.265,1.571-1.203.696-2.406,1.392-3.609,2.088-4.863,2.813-9.727,5.626-14.591,8.438-2.228,1.288-.216,4.746,2.019,3.454h0Z"></path><path class="i" d="M296.354,84.668c-4.99,2.88-9.979,5.763-14.968,8.645-1.182.683-2.364,1.365-3.546,2.048-1.169.675-2.577,1.269-3.597,2.155-1.27,1.103-1.08,2.692-1.08,4.226,0,1.526,0,3.052,0,4.577,0,1.124,0,2.249,0,3.373,0,1.337.011,2.609,1.169,3.508,1.206.937,2.529.668,3.767-.012,1.435-.789,2.839-1.64,4.256-2.459,2.837-1.639,5.674-3.277,8.511-4.915,2.755-1.591,5.612-3.076,8.293-4.787,1.722-1.099,1.703-2.519,1.703-4.399,0-1.762,0-3.525,0-5.287,0-1.585.33-3.661-.22-5.163-.553-1.509-2.319-2.291-3.81-1.712-1.006.39-1.704,1.343-1.397,2.46.264.961,1.448,1.79,2.46,1.397l-1.033-.584v.48c-.07.215,0,.771,0,.96,0,.56,0,1.121,0,1.681,0,1.201,0,2.403,0,3.604,0,.641,0,1.282,0,1.923,0,.341.063,1.323.033,1.375-.022.038-.971.512-1.243.669-.638.368-1.276.736-1.913,1.105-4.326,2.497-8.651,4.995-12.977,7.494-.993.574-1.986,1.147-2.979,1.721-.156.09-1.699.843-1.703.984l.542.424c.398.54.579.635.542.283.088-.144,0-.562,0-.749,0-2.017,0-4.033,0-6.05,0-.633,0-1.267,0-1.9,0-.243,0-.485,0-.728,0-.111.124-1.02-.076-.644-.134.252.173-.063.271-.113.238-.121.47-.271.703-.405.539-.311,1.077-.622,1.616-.933,1.88-1.086,3.76-2.172,5.641-3.258,4.351-2.514,8.703-5.028,13.055-7.54,2.229-1.286.217-4.744-2.019-3.454Z"></path><path class="i" d="M168.163,76.254c0,5.854,0,11.708,0,17.562,0,1.158-.077,2.344,0,3.5.154,2.329,2.463,3.148,4.229,4.168,1.894,1.094,3.768,2.239,5.69,3.283,1.69.918,3.942.828,4.711-1.271.36-.982.22-2.165.22-3.195v-5.648c0-3.882,0-7.764,0-11.646,0-.349.015-.701,0-1.049-.098-2.205-1.527-3.207-3.284-4.221-2.155-1.244-4.308-2.49-6.463-3.733-.952-.549-1.892-.949-3.006-.608-1.04.319-1.859,1.257-2.024,2.326s.271,2.151,1.397,2.46c.948.26,2.295-.323,2.46-1.397l-1.046.557c.268.154.535.309.803.463.408.235.816.471,1.224.707.695.401,1.389.803,2.083,1.204.851.492,1.702.984,2.554,1.475.226.131,1.194.562,1.303.755.214.378,0,1.543,0,1.953v10.143c0,1.646,0,3.292,0,4.937,0,1.011-.128,2.119,0,3.123.009.071-.024.18,0,.249.006.017-.007.042,0,.06l1.088-1.098c-.281-.162-.562-.324-.843-.486-1.546-.891-3.091-1.783-4.636-2.676-.714-.413-1.729-1.296-2.53-1.461.196.04.023.759.071.106.014-.187,0-.381,0-.568,0-1.107,0-2.215,0-3.322,0-5.551,0-11.102,0-16.652,0-2.574-4-2.578-4,0Z"></path><path class="i" d="M166.043,52.813c17.502,10.12,35.013,20.222,52.522,30.33,2.119,1.223,4.237,2.446,6.356,3.67,1.997,1.153,4.019,2.621,6.167,3.465,2.646,1.04,4.795-.149,7.051-1.451,2.002-1.155,4.003-2.31,6.005-3.466,8.975-5.18,17.951-10.36,26.926-15.54,9.811-5.663,19.621-11.326,29.432-16.989,2.229-1.287.217-4.744-2.019-3.454-17.366,10.024-34.732,20.048-52.099,30.071-2.083,1.202-4.166,2.404-6.249,3.606-1.94,1.12-3.859,2.41-5.873,3.389-.985.479-1.704.158-2.587-.352-.936-.541-1.872-1.081-2.808-1.622-2.079-1.201-4.159-2.401-6.238-3.602-8.729-5.04-17.46-10.079-26.189-15.118-9.461-5.462-18.921-10.924-28.378-16.393-2.233-1.291-4.249,2.164-2.019,3.454h0Z"></path><path class="i" d="M159.053,138.018V51.123c0-1.679-.592-4.176,1.04-5.246.192-.126.4-.231.598-.345l3.207-1.851c10.146-5.858,20.291-11.716,30.437-17.574,10.682-6.168,21.364-12.335,32.045-18.503,1.947-1.124,3.872-2.428,5.898-3.406,1.166-.563,1.984-.002,2.937.548l3.641,2.102c10.325,5.962,20.651,11.924,30.976,17.886,10.533,6.082,21.065,12.163,31.598,18.245l3.87,2.234c.703.406,1.665.806,2.021,1.573.312.673.172,1.694.172,2.417v42.379c0,10.658,0,21.316,0,31.975v1.772c0,2.574,4,2.578,4,0v-24.322c0-13.605,0-27.209,0-40.814v-11.52c0-1.836-.24-3.546-1.516-5.024-.741-.858-1.756-1.37-2.719-1.926-8.939-5.161-17.878-10.323-26.817-15.484-11.547-6.667-23.094-13.335-34.642-20.002l-8.887-5.131c-2.105-1.215-4.398-1.559-6.649-.363-.533.283-1.049.606-1.572.908-9.183,5.302-18.366,10.604-27.549,15.907-11.443,6.607-22.887,13.215-34.33,19.822-2.787,1.609-5.583,3.206-8.362,4.828-.135.079-.273.152-.406.234-1.149.718-2.039,1.705-2.544,2.967-.628,1.572-.447,3.31-.447,4.968v87.641c0,2.574,4,2.578,4,0h0Z"></path><path class="i" d="M231.273,100.676v96.56c0,2.574,4,2.578,4,0v-96.56c0-2.574-4-2.578-4,0h0Z"></path><path class="i" d="M180.483,190.826v25.157c0,2.574,4,2.578,4,0v-25.157c0-2.574-4-2.578-4,0h0Z"></path><path class="i" d="M174.003,127.911c-8.09,4.675-16.181,9.348-24.273,14.02-3.592,2.074-7.184,4.147-10.776,6.22-2.703,1.56-6.628,3.018-7.801,6.12-.631,1.669-.382,3.685-.384,5.444-.002,1.871-.004,3.741-.006,5.612-.004,4.449-.008,8.898-.012,13.347-.003,4.133-.006,8.266-.008,12.399,0,1.483-.062,2.981-.001,4.463.115,2.798,1.71,4.454,4.018,5.785,8.878,5.119,17.752,10.247,26.627,15.373,4.422,2.554,8.843,5.107,13.266,7.659,1.893,1.092,3.907,2.637,5.999,3.299,2.688.851,4.83-.528,7.067-1.819,17.146-9.893,34.289-19.791,51.433-29.689,18.063-10.429,36.126-20.859,54.19-31.287,1.977-1.141,3.954-2.283,5.931-3.424,2.229-1.287.217-4.744-2.019-3.454-17.27,9.969-34.538,19.94-51.807,29.911-17.163,9.909-34.326,19.819-51.491,29.725-1.891,1.091-3.782,2.183-5.673,3.274-.861.497-1.722.994-2.583,1.491s-1.844,1.307-2.818,1.517c-.963.208-1.762-.432-2.548-.885-.959-.553-1.918-1.106-2.878-1.66-2.009-1.159-4.018-2.319-6.026-3.478-8.88-5.126-17.757-10.257-26.637-15.383-2.009-1.16-4.017-2.319-6.026-3.478-1.526-.88-3.996-1.623-4.023-3.674-.046-3.416.002-6.836.005-10.252.005-8.277.013-16.554.021-24.832,0-.775.002-1.55.002-2.325,0-.764-.155-1.728.173-2.437.477-1.032,2.054-1.597,2.996-2.14,3.01-1.736,6.019-3.473,9.028-5.209,7.92-4.572,15.839-9.145,23.757-13.72,1.766-1.02,3.532-2.041,5.298-3.061,2.228-1.288.216-4.746-2.019-3.454h0Z"></path><path class="i" d="M188.081,130.21c9.339,5.401,18.683,10.792,28.027,16.185.925.534,1.851,1.066,2.775,1.602,2.231,1.294,4.247-2.162,2.019-3.454-7.584-4.397-15.186-8.764-22.777-13.149-2.675-1.545-5.351-3.091-8.025-4.638-2.233-1.291-4.249,2.164-2.019,3.454h0Z"></path><path class="i" d="M239.383,176.395c2.952,1.707,5.924,3.383,8.86,5.117.902.532,2.233.234,2.736-.718.508-.962.245-2.168-.718-2.736-2.936-1.734-5.908-3.409-8.86-5.117-.906-.524-2.23-.24-2.736.718s-.25,2.177.718,2.736h0Z"></path><path class="i" d="M139.673,161.016c7.922,4.557,15.829,9.14,23.743,13.71,4.755,2.746,9.511,5.492,14.266,8.238,1.037.599,2.092,1.332,3.265,1.621,2.7.666,4.829-.833,7.057-2.12,4.738-2.736,9.475-5.473,14.213-8.21,10.689-6.176,21.378-12.353,32.065-18.532,2.228-1.288.216-4.746-2.019-3.454-9.254,5.35-18.508,10.698-27.763,16.046-4.664,2.695-9.328,5.389-13.992,8.083-2.338,1.35-4.662,2.964-7.107,4.105-1.228.573-2.132-.087-3.176-.69-9.768-5.64-19.536-11.281-29.303-16.922-3.077-1.777-6.151-3.558-9.231-5.329-2.235-1.286-4.252,2.169-2.019,3.454h0Z"></path><path class="i" d="M314.181,124.61c-1.644-1.17-3.72-1.579-5.689-1.133-1.926.436-3.466,1.829-4.874,3.137-2.916,2.711-5.328,6.034-7.043,9.624-1.945,4.071-2.723,8.146-2.993,12.623-.258,4.268.027,8.443,2.893,11.845,2.39,2.838,5.777,3.834,9.316,4.326,3.003.417,5.81.37,8.805-.059,3.365-.483,6.516-1.379,8.884-3.984,2.97-3.268,3.404-7.456,3.166-11.693-.138-2.46-.287-4.95-.889-7.348-.575-2.289-1.496-4.518-2.579-6.612-2.081-4.022-5.021-7.625-8.591-10.413-.851-.664-1.999-.829-2.828,0-.691.691-.856,2.16,0,2.828,5.287,4.128,9.459,10.317,10.507,17.027.277,1.773.352,3.599.426,5.39.075,1.833.077,3.707-.535,5.46-.929,2.663-3.146,4.327-5.73,4.951-2.21.534-4.567.872-6.845.807-2.41-.068-5.156-.313-7.393-1.267-2.958-1.262-4.494-4.257-4.674-7.338-.211-3.617.071-7.594,1.154-11.057,1.114-3.561,2.997-6.97,5.416-9.812,1.915-2.249,4.913-6.102,8.079-3.848.88.627,2.226.156,2.736-.718.587-1.004.165-2.108-.718-2.736Z"></path></g></g></svg>